<?xml version="1.0" standalone="no"?>
<!DOCTYPE svg PUBLIC "-//W3C//DTD SVG 1.1//EN" "http://www.w3.org/Graphics/SVG/1.1/DTD/svg11.dtd" >
<svg xmlns="http://www.w3.org/2000/svg" xmlns:xlink="http://www.w3.org/1999/xlink" version="1.1">
<metadata>
Created by FontForge 20201107 at Tue Jan 17 04:07:56 2012
 By RENDER2
Copyright (c) 2011 - 2012 Linotype Corp., www.linotype.com. All rights reserved. This font software may not be reproduced, modified, disclosed or transferred without the express written approval of Linotype Corp. Neue Haas Grotesk is a trademark of Linotype Corp. registered in the U.S. Patent and Trademark Office and may be registered in certain other jurisdictions in the name of Linotype Corp. or its licensee Linotype GmbH. This typeface is original artwork of Christian Schwartz. The design may be protected in certain jurisdictions.
</metadata>
<defs>
<font id="NHaasGroteskDSPro-65Md" horiz-adv-x="500" >
  <font-face 
    font-family="NeueHaasGroteskDisp Pro Md"
    font-weight="500"
    font-stretch="normal"
    units-per-em="1000"
    panose-1="2 11 6 4 2 2 2 2 2 4"
    ascent="771"
    descent="-229"
    x-height="513"
    cap-height="715"
    bbox="-171 -263 1212 930"
    underline-thickness="50"
    underline-position="75"
    stemh="114"
    stemv="136"
    unicode-range="U+0020-FB04"
  />
<missing-glyph 
 />
    <glyph glyph-name="f_f" unicode="ff" horiz-adv-x="619" 
d="M14 419v94h70v42c0 125 97 169 223 155v-105c-59 3 -87 -5 -87 -58v-34h153v46c0 125 97 169 228 155v-105c-64 3 -92 -5 -92 -58v-38h92v-94h-92v-419h-136v419h-153v-419h-136v419h-70z" />
    <glyph glyph-name="fi" unicode="fi" horiz-adv-x="550" 
d="M11 419v94h70v46c0 125 97 169 228 155v-105c-64 3 -92 -5 -92 -58v-38h92v-94h-92v-419h-136v419h-70zM370 0v513h136v-513h-136zM370 593v122h136v-122h-136z" />
    <glyph glyph-name="fl" unicode="fl" horiz-adv-x="555" 
d="M14 419v94h70v46c0 125 97 169 228 155v-105c-64 3 -92 -5 -92 -58v-38h92v-94h-92v-419h-136v419h-70zM373 0v715h136v-715h-136z" />
    <glyph glyph-name="f_f_i" unicode="ffi" horiz-adv-x="842" 
d="M14 419v94h70v42c0 125 97 169 223 155v-105c-59 3 -87 -5 -87 -58v-34h153v46c0 125 97 169 228 155v-105c-64 3 -92 -5 -92 -58v-38h92v-94h-92v-419h-136v419h-153v-419h-136v419h-70zM662 0v513h136v-513h-136zM662 593v122h136v-122h-136z" />
    <glyph glyph-name="f_f_l" unicode="ffl" horiz-adv-x="846" 
d="M14 419v94h70v42c0 125 97 169 223 155v-105c-59 3 -87 -5 -87 -58v-34h153v46c0 125 97 169 228 155v-105c-64 3 -92 -5 -92 -58v-38h92v-94h-92v-419h-136v419h-153v-419h-136v419h-70zM664 0v715h136v-715h-136z" />
    <glyph glyph-name=".notdef" 
 />
    <glyph glyph-name=".null" horiz-adv-x="0" 
 />
    <glyph glyph-name=".null" horiz-adv-x="0" 
 />
    <glyph glyph-name="space" unicode=" " horiz-adv-x="168" 
 />
    <glyph glyph-name="exclam" unicode="!" horiz-adv-x="254" 
d="M94 209l-38 348v158h142v-158l-38 -348h-66zM54 0v145h146v-145h-146z" />
    <glyph glyph-name="quotedbl" unicode="&#x22;" horiz-adv-x="382" 
d="M222 464v251h119v-251h-119zM41 464v251h119v-251h-119z" />
    <glyph glyph-name="numbersign" unicode="#" horiz-adv-x="593" 
d="M61 407l18 106h96l27 173h93l-27 -173h108l27 173h93l-27 -173h97l-17 -106h-97l-18 -118h96l-17 -106h-96l-28 -183h-93l28 183h-108l-28 -183h-93l28 183h-97l18 106h96l18 118h-97zM251 407l-18 -118h108l18 118h-108z" />
    <glyph glyph-name="dollar" unicode="$" horiz-adv-x="614" 
d="M281 -97v86c-163 10 -255 90 -259 225h136c9 -70 46 -106 123 -114v190c-2 0 -4 0 -5 1c-122 28 -235 61 -235 204c0 129 100 198 240 205v59h60v-60c134 -12 219 -86 228 -212h-133c-7 56 -44 89 -95 99v-173c2 -1 4 -1 6 -1c129 -26 239 -66 239 -208
c0 -134 -103 -209 -245 -216v-85h-60zM446 187c0 51 -39 71 -105 88v-175c58 6 105 32 105 87zM180 510c0 -46 32 -66 101 -84v163c-63 -6 -101 -35 -101 -79z" />
    <glyph glyph-name="percent" unicode="%" horiz-adv-x="837" 
d="M195 301c-102 0 -176 78 -176 199c0 122 75 200 176 200c103 0 175 -77 175 -200c0 -121 -72 -199 -175 -199zM643 -16c-102 0 -176 78 -176 199c0 122 75 200 176 200c103 0 175 -77 175 -200c0 -121 -72 -199 -175 -199zM201 0l351 686h85l-351 -686h-85zM643 61
c47 0 69 50 69 122s-23 124 -69 124c-47 0 -69 -51 -69 -124c0 -71 22 -122 69 -122zM195 378c47 0 69 50 69 122s-23 124 -69 124c-47 0 -69 -51 -69 -124c0 -71 22 -122 69 -122z" />
    <glyph glyph-name="ampersand" unicode="&#x26;" horiz-adv-x="656" 
d="M257 -15c-157 0 -238 87 -238 199c0 102 65 166 158 213c-41 50 -60 90 -60 148c0 93 74 165 185 165c108 0 187 -66 187 -164c0 -88 -51 -132 -128 -172l95 -123c14 36 24 77 28 116h121c-6 -80 -29 -157 -68 -221l113 -146h-166l-37 47c-53 -39 -118 -62 -190 -62z
M262 97c43 0 82 15 114 42l-131 171c-61 -37 -82 -77 -82 -122c0 -54 43 -91 99 -91zM248 543c0 -32 22 -63 52 -92c47 28 60 59 60 93c0 35 -26 57 -56 57c-32 0 -56 -24 -56 -58z" />
    <glyph glyph-name="quotesingle" unicode="'" horiz-adv-x="201" 
d="M41 464v251h119v-251h-119z" />
    <glyph glyph-name="parenleft" unicode="(" horiz-adv-x="346" 
d="M219 -131c-81 111 -152 256 -152 439c0 189 72 341 151 446h116c-73 -115 -125 -253 -125 -446c0 -180 55 -320 124 -439h-114z" />
    <glyph glyph-name="parenright" unicode=")" horiz-adv-x="346" 
d="M13 -131c69 119 124 259 124 439c0 193 -52 331 -125 446h116c79 -105 151 -257 151 -446c0 -183 -71 -328 -152 -439h-114z" />
    <glyph glyph-name="asterisk" unicode="*" horiz-adv-x="402" 
d="M134 391l-62 45l68 92l-108 35l27 69l104 -35v118h77v-118l103 35l27 -69l-106 -35l67 -92l-61 -45l-68 97z" />
    <glyph glyph-name="plus" unicode="+" horiz-adv-x="569" 
d="M35 278v100h197v203h104v-203h198v-100h-198v-203h-104v203h-197z" />
    <glyph glyph-name="comma" unicode="," horiz-adv-x="218" 
d="M37 -166v49c39 20 72 55 72 117h-73v145h146v-137c0 -102 -68 -160 -145 -174z" />
    <glyph glyph-name="hyphen" unicode="-" horiz-adv-x="339" 
d="M34 189v117h271v-117h-271z" />
    <glyph glyph-name="period" unicode="." horiz-adv-x="218" 
d="M36 0v145h146v-145h-146z" />
    <glyph glyph-name="slash" unicode="/" horiz-adv-x="414" 
d="M13 0l280 715h108l-280 -715h-108z" />
    <glyph glyph-name="zero" unicode="0" horiz-adv-x="632" 
d="M316 -16c-175 0 -286 140 -286 358c0 219 113 358 287 358c177 0 285 -138 285 -358c0 -218 -108 -358 -286 -358zM317 100c102 0 143 95 143 242c0 145 -42 242 -143 242c-102 0 -145 -96 -145 -242c0 -145 43 -242 145 -242z" />
    <glyph glyph-name="one" unicode="1" horiz-adv-x="392" 
d="M182 0v478h-155v90c84 3 159 34 173 122h119v-690h-137z" />
    <glyph glyph-name="two" unicode="2" horiz-adv-x="547" 
d="M26 0c5 131 87 211 165 272c86 68 180 116 180 204c0 64 -34 107 -95 107c-69 0 -110 -50 -112 -139h-128c0 156 80 255 243 255c149 0 233 -101 233 -219c0 -129 -88 -190 -172 -246c-53 -34 -115 -78 -138 -122h316v-112h-492z" />
    <glyph glyph-name="three" unicode="3" horiz-adv-x="567" 
d="M285 -15c-177 0 -268 98 -270 248h130c5 -82 41 -139 135 -139c76 0 121 41 121 111c0 66 -42 106 -126 106h-42v103h39c65 0 111 33 111 91c0 54 -37 90 -97 90c-78 0 -116 -51 -119 -122h-130c5 135 90 226 249 226c143 0 235 -71 235 -185c0 -77 -49 -122 -117 -144
v-2c87 -21 139 -77 139 -172c0 -142 -117 -211 -258 -211z" />
    <glyph glyph-name="four" unicode="4" horiz-adv-x="595" 
d="M340 0v149h-316v147l311 397h138v-435h104v-109h-104v-149h-133zM134 261v-3h206v266h-2z" />
    <glyph glyph-name="five" unicode="5" horiz-adv-x="578" 
d="M289 -15c-152 0 -263 80 -276 213h134c12 -67 68 -99 139 -99c78 0 127 56 127 129c0 81 -55 126 -127 126c-52 0 -92 -20 -112 -43h-131l66 374h404v-113h-309l-26 -148h2c30 26 79 43 142 43c121 0 232 -91 232 -239c0 -143 -115 -243 -265 -243z" />
    <glyph glyph-name="six" unicode="6" horiz-adv-x="594" 
d="M315 -15c-196 0 -282 161 -284 347c-1 121 23 219 84 288c44 50 104 79 197 79c137 0 219 -75 236 -177h-131c-10 42 -40 73 -100 73c-100 0 -148 -75 -148 -196h2c36 42 81 71 161 71c127 0 238 -99 238 -245c0 -141 -112 -240 -255 -240zM310 92c74 0 130 57 130 131
c0 78 -55 137 -129 137c-84 0 -133 -57 -133 -136c0 -77 55 -132 132 -132z" />
    <glyph glyph-name="seven" unicode="7" horiz-adv-x="530" 
d="M112 0c9 252 143 459 247 566v2h-340v117h488v-112c-123 -125 -237 -324 -247 -573h-148z" />
    <glyph glyph-name="eight" unicode="8" horiz-adv-x="597" 
d="M302 -15c-155 0 -279 75 -279 213c0 85 50 151 125 180v3c-61 28 -96 70 -96 136c0 116 101 182 249 182s244 -65 244 -180c0 -64 -36 -109 -95 -137v-3c76 -27 124 -92 124 -175c0 -141 -117 -219 -272 -219zM299 95c80 0 135 43 135 108c0 70 -49 116 -133 116
s-137 -46 -137 -116c0 -67 52 -108 135 -108zM299 414c71 0 113 38 113 92s-42 90 -113 90c-72 0 -114 -36 -114 -90s42 -92 114 -92z" />
    <glyph glyph-name="nine" unicode="9" horiz-adv-x="597" 
d="M293 -15c-143 0 -225 76 -240 179h132c11 -41 43 -75 104 -75c43 0 75 13 99 43c27 34 42 90 43 161h-2c-36 -42 -84 -75 -159 -75c-139 0 -245 95 -245 241c0 141 111 240 258 240c182 0 284 -115 284 -347c0 -219 -73 -367 -274 -367zM289 328c78 0 138 52 138 131
c0 78 -59 133 -137 133c-79 0 -135 -57 -135 -131c0 -78 50 -133 134 -133z" />
    <glyph glyph-name="colon" unicode=":" horiz-adv-x="224" 
d="M39 301v145h146v-145h-146zM39 0v145h146v-145h-146z" />
    <glyph glyph-name="semicolon" unicode=";" horiz-adv-x="224" 
d="M40 -166v49c39 20 72 55 72 117h-73v145h146v-137c0 -102 -68 -160 -145 -174zM39 301v145h146v-145h-146z" />
    <glyph glyph-name="less" unicode="&#x3c;" 
d="M455 79l-410 173v116l410 173v-114l-217 -85c-33 -13 -95 -33 -95 -33v-2s62 -18 95 -30l217 -82v-116z" />
    <glyph glyph-name="equal" unicode="=" horiz-adv-x="562" 
d="M56 358v98h464v-98h-464zM56 165v98h464v-98h-464z" />
    <glyph glyph-name="greater" unicode="&#x3e;" 
d="M45 79v114l217 85c33 13 95 33 95 33v2s-62 18 -95 30l-217 82v116l410 -173v-116z" />
    <glyph glyph-name="question" unicode="?" horiz-adv-x="538" 
d="M193 209c0 117 43 146 104 190c43 31 81 55 81 116s-45 98 -106 98c-74 0 -124 -47 -125 -125h-129c3 133 90 240 253 240c153 0 243 -91 243 -209c0 -99 -52 -139 -95 -172c-75 -57 -104 -67 -104 -138h-122zM181 0v145h146v-145h-146z" />
    <glyph glyph-name="at" unicode="@" horiz-adv-x="901" 
d="M395 78c-103 0 -167 77 -167 196c0 144 79 245 199 245c58 0 96 -28 115 -74h2l7 63h125l-34 -274c-7 -51 3 -80 43 -80c46 0 97 53 97 187c0 199 -131 296 -317 296s-340 -130 -340 -353c0 -183 110 -318 315 -318c66 0 127 14 181 37l28 -66c-62 -31 -133 -46 -207 -46
c-236 0 -406 156 -406 393c0 276 210 430 430 430c212 0 399 -129 399 -371c0 -163 -71 -264 -190 -264c-71 0 -121 26 -141 79h-3c-30 -51 -76 -80 -136 -80zM430 175c63 0 100 62 100 147c0 58 -25 101 -76 101c-62 0 -96 -65 -96 -146c0 -57 22 -102 72 -102z" />
    <glyph glyph-name="A" unicode="A" horiz-adv-x="659" 
d="M3 0l249 715h150l252 -715h-151l-48 152h-258l-47 -152h-147zM295 469l-64 -206h189l-64 206c-12 38 -29 110 -29 110h-2s-18 -72 -30 -110z" />
    <glyph glyph-name="B" unicode="B" horiz-adv-x="656" 
d="M55 0v715h320c77 0 136 -19 173 -52c39 -35 57 -78 57 -134c0 -73 -45 -120 -112 -143v-3c79 -23 133 -89 133 -177c0 -67 -21 -113 -63 -149c-41 -36 -104 -57 -180 -57h-328zM200 320v-200h167c70 0 112 39 112 97c0 68 -50 103 -116 103h-163zM200 427h157
c63 0 106 30 106 86c0 53 -39 84 -103 84h-160v-170z" />
    <glyph glyph-name="C" unicode="C" horiz-adv-x="684" 
d="M368 -15c-201 0 -344 155 -344 370c0 212 132 374 343 374c176 0 280 -105 295 -241h-144c-13 72 -67 119 -151 119c-132 0 -195 -110 -195 -252c0 -146 76 -251 196 -251c85 0 145 51 154 126h142c-4 -63 -31 -124 -79 -169c-49 -46 -118 -76 -217 -76z" />
    <glyph glyph-name="D" unicode="D" horiz-adv-x="672" 
d="M55 0v715h279c191 0 314 -154 314 -365c0 -116 -39 -218 -114 -281c-53 -44 -122 -69 -212 -69h-267zM200 125h112c136 0 189 83 189 225s-62 241 -185 241h-116v-466z" />
    <glyph glyph-name="E" unicode="E" horiz-adv-x="619" 
d="M55 0v715h526v-122h-381v-160h334v-119h-334v-193h384v-121h-529z" />
    <glyph glyph-name="F" unicode="F" horiz-adv-x="594" 
d="M55 0v715h512v-123h-367v-172h311v-124h-311v-296h-145z" />
    <glyph glyph-name="G" unicode="G" horiz-adv-x="734" 
d="M579 0l-5 96h-2c-49 -82 -116 -111 -201 -111c-108 0 -192 39 -251 104c-59 66 -93 158 -93 266c0 119 42 223 117 292c58 53 134 82 230 82c180 0 283 -99 306 -239h-142c-16 69 -69 119 -161 119c-135 0 -202 -112 -202 -254c0 -146 77 -253 200 -253
c111 0 184 83 184 162v4h-172v112h301v-380h-109z" />
    <glyph glyph-name="H" unicode="H" horiz-adv-x="681" 
d="M55 0v715h145v-280h281v280h145v-715h-145v315h-281v-315h-145z" />
    <glyph glyph-name="I" unicode="I" horiz-adv-x="257" 
d="M56 0v715h145v-715h-145z" />
    <glyph glyph-name="J" unicode="J" horiz-adv-x="516" 
d="M251 -13c-148 0 -234 68 -234 208v71h130v-62c0 -72 33 -100 92 -100s86 35 86 98v513h145v-514c0 -122 -71 -214 -219 -214z" />
    <glyph glyph-name="K" unicode="K" horiz-adv-x="674" 
d="M55 0v715h145v-285l275 285h180l-280 -286l298 -429h-170l-230 334l-73 -74v-260h-145z" />
    <glyph glyph-name="L" unicode="L" horiz-adv-x="559" 
d="M55 0v715h145v-594h336v-121h-481z" />
    <glyph glyph-name="M" unicode="M" horiz-adv-x="814" 
d="M55 0v715h204l101 -359c25 -90 45 -193 45 -193h2s19 103 44 193l101 359h207v-715h-135v410c0 58 6 148 6 148h-2s-16 -84 -31 -136l-123 -422h-139l-120 422c-15 52 -31 136 -31 136h-2s6 -90 6 -148v-410h-133z" />
    <glyph glyph-name="N" unicode="N" horiz-adv-x="686" 
d="M55 0v715h147l238 -399c23 -39 50 -100 50 -100h2s-4 74 -4 124v375h143v-715h-140l-244 395c-23 38 -51 99 -51 99h-2s4 -75 4 -125v-369h-143z" />
    <glyph glyph-name="O" unicode="O" horiz-adv-x="737" 
d="M369 -16c-211 0 -345 158 -345 372s134 373 345 373s344 -159 344 -373s-133 -372 -344 -372zM370 103c131 0 195 111 195 253c0 143 -64 254 -195 254s-198 -111 -198 -254c0 -142 67 -253 198 -253z" />
    <glyph glyph-name="P" unicode="P" horiz-adv-x="637" 
d="M55 0v715h314c83 0 145 -24 187 -67c40 -41 64 -97 64 -163c0 -135 -89 -226 -239 -226h-176v-259h-150zM205 589v-212h150c76 0 116 42 116 107c0 67 -42 105 -114 105h-152z" />
    <glyph glyph-name="Q" unicode="Q" horiz-adv-x="733" 
d="M633 -42l-83 75c-51 -31 -113 -49 -183 -49c-211 0 -343 158 -343 372s132 373 343 373s342 -159 342 -373c0 -98 -28 -184 -78 -249l76 -68zM368 103c32 0 60 6 84 19l-63 58l74 80l65 -60c22 43 33 97 33 156c0 143 -62 254 -193 254s-196 -111 -196 -254
c0 -142 65 -253 196 -253z" />
    <glyph glyph-name="R" unicode="R" horiz-adv-x="651" 
d="M55 0v715h328c138 0 230 -80 230 -199c0 -84 -39 -148 -131 -173v-3c66 -19 100 -57 109 -144c10 -101 6 -178 31 -189v-7h-139c-18 8 -20 88 -26 165c-6 78 -50 122 -140 122h-117v-287h-145zM200 598v-199h154c79 0 118 41 118 98c0 58 -37 101 -114 101h-158z" />
    <glyph glyph-name="S" unicode="S" horiz-adv-x="642" 
d="M332 -16c-194 0 -304 86 -309 237h142c10 -86 59 -120 161 -120c74 0 139 26 139 92c0 70 -68 84 -177 109c-128 29 -245 63 -245 212c0 141 115 214 274 214c161 0 265 -79 276 -223h-139c-8 72 -64 108 -138 108c-78 0 -129 -33 -129 -84c0 -58 50 -75 156 -98
c147 -32 267 -67 267 -221c0 -145 -117 -226 -278 -226z" />
    <glyph glyph-name="T" unicode="T" horiz-adv-x="611" 
d="M18 593v122h575v-122h-215v-593h-145v593h-215z" />
    <glyph glyph-name="U" unicode="U" horiz-adv-x="657" 
d="M331 -12c-185 0 -282 87 -282 242v485h145v-485c0 -74 37 -126 134 -126c92 0 135 54 135 128v483h145v-485c0 -153 -94 -242 -277 -242z" />
    <glyph glyph-name="V" unicode="V" horiz-adv-x="618" 
d="M243 0l-241 715h152l126 -414c14 -47 31 -114 31 -114h2s17 68 31 114l125 414h147l-241 -715h-132z" />
    <glyph glyph-name="W" unicode="W" horiz-adv-x="916" 
d="M213 0l-208 715h148l93 -355c14 -61 31 -156 31 -156h2s18 89 33 152l78 359h140l78 -358c15 -63 33 -153 33 -153h2s21 95 35 157l90 354h143l-204 -715h-135l-87 383c-12 52 -25 127 -25 127h-2s-11 -75 -23 -127l-88 -383h-134z" />
    <glyph glyph-name="X" unicode="X" horiz-adv-x="647" 
d="M8 0l231 374l-214 341h163l132 -226h2l132 226h158l-210 -340l237 -375h-169l-146 261h-2l-148 -261h-166z" />
    <glyph glyph-name="Y" unicode="Y" horiz-adv-x="629" 
d="M242 0v276l-238 439h158l108 -212c22 -43 47 -102 47 -102h2s27 59 48 102l106 212h152l-238 -439v-276h-145z" />
    <glyph glyph-name="Z" unicode="Z" horiz-adv-x="626" 
d="M27 0v109l390 482v3h-365v121h537v-121l-377 -468v-3h384v-123h-569z" />
    <glyph glyph-name="bracketleft" unicode="[" horiz-adv-x="382" 
d="M64 -131v885h286v-106h-155v-673h155v-106h-286z" />
    <glyph glyph-name="backslash" unicode="\" horiz-adv-x="414" 
d="M293 0l-280 715h108l280 -715h-108z" />
    <glyph glyph-name="bracketright" unicode="]" horiz-adv-x="382" 
d="M32 -131v106h155v673h-155v106h286v-885h-286z" />
    <glyph glyph-name="asciicircum" unicode="^" horiz-adv-x="447" 
d="M8 428l158 287h115l158 -287h-124l-90 169h-2l-93 -169h-122z" />
    <glyph glyph-name="underscore" unicode="_" horiz-adv-x="423" 
d="M-3 -168v85h428v-85h-428z" />
    <glyph glyph-name="grave" unicode="`" 
d="M210 577l-108 141h159l55 -141h-106z" />
    <glyph glyph-name="a" unicode="a" horiz-adv-x="522" 
d="M367 0c-8 10 -13 34 -16 57h-2c-26 -39 -63 -69 -151 -69c-105 0 -179 55 -179 157c0 113 92 149 206 165c85 12 124 19 124 58c0 37 -29 61 -86 61c-64 0 -95 -23 -99 -72h-121c4 90 71 169 221 169c154 0 216 -69 216 -189v-261c0 -39 6 -62 18 -71v-5h-131zM231 83
c78 0 121 48 121 98v77c-24 -14 -61 -22 -95 -30c-71 -16 -106 -32 -106 -80s32 -65 80 -65z" />
    <glyph glyph-name="b" unicode="b" horiz-adv-x="566" 
d="M330 -15c-72 0 -123 31 -153 79h-2v-64h-131v715h136v-264h3c28 43 72 76 143 76c129 0 221 -111 221 -271c0 -166 -88 -271 -217 -271zM300 99c70 0 109 58 109 157c0 95 -38 161 -114 161c-86 0 -118 -69 -118 -164c0 -94 47 -154 123 -154z" />
    <glyph glyph-name="c" unicode="c" horiz-adv-x="528" 
d="M282 -15c-162 0 -263 118 -263 271s100 271 256 271c133 0 215 -77 233 -188h-133c-9 45 -44 79 -94 79c-82 0 -124 -63 -124 -162c0 -97 39 -162 122 -162c55 0 94 29 103 87h131c-9 -109 -94 -196 -231 -196z" />
    <glyph glyph-name="d" unicode="d" horiz-adv-x="566" 
d="M236 -15c-129 0 -217 105 -217 271c0 160 91 271 219 271c72 0 117 -33 145 -76h3v264h136v-715h-131v67h-2c-30 -49 -81 -82 -153 -82zM266 99c81 0 123 60 123 154c0 98 -32 164 -119 164c-75 0 -113 -66 -113 -161c0 -99 39 -157 109 -157z" />
    <glyph glyph-name="e" unicode="e" horiz-adv-x="544" 
d="M285 -15c-170 0 -266 119 -266 272c0 152 103 270 253 270c165 0 253 -126 253 -309h-372c10 -79 54 -128 131 -128c53 0 84 24 99 63h134c-19 -91 -100 -168 -232 -168zM274 422c-72 0 -107 -43 -119 -110h228c-4 65 -47 110 -109 110z" />
    <glyph glyph-name="f" unicode="f" horiz-adv-x="330" 
d="M14 419v94h70v46c0 125 97 169 228 155v-105c-64 3 -92 -5 -92 -58v-38h92v-94h-92v-419h-136v419h-70z" />
    <glyph glyph-name="g" unicode="g" horiz-adv-x="560" 
d="M270 -175c-140 0 -226 60 -240 160h135c11 -32 40 -57 103 -57c77 0 114 37 114 107v56h-3c-30 -34 -69 -60 -134 -60c-114 0 -226 90 -226 245c0 153 92 251 222 251c64 0 111 -25 142 -68h2v54h131v-474c0 -72 -23 -121 -61 -156c-43 -40 -109 -58 -185 -58zM268 140
c86 0 121 63 121 139c0 75 -40 139 -122 139c-69 0 -115 -54 -115 -140c0 -87 46 -138 116 -138z" />
    <glyph glyph-name="h" unicode="h" horiz-adv-x="549" 
d="M180 715v-269h3c37 54 79 81 149 81c106 0 177 -80 177 -192v-335h-136v315c0 55 -32 94 -89 94c-60 0 -104 -48 -104 -118v-291h-136v715h136z" />
    <glyph glyph-name="i" unicode="i" horiz-adv-x="224" 
d="M44 0v513h136v-513h-136zM44 593v122h136v-122h-136z" />
    <glyph glyph-name="j" unicode="j" horiz-adv-x="224" 
d="M36 -169c-25 0 -56 2 -77 6v97c55 1 85 6 85 53v526h136v-533c0 -60 -12 -90 -34 -112c-26 -27 -66 -37 -110 -37zM44 593v122h136v-122h-136z" />
    <glyph glyph-name="k" unicode="k" horiz-adv-x="546" 
d="M382 0l-144 234l-59 -61v-173h-135v715h135v-396l182 194h163l-189 -195l212 -318h-165z" />
    <glyph glyph-name="l" unicode="l" horiz-adv-x="228" 
d="M46 0v715h136v-715h-136z" />
    <glyph glyph-name="m" unicode="m" horiz-adv-x="834" 
d="M44 0v513h131v-69h3c28 47 78 83 149 83c65 0 117 -36 142 -90h2c35 56 89 90 154 90c108 0 169 -70 169 -182v-345h-136v322c0 58 -29 88 -79 88c-57 0 -92 -44 -92 -112v-298h-136v322c0 58 -29 88 -79 88c-55 0 -92 -44 -92 -112v-298h-136z" />
    <glyph glyph-name="n" unicode="n" horiz-adv-x="549" 
d="M177 513v-70h3c35 55 82 84 152 84c106 0 177 -80 177 -192v-335h-136v315c0 55 -32 94 -89 94c-60 0 -104 -48 -104 -118v-291h-136v513h133z" />
    <glyph glyph-name="o" unicode="o" horiz-adv-x="574" 
d="M287 -15c-159 0 -268 118 -268 271s109 271 268 271s268 -118 268 -271s-109 -271 -268 -271zM287 89c83 0 130 67 130 167s-47 168 -130 168c-84 0 -130 -68 -130 -168s46 -167 130 -167z" />
    <glyph glyph-name="p" unicode="p" horiz-adv-x="571" 
d="M44 -168v681h131v-64h3c33 45 81 78 151 78c136 0 223 -111 223 -271c0 -166 -90 -271 -222 -271c-72 0 -119 29 -148 73h-2v-226h-136zM301 98c69 0 113 57 113 154s-34 165 -118 165c-85 0 -119 -73 -119 -165c0 -93 43 -154 124 -154z" />
    <glyph glyph-name="q" unicode="q" horiz-adv-x="571" 
d="M391 -168v226h-2c-25 -41 -71 -73 -140 -73c-124 0 -222 105 -222 271c0 160 86 271 222 271c70 0 113 -29 144 -78h3v64h131v-681h-136zM278 101c72 0 116 58 116 151s-33 167 -115 167c-85 0 -114 -70 -114 -167s41 -151 113 -151z" />
    <glyph glyph-name="r" unicode="r" horiz-adv-x="351" 
d="M175 513v-82h3c31 58 66 88 126 88c15 0 24 -1 32 -4v-119h-3c-89 9 -153 -38 -153 -146v-250h-136v513h131z" />
    <glyph glyph-name="s" unicode="s" horiz-adv-x="485" 
d="M252 -15c-149 0 -232 72 -240 181h126c9 -59 51 -85 112 -85c60 0 94 23 94 59c0 49 -65 54 -135 68c-92 18 -182 43 -182 155c0 111 92 164 209 164c135 0 210 -67 220 -170h-123c-6 55 -41 75 -99 75c-53 0 -88 -20 -88 -57c0 -44 68 -48 141 -63
c86 -18 181 -42 181 -162c0 -103 -88 -165 -216 -165z" />
    <glyph glyph-name="t" unicode="t" horiz-adv-x="332" 
d="M14 423v90h71v160h133v-160h88v-90h-88v-272c0 -38 21 -51 51 -51c17 0 40 1 40 1v-100s-31 -2 -85 -2c-66 0 -139 26 -139 123v301h-71z" />
    <glyph glyph-name="u" unicode="u" horiz-adv-x="543" 
d="M499 0h-131v60h-3c-35 -47 -75 -74 -147 -74c-114 0 -178 73 -178 185v342h135v-319c0 -60 27 -93 85 -93c64 0 103 48 103 116v296h136v-513z" />
    <glyph glyph-name="v" unicode="v" horiz-adv-x="491" 
d="M180 0l-178 513h138l82 -266c15 -49 23 -82 23 -82h2s7 33 22 82l84 266h136l-179 -513h-130z" />
    <glyph glyph-name="w" unicode="w" horiz-adv-x="745" 
d="M154 0l-150 513h135l62 -238c11 -42 23 -96 23 -96h2s11 55 22 97l64 237h116l67 -237c11 -43 24 -97 24 -97h2s12 54 23 96l65 238h132l-153 -513h-124l-68 252c-11 41 -23 89 -23 89h-2s-13 -48 -24 -89l-70 -252h-123z" />
    <glyph glyph-name="x" unicode="x" horiz-adv-x="535" 
d="M8 0l187 272l-167 241h155l91 -147h2l86 147h141l-159 -240l183 -273h-162l-95 170h-2l-111 -170h-149z" />
    <glyph glyph-name="y" unicode="y" horiz-adv-x="497" 
d="M55 -168v107h48c54 0 76 28 76 70c0 28 -10 61 -39 139l-138 365h143l76 -231c16 -47 33 -112 33 -112h2s14 65 30 112l72 231h137l-179 -526c-39 -114 -77 -155 -181 -155h-80z" />
    <glyph glyph-name="z" unicode="z" horiz-adv-x="485" 
d="M27 0v104l264 299v3h-234v107h392v-109l-258 -292v-3h271v-109h-435z" />
    <glyph glyph-name="braceleft" unicode="{" horiz-adv-x="382" 
d="M318 -131c-138 0 -210 41 -210 185v132c0 51 -21 75 -83 77v100c62 3 83 27 83 77v130c0 144 72 184 210 184h32v-106h-27c-56 0 -84 -13 -84 -78v-152c0 -61 -19 -88 -60 -103v-3c41 -16 60 -42 60 -103v-155c0 -64 28 -79 84 -79h27v-106h-32z" />
    <glyph glyph-name="bar" unicode="|" horiz-adv-x="210" 
d="M64 -131v885h83v-885h-83z" />
    <glyph glyph-name="braceright" unicode="}" horiz-adv-x="382" 
d="M32 -131v106h27c56 0 84 13 84 78v155c0 61 19 88 60 103v3c-41 16 -60 42 -60 103v152c0 64 -28 79 -84 79h-27v106h32c138 0 210 -41 210 -185v-129c0 -51 21 -75 83 -77v-100c-62 -3 -83 -27 -83 -77v-133c0 -144 -72 -184 -210 -184h-32z" />
    <glyph glyph-name="asciitilde" unicode="~" horiz-adv-x="426" 
d="M32 250c1 109 50 156 114 156c57 0 103 -37 137 -37c24 0 33 9 35 36h90c-1 -95 -36 -152 -109 -152c-57 0 -110 36 -142 36c-21 0 -32 -10 -35 -39h-90z" />
    <glyph glyph-name="uni00A0" unicode="&#xa0;" horiz-adv-x="168" 
 />
    <glyph glyph-name="exclamdown" unicode="&#xa1;" horiz-adv-x="254" 
d="M56 -127v158l38 348h66l38 -348v-158h-142zM54 443v145h146v-145h-146z" />
    <glyph glyph-name="cent" unicode="&#xa2;" horiz-adv-x="525" 
d="M248 -100v87c-142 15 -229 127 -229 269c0 144 88 256 229 269v68h60v-68c113 -12 183 -85 200 -186h-133c-8 36 -32 65 -67 75v-317c39 9 66 37 74 84h131c-9 -102 -84 -184 -205 -195v-86h-60zM157 256c0 -84 29 -144 91 -159v317c-60 -15 -91 -74 -91 -158z" />
    <glyph glyph-name="sterling" unicode="&#xa3;" horiz-adv-x="579" 
d="M31 290v87h45c-17 33 -31 69 -31 115c0 117 90 207 254 207c73 0 135 -18 181 -58s73 -97 75 -187h-136c-1 96 -51 134 -119 134c-71 0 -109 -40 -109 -100c0 -40 18 -75 35 -111h147v-87h-117c1 -9 2 -18 2 -27c0 -55 -31 -101 -79 -137l2 -2c23 8 46 18 77 18
c72 0 93 -30 148 -30c39 0 74 22 98 43l62 -107c-40 -35 -98 -62 -159 -62c-97 0 -130 47 -208 47c-40 0 -72 -21 -102 -41l-70 104c54 36 96 83 96 146c0 17 -3 33 -7 48h-85z" />
    <glyph glyph-name="currency" unicode="&#xa4;" horiz-adv-x="512" 
d="M256 146c-35 0 -65 6 -92 19l-66 -67l-84 82l64 64c-16 30 -25 66 -25 105c0 38 9 74 25 104l-64 66l84 82l65 -68c27 13 58 20 93 20c34 0 65 -7 92 -20l66 68l84 -82l-66 -66c17 -30 26 -65 26 -104c0 -38 -9 -74 -25 -104l65 -65l-84 -82l-66 67
c-27 -12 -58 -19 -92 -19zM256 238c56 0 86 44 86 111s-30 112 -86 112c-57 0 -89 -45 -89 -112s32 -111 89 -111z" />
    <glyph glyph-name="yen" unicode="&#xa5;" horiz-adv-x="618" 
d="M68 263v59h147l-211 364h156l108 -202c19 -37 41 -85 41 -85h2s22 48 41 85l107 202h152l-212 -364h150v-59h-174v-63h174v-59h-174v-141h-133v141h-174v59h174v63h-174z" />
    <glyph glyph-name="brokenbar" unicode="&#xa6;" horiz-adv-x="210" 
d="M64 -131v392h83v-392h-83zM64 375v379h83v-379h-83z" />
    <glyph glyph-name="section" unicode="&#xa7;" horiz-adv-x="591" 
d="M306 -171c-159 0 -243 94 -245 207h132c3 -64 45 -100 105 -100c50 0 82 29 82 63c0 47 -48 59 -152 101c-133 54 -204 101 -204 199c0 59 40 109 120 132c-38 27 -60 58 -60 115c0 97 88 153 207 153c136 0 209 -72 217 -176h-123c-6 46 -37 74 -90 74
c-52 0 -76 -21 -76 -51c0 -37 43 -50 135 -87c111 -44 212 -81 212 -192c0 -73 -40 -115 -112 -137c36 -23 70 -64 70 -132c0 -110 -92 -169 -218 -169zM302 339c-33 13 -66 26 -89 36c-39 -10 -56 -33 -56 -60c0 -36 29 -49 129 -94c22 -10 57 -27 87 -40
c39 10 62 35 62 62c0 44 -62 67 -133 96z" />
    <glyph glyph-name="dieresis" unicode="&#xa8;" 
d="M297 581v114h128v-114h-128zM74 581v114h128v-114h-128z" />
    <glyph glyph-name="copyright" unicode="&#xa9;" horiz-adv-x="815" 
d="M408 -17c-206 0 -368 158 -368 372s162 373 368 373s367 -159 367 -373s-161 -372 -367 -372zM408 32c176 0 309 138 309 323s-133 323 -309 323c-177 0 -310 -138 -310 -323s133 -323 310 -323zM411 133c-128 0 -214 95 -214 225s84 227 215 227c110 0 179 -67 189 -158
h-108c-7 37 -35 65 -82 65c-67 0 -101 -58 -101 -134c0 -77 40 -133 102 -133c51 0 80 33 85 73h108c-3 -45 -23 -87 -53 -116c-34 -33 -79 -49 -141 -49z" />
    <glyph glyph-name="ordfeminine" unicode="&#xaa;" horiz-adv-x="497" 
d="M337 236c-7 9 -12 30 -15 50h-2c-22 -32 -59 -60 -130 -60c-90 0 -160 50 -160 140c0 98 78 130 185 144c75 10 105 18 105 50c0 31 -23 51 -71 51c-55 0 -80 -22 -84 -61h-114c4 79 66 149 198 149c136 0 195 -61 195 -166v-230c0 -34 5 -54 15 -61v-6h-122zM220 312
c66 0 103 40 103 83v68c-21 -12 -50 -19 -80 -26c-60 -13 -89 -30 -89 -68c0 -39 27 -57 66 -57z" />
    <glyph glyph-name="guillemotleft" unicode="&#xab;" horiz-adv-x="447" 
d="M388 59l-144 133v132l144 133v-128l-80 -71v-2l80 -71v-126zM198 59l-144 133v132l144 133v-128l-80 -71v-2l80 -71v-126z" />
    <glyph glyph-name="logicalnot" unicode="&#xac;" horiz-adv-x="513" 
d="M35 318v100h423v-273h-104v173h-319z" />
    <glyph glyph-name="uni00AD" unicode="&#xad;" horiz-adv-x="339" 
d="M34 189v117h271v-117h-271z" />
    <glyph glyph-name="registered" unicode="&#xae;" horiz-adv-x="530" 
d="M265 244c-134 0 -239 103 -239 242s105 242 239 242s239 -103 239 -242s-105 -242 -239 -242zM265 281c113 0 195 87 195 205c0 117 -82 204 -195 204c-112 0 -195 -87 -195 -204c0 -118 83 -205 195 -205zM163 360v256h124c50 0 92 -27 92 -75c0 -29 -15 -51 -44 -61v-2
c24 -7 33 -22 38 -46c6 -32 2 -62 12 -67v-5h-68c-7 4 -8 34 -11 59c-2 23 -15 34 -40 34h-34v-93h-69zM232 561v-58h43c24 0 36 10 36 29s-11 29 -36 29h-43z" />
    <glyph glyph-name="macron" unicode="&#xaf;" 
d="M113 592v97h284v-97h-284z" />
    <glyph glyph-name="degree" unicode="&#xb0;" horiz-adv-x="356" 
d="M178 418c-79 0 -146 61 -146 140s67 142 146 142c80 0 146 -63 146 -142s-66 -140 -146 -140zM178 481c45 0 74 34 74 77s-29 79 -74 79s-73 -36 -73 -79s28 -77 73 -77z" />
    <glyph glyph-name="plusminus" unicode="&#xb1;" horiz-adv-x="569" 
d="M35 318v100h197v163h104v-163h198v-100h-198v-163h-104v163h-197zM35 0v100h499v-100h-499z" />
    <glyph glyph-name="twosuperior" unicode="&#xb2;" horiz-adv-x="372" 
d="M26 318c1 79 44 126 96 162c68 47 117 64 117 112c0 29 -16 49 -49 49c-37 0 -61 -26 -61 -73h-97c0 99 62 155 161 155c96 0 149 -58 149 -127c0 -60 -35 -91 -75 -120c-38 -28 -84 -50 -104 -76h181v-82h-318z" />
    <glyph glyph-name="threesuperior" unicode="&#xb3;" horiz-adv-x="374" 
d="M188 309c-116 0 -168 58 -169 144h103c1 -40 17 -68 64 -68c39 0 57 22 57 52c0 34 -21 51 -63 51h-24v72h21c37 0 57 16 57 45c0 26 -15 43 -47 43c-40 0 -54 -25 -56 -57h-100c3 76 59 132 159 132c88 0 149 -42 149 -112c0 -40 -26 -64 -61 -78v-2
c43 -14 74 -45 74 -98c0 -85 -75 -124 -164 -124z" />
    <glyph glyph-name="acute" unicode="&#xb4;" 
d="M397 718l-108 -141h-106l55 141h159z" />
    <glyph glyph-name="mu" unicode="&#xb5;" horiz-adv-x="547" 
d="M44 -168v681h135v-319c0 -60 27 -93 85 -93c64 0 103 48 103 116v296h136v-513h-131v60h-3c-33 -47 -74 -74 -129 -74c-29 0 -45 7 -58 16h-3v-170h-135z" />
    <glyph glyph-name="paragraph" unicode="&#xb6;" horiz-adv-x="578" 
d="M274 341h-53c-121 0 -194 74 -194 186c0 56 20 104 56 138c34 33 83 50 149 50h291v-715h-90v634h-69v-634h-90v341z" />
    <glyph glyph-name="periodcentered" unicode="&#xb7;" horiz-adv-x="218" 
d="M36 243v145h146v-145h-146z" />
    <glyph glyph-name="cedilla" unicode="&#xb8;" 
d="M223 -192c-45 0 -80 12 -106 29l18 32c20 -9 46 -15 70 -15c30 0 57 10 57 31c0 19 -19 29 -41 29c-15 0 -26 -3 -37 -7l-16 22l71 71h59l-60 -50v-2c53 8 106 -11 106 -64c0 -48 -53 -76 -121 -76z" />
    <glyph glyph-name="onesuperior" unicode="&#xb9;" horiz-adv-x="267" 
d="M113 318v249h-91v71c57 2 100 27 110 80h85v-400h-104z" />
    <glyph glyph-name="ordmasculine" unicode="&#xba;" horiz-adv-x="523" 
d="M262 222c-143 0 -238 104 -238 238c0 135 95 239 238 239c142 0 237 -104 237 -239c0 -134 -95 -238 -237 -238zM262 317c71 0 108 59 108 143s-37 144 -108 144c-72 0 -109 -60 -109 -144s37 -143 109 -143z" />
    <glyph glyph-name="guillemotright" unicode="&#xbb;" horiz-adv-x="447" 
d="M59 457l144 -133v-132l-144 -133v128l80 71v2l-80 71v126zM249 457l144 -133v-132l-144 -133v128l80 71v2l-80 71v126z" />
    <glyph glyph-name="onequarter" unicode="&#xbc;" horiz-adv-x="821" 
d="M116 318v249h-91v71c57 2 100 27 110 80h85v-400h-104zM105 0l496 715h90l-497 -715h-89zM634 0v84h-189v91l188 227h103v-242h59v-76h-59v-84h-102zM524 161v-1h110v133h-1z" />
    <glyph glyph-name="onehalf" unicode="&#xbd;" horiz-adv-x="827" 
d="M116 318v249h-91v71c57 2 100 27 110 80h85v-400h-104zM88 0l496 715h90l-497 -715h-89zM478 0c1 79 44 126 96 162c68 47 117 64 117 112c0 29 -16 49 -49 49c-37 0 -61 -26 -61 -73h-97c0 99 62 155 161 155c96 0 149 -58 149 -127c0 -60 -32 -93 -72 -122
c-38 -28 -85 -48 -105 -74h179v-82h-318z" />
    <glyph glyph-name="threequarters" unicode="&#xbe;" horiz-adv-x="864" 
d="M191 309c-116 0 -168 58 -169 144h103c1 -40 17 -68 64 -68c39 0 57 22 57 52c0 34 -21 51 -63 51h-24v72h21c37 0 57 16 57 45c0 26 -15 43 -47 43c-40 0 -54 -25 -56 -57h-100c3 76 59 132 159 132c88 0 149 -42 149 -112c0 -40 -26 -64 -61 -78v-2
c43 -14 74 -45 74 -98c0 -85 -75 -124 -164 -124zM169 0l496 715h90l-497 -715h-89zM677 0v84h-189v91l188 227h103v-242h59v-76h-59v-84h-102zM567 161v-1h110v133h-1z" />
    <glyph glyph-name="questiondown" unicode="&#xbf;" horiz-adv-x="525" 
d="M259 -140c-153 0 -243 91 -243 209c0 99 52 139 95 172c75 57 104 67 104 138h122c0 -117 -43 -146 -104 -190c-43 -31 -81 -55 -81 -116s45 -98 106 -98c74 0 124 47 125 125h129c-3 -133 -90 -240 -253 -240zM203 443v145h146v-145h-146z" />
    <glyph glyph-name="Agrave" unicode="&#xc0;" horiz-adv-x="659" 
d="M3 0l249 715h150l252 -715h-151l-48 152h-258l-47 -152h-147zM295 469l-64 -206h189l-64 206c-12 38 -29 110 -29 110h-2s-18 -72 -30 -110zM279 753l-95 125h159l42 -125h-106z" />
    <glyph glyph-name="Aacute" unicode="&#xc1;" horiz-adv-x="659" 
d="M3 0l249 715h150l252 -715h-151l-48 152h-258l-47 -152h-147zM295 469l-64 -206h189l-64 206c-12 38 -29 110 -29 110h-2s-18 -72 -30 -110zM474 878l-95 -125h-106l42 125h159z" />
    <glyph glyph-name="Acircumflex" unicode="&#xc2;" horiz-adv-x="659" 
d="M3 0l249 715h150l252 -715h-151l-48 152h-258l-47 -152h-147zM295 469l-64 -206h189l-64 206c-12 38 -29 110 -29 110h-2s-18 -72 -30 -110zM159 753l94 114h146l96 -114h-118l-48 57h-2l-49 -57h-119z" />
    <glyph glyph-name="Atilde" unicode="&#xc3;" horiz-adv-x="659" 
d="M3 0l249 715h150l252 -715h-151l-48 152h-258l-47 -152h-147zM295 469l-64 -206h189l-64 206c-12 38 -29 110 -29 110h-2s-18 -72 -30 -110zM385 755c-48 0 -82 33 -109 33c-14 0 -24 -12 -27 -31h-72c0 78 40 118 90 118c49 0 82 -35 109 -35c19 0 25 12 29 31h72
c0 -68 -34 -116 -92 -116z" />
    <glyph glyph-name="Adieresis" unicode="&#xc4;" horiz-adv-x="659" 
d="M3 0l249 715h150l252 -715h-151l-48 152h-258l-47 -152h-147zM295 469l-64 -206h189l-64 206c-12 38 -29 110 -29 110h-2s-18 -72 -30 -110zM365 753v114h128v-114h-128zM162 753v114h128v-114h-128z" />
    <glyph glyph-name="Aring" unicode="&#xc5;" horiz-adv-x="659" 
d="M3 0l249 715h150l252 -715h-151l-48 152h-258l-47 -152h-147zM295 469l-64 -206h189l-64 206c-12 38 -29 110 -29 110h-2s-18 -72 -30 -110zM327 742c-53 0 -97 41 -97 94c0 52 44 94 97 94s97 -42 97 -94c0 -53 -44 -94 -97 -94zM327 789c26 0 45 21 45 47
s-19 47 -45 47s-45 -21 -45 -47s19 -47 45 -47z" />
    <glyph glyph-name="AE" unicode="&#xc6;" horiz-adv-x="972" 
d="M4 0l248 715h677v-125h-354v-161h306v-117h-306v-181h365v-131h-514v152h-224l-51 -152h-147zM349 590l-111 -331h188v331h-77z" />
    <glyph glyph-name="Ccedilla" unicode="&#xc7;" horiz-adv-x="684" 
d="M331 -192c-45 0 -80 12 -106 29l18 32c20 -9 46 -15 70 -15c30 0 57 10 57 31c0 19 -19 29 -41 29c-15 0 -26 -3 -37 -7l-16 22l57 58c-182 16 -309 165 -309 368c0 212 132 374 343 374c176 0 280 -105 295 -241h-144c-13 72 -67 119 -151 119
c-132 0 -195 -110 -195 -252c0 -146 76 -251 196 -251c85 0 145 51 154 126h142c-4 -63 -31 -124 -79 -169c-46 -43 -109 -71 -197 -75l-42 -36v-2c53 8 106 -11 106 -64c0 -48 -53 -76 -121 -76z" />
    <glyph glyph-name="Egrave" unicode="&#xc8;" horiz-adv-x="619" 
d="M55 0v715h526v-122h-381v-160h334v-119h-334v-193h384v-121h-529zM277 753l-95 125h159l42 -125h-106z" />
    <glyph glyph-name="Eacute" unicode="&#xc9;" horiz-adv-x="619" 
d="M55 0v715h526v-122h-381v-160h334v-119h-334v-193h384v-121h-529zM472 878l-95 -125h-106l42 125h159z" />
    <glyph glyph-name="Ecircumflex" unicode="&#xca;" horiz-adv-x="619" 
d="M55 0v715h526v-122h-381v-160h334v-119h-334v-193h384v-121h-529zM157 753l94 114h146l96 -114h-118l-48 57h-2l-49 -57h-119z" />
    <glyph glyph-name="Edieresis" unicode="&#xcb;" horiz-adv-x="619" 
d="M55 0v715h526v-122h-381v-160h334v-119h-334v-193h384v-121h-529zM363 753v114h128v-114h-128zM160 753v114h128v-114h-128z" />
    <glyph glyph-name="Igrave" unicode="&#xcc;" horiz-adv-x="257" 
d="M56 0v715h145v-715h-145zM80 753l-95 125h159l42 -125h-106z" />
    <glyph glyph-name="Iacute" unicode="&#xcd;" horiz-adv-x="257" 
d="M56 0v715h145v-715h-145zM275 878l-95 -125h-106l42 125h159z" />
    <glyph glyph-name="Icircumflex" unicode="&#xce;" horiz-adv-x="257" 
d="M56 0v715h145v-715h-145zM-40 753l94 114h146l96 -114h-118l-48 57h-2l-49 -57h-119z" />
    <glyph glyph-name="Idieresis" unicode="&#xcf;" horiz-adv-x="257" 
d="M56 0v715h145v-715h-145zM166 753v114h128v-114h-128zM-37 753v114h128v-114h-128z" />
    <glyph glyph-name="Eth" unicode="&#xd0;" horiz-adv-x="682" 
d="M1 304v117h64v294h279c191 0 314 -154 314 -365c0 -116 -39 -218 -114 -281c-53 -44 -122 -69 -212 -69h-267v304h-64zM210 125h112c136 0 189 83 189 225s-62 241 -185 241h-116v-170h165v-117h-165v-179z" />
    <glyph glyph-name="Ntilde" unicode="&#xd1;" horiz-adv-x="686" 
d="M55 0v715h147l238 -399c23 -39 50 -100 50 -100h2s-4 74 -4 124v375h143v-715h-140l-244 395c-23 38 -51 99 -51 99h-2s4 -75 4 -125v-369h-143zM408 755c-48 0 -82 33 -109 33c-14 0 -24 -12 -27 -31h-72c0 78 40 118 90 118c49 0 82 -35 109 -35c19 0 25 12 29 31h72
c0 -68 -34 -116 -92 -116z" />
    <glyph glyph-name="Ograve" unicode="&#xd2;" horiz-adv-x="737" 
d="M369 -16c-211 0 -345 158 -345 372s134 373 345 373s344 -159 344 -373s-133 -372 -344 -372zM370 103c131 0 195 111 195 253c0 143 -64 254 -195 254s-198 -111 -198 -254c0 -142 67 -253 198 -253zM320 753l-95 125h159l42 -125h-106z" />
    <glyph glyph-name="Oacute" unicode="&#xd3;" horiz-adv-x="737" 
d="M369 -16c-211 0 -345 158 -345 372s134 373 345 373s344 -159 344 -373s-133 -372 -344 -372zM370 103c131 0 195 111 195 253c0 143 -64 254 -195 254s-198 -111 -198 -254c0 -142 67 -253 198 -253zM515 878l-95 -125h-106l42 125h159z" />
    <glyph glyph-name="Ocircumflex" unicode="&#xd4;" horiz-adv-x="737" 
d="M369 -16c-211 0 -345 158 -345 372s134 373 345 373s344 -159 344 -373s-133 -372 -344 -372zM370 103c131 0 195 111 195 253c0 143 -64 254 -195 254s-198 -111 -198 -254c0 -142 67 -253 198 -253zM200 753l94 114h146l96 -114h-118l-48 57h-2l-49 -57h-119z" />
    <glyph glyph-name="Otilde" unicode="&#xd5;" horiz-adv-x="737" 
d="M369 -16c-211 0 -345 158 -345 372s134 373 345 373s344 -159 344 -373s-133 -372 -344 -372zM370 103c131 0 195 111 195 253c0 143 -64 254 -195 254s-198 -111 -198 -254c0 -142 67 -253 198 -253zM426 755c-48 0 -82 33 -109 33c-14 0 -24 -12 -27 -31h-72
c0 78 40 118 90 118c49 0 82 -35 109 -35c19 0 25 12 29 31h72c0 -68 -34 -116 -92 -116z" />
    <glyph glyph-name="Odieresis" unicode="&#xd6;" horiz-adv-x="737" 
d="M369 -16c-211 0 -345 158 -345 372s134 373 345 373s344 -159 344 -373s-133 -372 -344 -372zM370 103c131 0 195 111 195 253c0 143 -64 254 -195 254s-198 -111 -198 -254c0 -142 67 -253 198 -253zM406 753v114h128v-114h-128zM203 753v114h128v-114h-128z" />
    <glyph glyph-name="multiply" unicode="&#xd7;" horiz-adv-x="568" 
d="M121 85l-70 66l166 171l-166 171l70 66l163 -168l163 168l70 -66l-166 -171l166 -171l-70 -66l-163 168z" />
    <glyph glyph-name="Oslash" unicode="&#xd8;" horiz-adv-x="737" 
d="M79 -21l-49 42l74 84c-52 65 -80 152 -80 251c0 214 134 373 345 373c89 0 165 -29 222 -78l66 74l49 -42l-71 -79c50 -65 78 -151 78 -248c0 -214 -133 -372 -344 -372c-88 0 -162 27 -219 74zM172 356c0 -54 9 -103 28 -144l304 341c-32 36 -77 57 -134 57
c-131 0 -198 -111 -198 -254zM370 103c131 0 195 111 195 253c0 52 -9 100 -26 140l-301 -339c32 -34 76 -54 132 -54z" />
    <glyph glyph-name="Ugrave" unicode="&#xd9;" horiz-adv-x="657" 
d="M331 -12c-185 0 -282 87 -282 242v485h145v-485c0 -74 37 -126 134 -126c92 0 135 54 135 128v483h145v-485c0 -153 -94 -242 -277 -242zM279 753l-95 125h159l42 -125h-106z" />
    <glyph glyph-name="Uacute" unicode="&#xda;" horiz-adv-x="657" 
d="M331 -12c-185 0 -282 87 -282 242v485h145v-485c0 -74 37 -126 134 -126c92 0 135 54 135 128v483h145v-485c0 -153 -94 -242 -277 -242zM474 878l-95 -125h-106l42 125h159z" />
    <glyph glyph-name="Ucircumflex" unicode="&#xdb;" horiz-adv-x="657" 
d="M331 -12c-185 0 -282 87 -282 242v485h145v-485c0 -74 37 -126 134 -126c92 0 135 54 135 128v483h145v-485c0 -153 -94 -242 -277 -242zM159 753l94 114h146l96 -114h-118l-48 57h-2l-49 -57h-119z" />
    <glyph glyph-name="Udieresis" unicode="&#xdc;" horiz-adv-x="657" 
d="M331 -12c-185 0 -282 87 -282 242v485h145v-485c0 -74 37 -126 134 -126c92 0 135 54 135 128v483h145v-485c0 -153 -94 -242 -277 -242zM365 753v114h128v-114h-128zM162 753v114h128v-114h-128z" />
    <glyph glyph-name="Yacute" unicode="&#xdd;" horiz-adv-x="629" 
d="M242 0v276l-238 439h158l108 -212c22 -43 47 -102 47 -102h2s27 59 48 102l106 212h152l-238 -439v-276h-145zM461 878l-95 -125h-106l42 125h159z" />
    <glyph glyph-name="Thorn" unicode="&#xde;" horiz-adv-x="633" 
d="M55 0v715h150v-109h164c83 -1 145 -24 187 -67c40 -41 64 -97 64 -163c0 -135 -89 -226 -239 -226h-176v-150h-150zM357 480h-152v-212h150c76 0 116 42 116 107c0 67 -42 105 -114 105z" />
    <glyph glyph-name="germandbls" unicode="&#xdf;" horiz-adv-x="548" 
d="M298 -9c-21 0 -44 2 -64 7v98h2c98 -12 158 29 158 138c0 88 -36 138 -128 138h-31v83h26c63 0 103 29 103 88c0 50 -29 85 -85 85c-62 0 -99 -36 -99 -106v-522h-136v524c0 124 89 205 234 205c130 0 215 -70 215 -182c0 -62 -34 -103 -92 -126v-3
c87 -26 128 -101 128 -188c0 -160 -99 -239 -231 -239z" />
    <glyph glyph-name="agrave" unicode="&#xe0;" horiz-adv-x="522" 
d="M367 0c-8 10 -13 34 -16 57h-2c-26 -39 -63 -69 -151 -69c-105 0 -179 55 -179 157c0 113 92 149 206 165c85 12 124 19 124 58c0 37 -29 61 -86 61c-64 0 -95 -23 -99 -72h-121c4 90 71 169 221 169c154 0 216 -69 216 -189v-261c0 -39 6 -62 18 -71v-5h-131zM231 83
c78 0 121 48 121 98v77c-24 -14 -61 -22 -95 -30c-71 -16 -106 -32 -106 -80s32 -65 80 -65zM217 577l-108 141h159l55 -141h-106z" />
    <glyph glyph-name="aacute" unicode="&#xe1;" horiz-adv-x="522" 
d="M367 0c-8 10 -13 34 -16 57h-2c-26 -39 -63 -69 -151 -69c-105 0 -179 55 -179 157c0 113 92 149 206 165c85 12 124 19 124 58c0 37 -29 61 -86 61c-64 0 -95 -23 -99 -72h-121c4 90 71 169 221 169c154 0 216 -69 216 -189v-261c0 -39 6 -62 18 -71v-5h-131zM231 83
c78 0 121 48 121 98v77c-24 -14 -61 -22 -95 -30c-71 -16 -106 -32 -106 -80s32 -65 80 -65zM425 718l-108 -141h-106l55 141h159z" />
    <glyph glyph-name="acircumflex" unicode="&#xe2;" horiz-adv-x="522" 
d="M367 0c-8 10 -13 34 -16 57h-2c-26 -39 -63 -69 -151 -69c-105 0 -179 55 -179 157c0 113 92 149 206 165c85 12 124 19 124 58c0 37 -29 61 -86 61c-64 0 -95 -23 -99 -72h-121c4 90 71 169 221 169c154 0 216 -69 216 -189v-261c0 -39 6 -62 18 -71v-5h-131zM231 83
c78 0 121 48 121 98v77c-24 -14 -61 -22 -95 -30c-71 -16 -106 -32 -106 -80s32 -65 80 -65zM97 581l94 126h146l96 -126h-118l-48 69h-2l-49 -69h-119z" />
    <glyph glyph-name="atilde" unicode="&#xe3;" horiz-adv-x="522" 
d="M367 0c-8 10 -13 34 -16 57h-2c-26 -39 -63 -69 -151 -69c-105 0 -179 55 -179 157c0 113 92 149 206 165c85 12 124 19 124 58c0 37 -29 61 -86 61c-64 0 -95 -23 -99 -72h-121c4 90 71 169 221 169c154 0 216 -69 216 -189v-261c0 -39 6 -62 18 -71v-5h-131zM231 83
c78 0 121 48 121 98v77c-24 -14 -61 -22 -95 -30c-71 -16 -106 -32 -106 -80s32 -65 80 -65zM323 575c-48 0 -82 33 -109 33c-14 0 -24 -12 -27 -31h-72c0 78 40 118 90 118c49 0 82 -35 109 -35c19 0 25 12 29 31h72c0 -68 -34 -116 -92 -116z" />
    <glyph glyph-name="adieresis" unicode="&#xe4;" horiz-adv-x="522" 
d="M367 0c-8 10 -13 34 -16 57h-2c-26 -39 -63 -69 -151 -69c-105 0 -179 55 -179 157c0 113 92 149 206 165c85 12 124 19 124 58c0 37 -29 61 -86 61c-64 0 -95 -23 -99 -72h-121c4 90 71 169 221 169c154 0 216 -69 216 -189v-261c0 -39 6 -62 18 -71v-5h-131zM231 83
c78 0 121 48 121 98v77c-24 -14 -61 -22 -95 -30c-71 -16 -106 -32 -106 -80s32 -65 80 -65zM313 581v114h128v-114h-128zM90 581v114h128v-114h-128z" />
    <glyph glyph-name="aring" unicode="&#xe5;" horiz-adv-x="522" 
d="M367 0c-8 10 -13 34 -16 57h-2c-26 -39 -63 -69 -151 -69c-105 0 -179 55 -179 157c0 113 92 149 206 165c85 12 124 19 124 58c0 37 -29 61 -86 61c-64 0 -95 -23 -99 -72h-121c4 90 71 169 221 169c154 0 216 -69 216 -189v-261c0 -39 6 -62 18 -71v-5h-131zM231 83
c78 0 121 48 121 98v77c-24 -14 -61 -22 -95 -30c-71 -16 -106 -32 -106 -80s32 -65 80 -65zM265 561c-53 0 -97 41 -97 94c0 52 44 94 97 94s97 -42 97 -94c0 -53 -44 -94 -97 -94zM265 608c26 0 45 21 45 47s-19 47 -45 47s-45 -21 -45 -47s19 -47 45 -47z" />
    <glyph glyph-name="ae" unicode="&#xe6;" horiz-adv-x="872" 
d="M613 -15c-90 0 -157 33 -201 87h-3c-56 -59 -105 -84 -203 -84c-111 0 -187 55 -187 157c0 113 92 149 206 165c85 12 124 19 124 58c0 37 -29 61 -86 61c-64 0 -95 -23 -99 -72h-121c4 90 71 169 221 169c84 0 140 -21 174 -59c42 38 97 60 162 60
c165 0 253 -126 253 -309h-372c10 -79 54 -128 131 -128c53 0 84 24 99 63h134c-19 -91 -100 -168 -232 -168zM602 422c-72 0 -107 -43 -119 -110h228c-4 65 -47 110 -109 110zM231 83c78 0 121 48 121 98v77c-24 -14 -61 -22 -95 -30c-71 -16 -106 -32 -106 -80
s32 -65 80 -65z" />
    <glyph glyph-name="ccedilla" unicode="&#xe7;" horiz-adv-x="528" 
d="M248 -192c-45 0 -80 12 -106 29l18 32c20 -9 46 -15 70 -15c30 0 57 10 57 31c0 19 -19 29 -41 29c-15 0 -26 -3 -37 -7l-16 22l57 58c-143 14 -231 126 -231 269c0 153 100 271 256 271c133 0 215 -77 233 -188h-133c-9 45 -44 79 -94 79c-82 0 -124 -63 -124 -162
c0 -97 39 -162 122 -162c55 0 94 29 103 87h131c-9 -103 -84 -185 -207 -195l-43 -36v-2c53 8 106 -11 106 -64c0 -48 -53 -76 -121 -76z" />
    <glyph glyph-name="egrave" unicode="&#xe8;" horiz-adv-x="544" 
d="M285 -15c-170 0 -266 119 -266 272c0 152 103 270 253 270c165 0 253 -126 253 -309h-372c10 -79 54 -128 131 -128c53 0 84 24 99 63h134c-19 -91 -100 -168 -232 -168zM274 422c-72 0 -107 -43 -119 -110h228c-4 65 -47 110 -109 110zM224 577l-108 141h159l55 -141
h-106z" />
    <glyph glyph-name="eacute" unicode="&#xe9;" horiz-adv-x="544" 
d="M285 -15c-170 0 -266 119 -266 272c0 152 103 270 253 270c165 0 253 -126 253 -309h-372c10 -79 54 -128 131 -128c53 0 84 24 99 63h134c-19 -91 -100 -168 -232 -168zM274 422c-72 0 -107 -43 -119 -110h228c-4 65 -47 110 -109 110zM432 718l-108 -141h-106l55 141
h159z" />
    <glyph glyph-name="ecircumflex" unicode="&#xea;" horiz-adv-x="544" 
d="M285 -15c-170 0 -266 119 -266 272c0 152 103 270 253 270c165 0 253 -126 253 -309h-372c10 -79 54 -128 131 -128c53 0 84 24 99 63h134c-19 -91 -100 -168 -232 -168zM274 422c-72 0 -107 -43 -119 -110h228c-4 65 -47 110 -109 110zM104 581l94 126h146l96 -126h-118
l-48 69h-2l-49 -69h-119z" />
    <glyph glyph-name="edieresis" unicode="&#xeb;" horiz-adv-x="544" 
d="M285 -15c-170 0 -266 119 -266 272c0 152 103 270 253 270c165 0 253 -126 253 -309h-372c10 -79 54 -128 131 -128c53 0 84 24 99 63h134c-19 -91 -100 -168 -232 -168zM274 422c-72 0 -107 -43 -119 -110h228c-4 65 -47 110 -109 110zM320 581v114h128v-114h-128z
M97 581v114h128v-114h-128z" />
    <glyph glyph-name="igrave" unicode="&#xec;" horiz-adv-x="224" 
d="M44 0v513h136v-513h-136zM64 577l-108 141h159l55 -141h-106z" />
    <glyph glyph-name="iacute" unicode="&#xed;" horiz-adv-x="224" 
d="M44 0v513h136v-513h-136zM272 718l-108 -141h-106l55 141h159z" />
    <glyph glyph-name="icircumflex" unicode="&#xee;" horiz-adv-x="224" 
d="M44 0v513h136v-513h-136zM-30 581l71 126h139l73 -126h-107l-32 66h-2l-34 -66h-108z" />
    <glyph glyph-name="idieresis" unicode="&#xef;" horiz-adv-x="224" 
d="M44 0v513h136v-513h-136zM130 581v114h108v-114h-108zM-13 581v114h108v-114h-108z" />
    <glyph glyph-name="eth" unicode="&#xf0;" horiz-adv-x="571" 
d="M144 592l116 36c-34 32 -72 60 -110 87h164c22 -15 44 -31 65 -50l106 33l22 -50l-84 -26c72 -82 127 -197 127 -350c0 -151 -80 -287 -263 -287c-159 0 -268 118 -268 271s93 263 238 263c51 0 95 -21 126 -56h2c-20 45 -48 85 -82 122l-138 -43zM287 89
c83 0 130 67 130 167s-47 166 -130 166c-84 0 -130 -66 -130 -166s46 -167 130 -167z" />
    <glyph glyph-name="ntilde" unicode="&#xf1;" horiz-adv-x="549" 
d="M177 513v-70h3c35 55 82 84 152 84c106 0 177 -80 177 -192v-335h-136v315c0 55 -32 94 -89 94c-60 0 -104 -48 -104 -118v-291h-136v513h133zM334 575c-48 0 -82 33 -109 33c-14 0 -24 -12 -27 -31h-72c0 78 40 118 90 118c49 0 82 -35 109 -35c19 0 25 12 29 31h72
c0 -68 -34 -116 -92 -116z" />
    <glyph glyph-name="ograve" unicode="&#xf2;" horiz-adv-x="574" 
d="M287 -15c-159 0 -268 118 -268 271s109 271 268 271s268 -118 268 -271s-109 -271 -268 -271zM287 89c83 0 130 67 130 167s-47 168 -130 168c-84 0 -130 -68 -130 -168s46 -167 130 -167zM239 577l-108 141h159l55 -141h-106z" />
    <glyph glyph-name="oacute" unicode="&#xf3;" horiz-adv-x="574" 
d="M287 -15c-159 0 -268 118 -268 271s109 271 268 271s268 -118 268 -271s-109 -271 -268 -271zM287 89c83 0 130 67 130 167s-47 168 -130 168c-84 0 -130 -68 -130 -168s46 -167 130 -167zM447 718l-108 -141h-106l55 141h159z" />
    <glyph glyph-name="ocircumflex" unicode="&#xf4;" horiz-adv-x="574" 
d="M287 -15c-159 0 -268 118 -268 271s109 271 268 271s268 -118 268 -271s-109 -271 -268 -271zM287 89c83 0 130 67 130 167s-47 168 -130 168c-84 0 -130 -68 -130 -168s46 -167 130 -167zM119 581l94 126h146l96 -126h-118l-48 69h-2l-49 -69h-119z" />
    <glyph glyph-name="otilde" unicode="&#xf5;" horiz-adv-x="574" 
d="M287 -15c-159 0 -268 118 -268 271s109 271 268 271s268 -118 268 -271s-109 -271 -268 -271zM287 89c83 0 130 67 130 167s-47 168 -130 168c-84 0 -130 -68 -130 -168s46 -167 130 -167zM345 575c-48 0 -82 33 -109 33c-14 0 -24 -12 -27 -31h-72c0 78 40 118 90 118
c49 0 82 -35 109 -35c19 0 25 12 29 31h72c0 -68 -34 -116 -92 -116z" />
    <glyph glyph-name="odieresis" unicode="&#xf6;" horiz-adv-x="574" 
d="M287 -15c-159 0 -268 118 -268 271s109 271 268 271s268 -118 268 -271s-109 -271 -268 -271zM287 89c83 0 130 67 130 167s-47 168 -130 168c-84 0 -130 -68 -130 -168s46 -167 130 -167zM335 581v114h128v-114h-128zM112 581v114h128v-114h-128z" />
    <glyph glyph-name="divide" unicode="&#xf7;" horiz-adv-x="569" 
d="M211 74v133h146v-133h-146zM211 450v132h146v-132h-146zM35 278v100h499v-100h-499z" />
    <glyph glyph-name="oslash" unicode="&#xf8;" horiz-adv-x="574" 
d="M63 -36l-40 37l63 70c-43 48 -67 112 -67 185c0 153 109 271 268 271c64 0 120 -20 164 -53l61 67l39 -37l-60 -67c40 -47 64 -111 64 -181c0 -153 -109 -271 -268 -271c-62 0 -117 18 -160 49zM157 256c0 -34 5 -65 15 -90l202 222c-22 23 -51 36 -87 36
c-84 0 -130 -68 -130 -168zM287 89c83 0 130 67 130 167c0 32 -5 60 -14 84l-199 -220c21 -20 49 -31 83 -31z" />
    <glyph glyph-name="ugrave" unicode="&#xf9;" horiz-adv-x="543" 
d="M499 0h-131v60h-3c-35 -47 -75 -74 -147 -74c-114 0 -178 73 -178 185v342h135v-319c0 -60 27 -93 85 -93c64 0 103 48 103 116v296h136v-513zM223 577l-108 141h159l55 -141h-106z" />
    <glyph glyph-name="uacute" unicode="&#xfa;" horiz-adv-x="543" 
d="M499 0h-131v60h-3c-35 -47 -75 -74 -147 -74c-114 0 -178 73 -178 185v342h135v-319c0 -60 27 -93 85 -93c64 0 103 48 103 116v296h136v-513zM431 718l-108 -141h-106l55 141h159z" />
    <glyph glyph-name="ucircumflex" unicode="&#xfb;" horiz-adv-x="543" 
d="M499 0h-131v60h-3c-35 -47 -75 -74 -147 -74c-114 0 -178 73 -178 185v342h135v-319c0 -60 27 -93 85 -93c64 0 103 48 103 116v296h136v-513zM103 581l94 126h146l96 -126h-118l-48 69h-2l-49 -69h-119z" />
    <glyph glyph-name="udieresis" unicode="&#xfc;" horiz-adv-x="543" 
d="M499 0h-131v60h-3c-35 -47 -75 -74 -147 -74c-114 0 -178 73 -178 185v342h135v-319c0 -60 27 -93 85 -93c64 0 103 48 103 116v296h136v-513zM319 581v114h128v-114h-128zM96 581v114h128v-114h-128z" />
    <glyph glyph-name="yacute" unicode="&#xfd;" horiz-adv-x="497" 
d="M55 -168v107h48c54 0 76 28 76 70c0 28 -10 61 -39 139l-138 365h143l76 -231c16 -47 33 -112 33 -112h2s14 65 30 112l72 231h137l-179 -526c-39 -114 -77 -155 -181 -155h-80zM408 718l-108 -141h-106l55 141h159z" />
    <glyph glyph-name="thorn" unicode="&#xfe;" horiz-adv-x="571" 
d="M330 -15c-72 0 -119 26 -148 73h-2v-226h-136v884h136v-265h3c28 43 76 76 146 76c136 0 223 -111 223 -271c0 -166 -90 -271 -222 -271zM301 98c69 0 113 57 113 154s-34 165 -118 165c-85 0 -119 -73 -119 -165c0 -93 43 -154 124 -154z" />
    <glyph glyph-name="ydieresis" unicode="&#xff;" horiz-adv-x="497" 
d="M55 -168v107h48c54 0 76 28 76 70c0 28 -10 61 -39 139l-138 365h143l76 -231c16 -47 33 -112 33 -112h2s14 65 30 112l72 231h137l-179 -526c-39 -114 -77 -155 -181 -155h-80zM296 581v114h128v-114h-128zM73 581v114h128v-114h-128z" />
    <glyph glyph-name="Amacron" unicode="&#x100;" horiz-adv-x="659" 
d="M3 0l249 715h150l252 -715h-151l-48 152h-258l-47 -152h-147zM295 469l-64 -206h189l-64 206c-12 38 -29 110 -29 110h-2s-18 -72 -30 -110zM185 762v97h284v-97h-284z" />
    <glyph glyph-name="amacron" unicode="&#x101;" horiz-adv-x="522" 
d="M367 0c-8 10 -13 34 -16 57h-2c-26 -39 -63 -69 -151 -69c-105 0 -179 55 -179 157c0 113 92 149 206 165c85 12 124 19 124 58c0 37 -29 61 -86 61c-64 0 -95 -23 -99 -72h-121c4 90 71 169 221 169c154 0 216 -69 216 -189v-261c0 -39 6 -62 18 -71v-5h-131zM231 83
c78 0 121 48 121 98v77c-24 -14 -61 -22 -95 -30c-71 -16 -106 -32 -106 -80s32 -65 80 -65zM123 592v97h284v-97h-284z" />
    <glyph glyph-name="Abreve" unicode="&#x102;" horiz-adv-x="659" 
d="M3 0l249 715h150l252 -715h-151l-48 152h-258l-47 -152h-147zM295 469l-64 -206h189l-64 206c-12 38 -29 110 -29 110h-2s-18 -72 -30 -110zM328 749c-84 0 -143 57 -148 133h78c4 -29 28 -48 69 -48c40 0 65 21 69 48h78c-6 -74 -59 -133 -146 -133z" />
    <glyph glyph-name="abreve" unicode="&#x103;" horiz-adv-x="522" 
d="M367 0c-8 10 -13 34 -16 57h-2c-26 -39 -63 -69 -151 -69c-105 0 -179 55 -179 157c0 113 92 149 206 165c85 12 124 19 124 58c0 37 -29 61 -86 61c-64 0 -95 -23 -99 -72h-121c4 90 71 169 221 169c154 0 216 -69 216 -189v-261c0 -39 6 -62 18 -71v-5h-131zM231 83
c78 0 121 48 121 98v77c-24 -14 -61 -22 -95 -30c-71 -16 -106 -32 -106 -80s32 -65 80 -65zM266 573c-84 0 -143 57 -148 133h78c4 -29 28 -48 69 -48c40 0 65 21 69 48h78c-6 -74 -59 -133 -146 -133z" />
    <glyph glyph-name="Aogonek" unicode="&#x104;" horiz-adv-x="659" 
d="M600 -174c-76 0 -112 29 -112 85c0 40 26 70 55 89h-40l-48 152h-258l-47 -152h-147l249 715h150l250 -709c-43 -27 -61 -50 -61 -73c0 -18 12 -28 31 -28c13 0 23 3 32 7h2v-77c-12 -5 -29 -9 -56 -9zM295 469l-64 -206h189l-64 206c-12 38 -29 110 -29 110h-2
s-18 -72 -30 -110z" />
    <glyph glyph-name="aogonek" unicode="&#x105;" horiz-adv-x="522" 
d="M367 0c-8 10 -13 34 -16 57h-2c-26 -39 -63 -69 -151 -69c-105 0 -179 55 -179 157c0 113 92 149 206 165c85 12 124 19 124 58c0 37 -29 61 -86 61c-64 0 -95 -23 -99 -72h-121c4 90 71 169 221 169c154 0 216 -69 216 -189v-261c0 -39 6 -60 15 -71v-5
c-33 -23 -53 -44 -53 -67c0 -18 12 -28 31 -28c13 0 23 3 32 7h2v-77c-12 -5 -29 -9 -56 -9c-76 0 -112 29 -112 81c0 45 35 77 64 93h-36zM231 83c78 0 121 48 121 98v77c-24 -14 -61 -22 -95 -30c-71 -16 -106 -32 -106 -80s32 -65 80 -65z" />
    <glyph glyph-name="Cacute" unicode="&#x106;" horiz-adv-x="684" 
d="M368 -15c-201 0 -344 155 -344 370c0 212 132 374 343 374c176 0 280 -105 295 -241h-144c-13 72 -67 119 -151 119c-132 0 -195 -110 -195 -252c0 -146 76 -251 196 -251c85 0 145 51 154 126h142c-4 -63 -31 -124 -79 -169c-49 -46 -118 -76 -217 -76zM503 878
l-95 -125h-106l42 125h159z" />
    <glyph glyph-name="cacute" unicode="&#x107;" horiz-adv-x="528" 
d="M282 -15c-162 0 -263 118 -263 271s100 271 256 271c133 0 215 -77 233 -188h-133c-9 45 -44 79 -94 79c-82 0 -124 -63 -124 -162c0 -97 39 -162 122 -162c55 0 94 29 103 87h131c-9 -109 -94 -196 -231 -196zM433 718l-108 -141h-106l55 141h159z" />
    <glyph glyph-name="Ccircumflex" unicode="&#x108;" horiz-adv-x="684" 
d="M368 -15c-201 0 -344 155 -344 370c0 212 132 374 343 374c176 0 280 -105 295 -241h-144c-13 72 -67 119 -151 119c-132 0 -195 -110 -195 -252c0 -146 76 -251 196 -251c85 0 145 51 154 126h142c-4 -63 -31 -124 -79 -169c-49 -46 -118 -76 -217 -76zM188 753l94 114
h146l96 -114h-118l-48 57h-2l-49 -57h-119z" />
    <glyph glyph-name="ccircumflex" unicode="&#x109;" horiz-adv-x="528" 
d="M282 -15c-162 0 -263 118 -263 271s100 271 256 271c133 0 215 -77 233 -188h-133c-9 45 -44 79 -94 79c-82 0 -124 -63 -124 -162c0 -97 39 -162 122 -162c55 0 94 29 103 87h131c-9 -109 -94 -196 -231 -196zM105 581l94 126h146l96 -126h-118l-48 69h-2l-49 -69h-119z
" />
    <glyph glyph-name="Cdotaccent" unicode="&#x10a;" horiz-adv-x="684" 
d="M368 -15c-201 0 -344 155 -344 370c0 212 132 374 343 374c176 0 280 -105 295 -241h-144c-13 72 -67 119 -151 119c-132 0 -195 -110 -195 -252c0 -146 76 -251 196 -251c85 0 145 51 154 126h142c-4 -63 -31 -124 -79 -169c-49 -46 -118 -76 -217 -76zM288 753v118h136
v-118h-136z" />
    <glyph glyph-name="cdotaccent" unicode="&#x10b;" horiz-adv-x="528" 
d="M282 -15c-162 0 -263 118 -263 271s100 271 256 271c133 0 215 -77 233 -188h-133c-9 45 -44 79 -94 79c-82 0 -124 -63 -124 -162c0 -97 39 -162 122 -162c55 0 94 29 103 87h131c-9 -109 -94 -196 -231 -196zM205 593v122h136v-122h-136z" />
    <glyph glyph-name="Ccaron" unicode="&#x10c;" horiz-adv-x="684" 
d="M368 -15c-201 0 -344 155 -344 370c0 212 132 374 343 374c176 0 280 -105 295 -241h-144c-13 72 -67 119 -151 119c-132 0 -195 -110 -195 -252c0 -146 76 -251 196 -251c85 0 145 51 154 126h142c-4 -63 -31 -124 -79 -169c-49 -46 -118 -76 -217 -76zM524 867
l-94 -114h-146l-96 114h118l48 -57h2l49 57h119z" />
    <glyph glyph-name="ccaron" unicode="&#x10d;" horiz-adv-x="528" 
d="M282 -15c-162 0 -263 118 -263 271s100 271 256 271c133 0 215 -77 233 -188h-133c-9 45 -44 79 -94 79c-82 0 -124 -63 -124 -162c0 -97 39 -162 122 -162c55 0 94 29 103 87h131c-9 -109 -94 -196 -231 -196zM201 576l-96 126h118l48 -69h2l49 69h119l-94 -126h-146z
" />
    <glyph glyph-name="Dcaron" unicode="&#x10e;" horiz-adv-x="672" 
d="M55 0v715h279c191 0 314 -154 314 -365c0 -116 -39 -218 -114 -281c-53 -44 -122 -69 -212 -69h-267zM200 125h112c136 0 189 83 189 225s-62 241 -185 241h-116v-466zM473 867l-94 -114h-146l-96 114h118l48 -57h2l49 57h119z" />
    <glyph glyph-name="dcaron" unicode="&#x10f;" horiz-adv-x="566" 
d="M236 -15c-129 0 -217 105 -217 271c0 160 91 271 219 271c72 0 117 -33 145 -76h3v264h136v-715h-131v67h-2c-30 -49 -81 -82 -153 -82zM266 99c81 0 123 60 123 154c0 98 -32 164 -119 164c-75 0 -113 -66 -113 -161c0 -99 39 -157 109 -157zM565 522v44
c34 4 62 14 62 48h-60v101h124v-85c0 -76 -61 -106 -126 -108z" />
    <glyph glyph-name="Dcroat" unicode="&#x110;" horiz-adv-x="682" 
d="M1 304v117h64v294h279c191 0 314 -154 314 -365c0 -116 -39 -218 -114 -281c-53 -44 -122 -69 -212 -69h-267v304h-64zM210 125h112c136 0 189 83 189 225s-62 241 -185 241h-116v-170h165v-117h-165v-179z" />
    <glyph glyph-name="dcroat" unicode="&#x111;" horiz-adv-x="566" 
d="M236 -15c-129 0 -217 105 -217 271c0 160 91 271 219 271c72 0 117 -33 145 -76h3v118h-132v80h132v66h136v-66h53v-80h-53v-569h-131v67h-2c-30 -49 -81 -82 -153 -82zM266 99c81 0 123 60 123 154c0 98 -32 164 -119 164c-75 0 -113 -66 -113 -161
c0 -99 39 -157 109 -157z" />
    <glyph glyph-name="Emacron" unicode="&#x112;" horiz-adv-x="619" 
d="M55 0v715h526v-122h-381v-160h334v-119h-334v-193h384v-121h-529zM183 762v97h284v-97h-284z" />
    <glyph glyph-name="emacron" unicode="&#x113;" horiz-adv-x="544" 
d="M285 -15c-170 0 -266 119 -266 272c0 152 103 270 253 270c165 0 253 -126 253 -309h-372c10 -79 54 -128 131 -128c53 0 84 24 99 63h134c-19 -91 -100 -168 -232 -168zM274 422c-72 0 -107 -43 -119 -110h228c-4 65 -47 110 -109 110zM130 592v97h284v-97h-284z" />
    <glyph glyph-name="Ebreve" unicode="&#x114;" horiz-adv-x="619" 
d="M55 0v715h526v-122h-381v-160h334v-119h-334v-193h384v-121h-529zM326 749c-84 0 -143 57 -148 133h78c4 -29 28 -48 69 -48c40 0 65 21 69 48h78c-6 -74 -59 -133 -146 -133z" />
    <glyph glyph-name="ebreve" unicode="&#x115;" horiz-adv-x="544" 
d="M285 -15c-170 0 -266 119 -266 272c0 152 103 270 253 270c165 0 253 -126 253 -309h-372c10 -79 54 -128 131 -128c53 0 84 24 99 63h134c-19 -91 -100 -168 -232 -168zM274 422c-72 0 -107 -43 -119 -110h228c-4 65 -47 110 -109 110zM273 573c-84 0 -143 57 -148 133
h78c4 -29 28 -48 69 -48c40 0 65 21 69 48h78c-6 -74 -59 -133 -146 -133z" />
    <glyph glyph-name="Edotaccent" unicode="&#x116;" horiz-adv-x="619" 
d="M55 0v715h526v-122h-381v-160h334v-119h-334v-193h384v-121h-529zM257 753v118h136v-118h-136z" />
    <glyph glyph-name="edotaccent" unicode="&#x117;" horiz-adv-x="544" 
d="M285 -15c-170 0 -266 119 -266 272c0 152 103 270 253 270c165 0 253 -126 253 -309h-372c10 -79 54 -128 131 -128c53 0 84 24 99 63h134c-19 -91 -100 -168 -232 -168zM274 422c-72 0 -107 -43 -119 -110h228c-4 65 -47 110 -109 110zM204 593v122h136v-122h-136z" />
    <glyph glyph-name="Eogonek" unicode="&#x118;" horiz-adv-x="619" 
d="M55 0v715h526v-122h-381v-160h334v-119h-334v-193h384v-121h-45c-29 -25 -47 -44 -47 -67c0 -18 12 -28 31 -28c13 0 23 3 32 7h2v-77c-12 -5 -29 -9 -56 -9c-76 0 -112 29 -112 85c0 40 26 70 55 89h-389z" />
    <glyph glyph-name="eogonek" unicode="&#x119;" horiz-adv-x="544" 
d="M361 -174c-75 0 -111 29 -111 81c0 34 23 61 51 79c-6 -1 -10 -1 -16 -1c-170 0 -266 119 -266 272c0 152 103 270 253 270c165 0 253 -126 253 -309h-372c10 -79 54 -128 131 -128c53 0 84 24 99 63h134c-14 -67 -54 -105 -106 -150c-38 -33 -58 -47 -58 -70
c0 -18 12 -28 31 -28c13 0 23 3 32 7h2v-77c-12 -5 -29 -9 -57 -9zM274 422c-72 0 -107 -43 -119 -110h228c-4 65 -47 110 -109 110z" />
    <glyph glyph-name="Ecaron" unicode="&#x11a;" horiz-adv-x="619" 
d="M55 0v715h526v-122h-381v-160h334v-119h-334v-193h384v-121h-529zM493 867l-94 -114h-146l-96 114h118l48 -57h2l49 57h119z" />
    <glyph glyph-name="ecaron" unicode="&#x11b;" horiz-adv-x="544" 
d="M285 -15c-170 0 -266 119 -266 272c0 152 103 270 253 270c165 0 253 -126 253 -309h-372c10 -79 54 -128 131 -128c53 0 84 24 99 63h134c-19 -91 -100 -168 -232 -168zM274 422c-72 0 -107 -43 -119 -110h228c-4 65 -47 110 -109 110zM200 576l-96 126h118l48 -69h2
l49 69h119l-94 -126h-146z" />
    <glyph glyph-name="Gcircumflex" unicode="&#x11c;" horiz-adv-x="734" 
d="M579 0l-5 96h-2c-49 -82 -116 -111 -201 -111c-108 0 -192 39 -251 104c-59 66 -93 158 -93 266c0 119 42 223 117 292c58 53 134 82 230 82c180 0 283 -99 306 -239h-142c-16 69 -69 119 -161 119c-135 0 -202 -112 -202 -254c0 -146 77 -253 200 -253
c111 0 184 83 184 162v4h-172v112h301v-380h-109zM195 753l94 114h146l96 -114h-118l-48 57h-2l-49 -57h-119z" />
    <glyph glyph-name="gcircumflex" unicode="&#x11d;" horiz-adv-x="560" 
d="M270 -175c-140 0 -226 60 -240 160h135c11 -32 40 -57 103 -57c77 0 114 37 114 107v56h-3c-30 -34 -69 -60 -134 -60c-114 0 -226 90 -226 245c0 153 92 251 222 251c64 0 111 -25 142 -68h2v54h131v-474c0 -72 -23 -121 -61 -156c-43 -40 -109 -58 -185 -58zM268 140
c86 0 121 63 121 139c0 75 -40 139 -122 139c-69 0 -115 -54 -115 -140c0 -87 46 -138 116 -138zM109 581l94 126h146l96 -126h-118l-48 69h-2l-49 -69h-119z" />
    <glyph glyph-name="Gbreve" unicode="&#x11e;" horiz-adv-x="734" 
d="M579 0l-5 96h-2c-49 -82 -116 -111 -201 -111c-108 0 -192 39 -251 104c-59 66 -93 158 -93 266c0 119 42 223 117 292c58 53 134 82 230 82c180 0 283 -99 306 -239h-142c-16 69 -69 119 -161 119c-135 0 -202 -112 -202 -254c0 -146 77 -253 200 -253
c111 0 184 83 184 162v4h-172v112h301v-380h-109zM364 749c-84 0 -143 57 -148 133h78c4 -29 28 -48 69 -48c40 0 65 21 69 48h78c-6 -74 -59 -133 -146 -133z" />
    <glyph glyph-name="gbreve" unicode="&#x11f;" horiz-adv-x="560" 
d="M270 -175c-140 0 -226 60 -240 160h135c11 -32 40 -57 103 -57c77 0 114 37 114 107v56h-3c-30 -34 -69 -60 -134 -60c-114 0 -226 90 -226 245c0 153 92 251 222 251c64 0 111 -25 142 -68h2v54h131v-474c0 -72 -23 -121 -61 -156c-43 -40 -109 -58 -185 -58zM268 140
c86 0 121 63 121 139c0 75 -40 139 -122 139c-69 0 -115 -54 -115 -140c0 -87 46 -138 116 -138zM278 573c-84 0 -143 57 -148 133h78c4 -29 28 -48 69 -48c40 0 65 21 69 48h78c-6 -74 -59 -133 -146 -133z" />
    <glyph glyph-name="Gdotaccent" unicode="&#x120;" horiz-adv-x="734" 
d="M579 0l-5 96h-2c-49 -82 -116 -111 -201 -111c-108 0 -192 39 -251 104c-59 66 -93 158 -93 266c0 119 42 223 117 292c58 53 134 82 230 82c180 0 283 -99 306 -239h-142c-16 69 -69 119 -161 119c-135 0 -202 -112 -202 -254c0 -146 77 -253 200 -253
c111 0 184 83 184 162v4h-172v112h301v-380h-109zM295 753v118h136v-118h-136z" />
    <glyph glyph-name="gdotaccent" unicode="&#x121;" horiz-adv-x="560" 
d="M270 -175c-140 0 -226 60 -240 160h135c11 -32 40 -57 103 -57c77 0 114 37 114 107v56h-3c-30 -34 -69 -60 -134 -60c-114 0 -226 90 -226 245c0 153 92 251 222 251c64 0 111 -25 142 -68h2v54h131v-474c0 -72 -23 -121 -61 -156c-43 -40 -109 -58 -185 -58zM268 140
c86 0 121 63 121 139c0 75 -40 139 -122 139c-69 0 -115 -54 -115 -140c0 -87 46 -138 116 -138zM209 593v122h136v-122h-136z" />
    <glyph glyph-name="Gcommaaccent" unicode="&#x122;" horiz-adv-x="734" 
d="M579 0l-5 96h-2c-49 -82 -116 -111 -201 -111c-108 0 -192 39 -251 104c-59 66 -93 158 -93 266c0 119 42 223 117 292c58 53 134 82 230 82c180 0 283 -99 306 -239h-142c-16 69 -69 119 -161 119c-135 0 -202 -112 -202 -254c0 -146 77 -253 200 -253
c111 0 184 83 184 162v4h-172v112h301v-380h-109zM300 -263v44c29 7 62 24 62 64h-60v107h124v-97c0 -77 -61 -111 -126 -118z" />
    <glyph glyph-name="gcommaaccent" unicode="&#x123;" horiz-adv-x="560" 
d="M270 -175c-140 0 -226 60 -240 160h135c11 -32 40 -57 103 -57c77 0 114 37 114 107v56h-3c-30 -34 -69 -60 -134 -60c-114 0 -226 90 -226 245c0 153 92 251 222 251c64 0 111 -25 142 -68h2v54h131v-474c0 -72 -23 -121 -61 -156c-43 -40 -109 -58 -185 -58zM268 140
c86 0 121 63 121 139c0 75 -40 139 -122 139c-69 0 -115 -54 -115 -140c0 -87 46 -138 116 -138zM340 816v-44c-29 -7 -62 -24 -62 -64h60v-107h-124v97c0 77 61 111 126 118z" />
    <glyph glyph-name="Hcircumflex" unicode="&#x124;" horiz-adv-x="681" 
d="M55 0v715h145v-280h281v280h145v-715h-145v315h-281v-315h-145zM172 753l94 114h146l96 -114h-118l-48 57h-2l-49 -57h-119z" />
    <glyph glyph-name="hcircumflex" unicode="&#x125;" horiz-adv-x="549" 
d="M180 715v-269h3c37 54 79 81 149 81c106 0 177 -80 177 -192v-335h-136v315c0 55 -32 94 -89 94c-60 0 -104 -48 -104 -118v-291h-136v715h136zM108 753l94 114h146l96 -114h-118l-48 57h-2l-49 -57h-119z" />
    <glyph glyph-name="Hbar" unicode="&#x126;" horiz-adv-x="681" 
d="M-3 508v87h58v120h145v-120h281v120h145v-120h58v-87h-58v-508h-145v315h-281v-315h-145v508h-58zM481 435v73h-281v-73h281z" />
    <glyph glyph-name="hbar" unicode="&#x127;" horiz-adv-x="549" 
d="M180 715v-66h132v-80h-132v-123h3c37 54 79 81 149 81c106 0 177 -80 177 -192v-335h-136v315c0 55 -32 94 -89 94c-60 0 -104 -48 -104 -118v-291h-136v569h-53v80h53v66h136z" />
    <glyph glyph-name="Itilde" unicode="&#x128;" horiz-adv-x="257" 
d="M56 0v715h145v-715h-145zM186 755c-48 0 -82 33 -109 33c-14 0 -24 -12 -27 -31h-72c0 78 40 118 90 118c49 0 82 -35 109 -35c19 0 25 12 29 31h72c0 -68 -34 -116 -92 -116z" />
    <glyph glyph-name="itilde" unicode="&#x129;" horiz-adv-x="224" 
d="M44 0v513h136v-513h-136zM166 575c-43 0 -78 31 -95 31c-15 0 -23 -11 -25 -29h-69c0 78 34 118 79 118c44 0 78 -33 97 -33c17 0 22 11 25 29h69c0 -68 -29 -116 -81 -116z" />
    <glyph glyph-name="Imacron" unicode="&#x12a;" horiz-adv-x="257" 
d="M56 0v715h145v-715h-145zM-14 762v97h284v-97h-284z" />
    <glyph glyph-name="imacron" unicode="&#x12b;" horiz-adv-x="224" 
d="M44 0v513h136v-513h-136zM-10 592v97h244v-97h-244z" />
    <glyph glyph-name="Ibreve" unicode="&#x12c;" horiz-adv-x="257" 
d="M56 0v715h145v-715h-145zM129 749c-84 0 -143 57 -148 133h78c4 -29 28 -48 69 -48c40 0 65 21 69 48h78c-6 -74 -59 -133 -146 -133z" />
    <glyph glyph-name="ibreve" unicode="&#x12d;" horiz-adv-x="224" 
d="M44 0v513h136v-513h-136zM113 573c-84 0 -143 57 -148 133h78c4 -29 28 -48 69 -48c40 0 65 21 69 48h78c-6 -74 -59 -133 -146 -133z" />
    <glyph glyph-name="Iogonek" unicode="&#x12e;" horiz-adv-x="257" 
d="M56 0v715h145v-710c-39 -26 -58 -49 -58 -72c0 -18 12 -28 31 -28c13 0 23 3 32 7h2v-77c-12 -5 -29 -9 -56 -9c-76 0 -112 29 -112 85c0 40 26 70 55 89h-39z" />
    <glyph glyph-name="iogonek" unicode="&#x12f;" horiz-adv-x="224" 
d="M44 0v513h136v-508c-39 -27 -55 -49 -55 -72c0 -18 12 -28 29 -28c13 0 23 3 32 7h2v-77c-12 -5 -29 -9 -57 -9c-73 0 -109 29 -109 81c0 45 35 77 62 93h-40zM44 593v122h136v-122h-136z" />
    <glyph glyph-name="Idotaccent" unicode="&#x130;" horiz-adv-x="257" 
d="M56 0v715h145v-715h-145zM60 753v118h136v-118h-136z" />
    <glyph glyph-name="dotlessi" unicode="&#x131;" horiz-adv-x="224" 
d="M44 0v513h136v-513h-136z" />
    <glyph glyph-name="IJ" unicode="&#x132;" horiz-adv-x="773" 
d="M56 0v715h145v-715h-145zM508 -13c-148 0 -234 68 -234 208v71h130v-62c0 -72 33 -100 92 -100s86 35 86 98v513h145v-514c0 -122 -71 -214 -219 -214z" />
    <glyph glyph-name="ij" unicode="&#x133;" horiz-adv-x="448" 
d="M44 0v513h136v-513h-136zM44 593v122h136v-122h-136zM260 -169c-25 0 -56 2 -77 6v97c55 1 85 6 85 53v526h136v-533c0 -60 -12 -90 -34 -112c-26 -27 -66 -37 -110 -37zM268 593v122h136v-122h-136z" />
    <glyph glyph-name="Jcircumflex" unicode="&#x134;" horiz-adv-x="516" 
d="M251 -13c-148 0 -234 68 -234 208v71h130v-62c0 -72 33 -100 92 -100s86 35 86 98v513h145v-514c0 -122 -71 -214 -219 -214zM227 753l94 114h146l96 -114h-118l-48 57h-2l-49 -57h-119z" />
    <glyph glyph-name="jcircumflex" unicode="&#x135;" horiz-adv-x="224" 
d="M36 -169c-25 0 -56 2 -77 6v97c55 1 85 6 85 53v526h136v-533c0 -60 -12 -90 -34 -112c-26 -27 -66 -37 -110 -37zM-30 581l71 126h139l73 -126h-107l-32 66h-2l-34 -66h-108z" />
    <glyph glyph-name="Kcommaaccent" unicode="&#x136;" horiz-adv-x="674" 
d="M55 0v715h145v-285l275 285h180l-280 -286l298 -429h-170l-230 334l-73 -74v-260h-145zM269 -263v44c29 7 62 24 62 64h-60v107h124v-97c0 -77 -61 -111 -126 -118z" />
    <glyph glyph-name="kcommaaccent" unicode="&#x137;" horiz-adv-x="546" 
d="M382 0l-144 234l-59 -61v-173h-135v715h135v-396l182 194h163l-189 -195l212 -318h-165zM232 -263v44c29 7 62 24 62 64h-60v107h124v-97c0 -77 -61 -111 -126 -118z" />
    <glyph glyph-name="kgreenlandic" unicode="&#x138;" horiz-adv-x="546" 
d="M382 0l-144 234l-59 -61v-173h-135v513h135v-194l182 194h163l-189 -195l212 -318h-165z" />
    <glyph glyph-name="Lacute" unicode="&#x139;" horiz-adv-x="559" 
d="M55 0v715h145v-594h336v-121h-481zM274 878l-95 -125h-106l42 125h159z" />
    <glyph glyph-name="lacute" unicode="&#x13a;" horiz-adv-x="228" 
d="M46 0v715h136v-715h-136zM261 878l-95 -125h-106l42 125h159z" />
    <glyph glyph-name="Lcommaaccent" unicode="&#x13b;" horiz-adv-x="559" 
d="M55 0v715h145v-594h336v-121h-481zM233 -263v44c29 7 62 24 62 64h-60v107h124v-97c0 -77 -61 -111 -126 -118z" />
    <glyph glyph-name="lcommaaccent" unicode="&#x13c;" horiz-adv-x="228" 
d="M46 0v715h136v-715h-136zM51 -263v44c29 7 62 24 62 64h-60v107h124v-97c0 -77 -61 -111 -126 -118z" />
    <glyph glyph-name="Lcaron" unicode="&#x13d;" horiz-adv-x="559" 
d="M55 0v715h145v-594h336v-121h-481zM314 522v44c34 4 62 14 62 48h-60v101h124v-85c0 -76 -61 -106 -126 -108z" />
    <glyph glyph-name="lcaron" unicode="&#x13e;" horiz-adv-x="228" 
d="M46 0v715h136v-715h-136zM225 522v44c34 4 62 14 62 48h-60v101h124v-85c0 -76 -61 -106 -126 -108z" />
    <glyph glyph-name="Ldot" unicode="&#x13f;" horiz-adv-x="559" 
d="M55 0v715h145v-594h336v-121h-481zM360 263v145h146v-145h-146z" />
    <glyph glyph-name="ldot" unicode="&#x140;" horiz-adv-x="392" 
d="M46 0v715h136v-715h-136zM237 263v145h146v-145h-146z" />
    <glyph glyph-name="Lslash" unicode="&#x141;" horiz-adv-x="564" 
d="M-4 191v97l64 32v395h145v-321l200 103v-97l-200 -103v-176h336v-121h-481v223z" />
    <glyph glyph-name="lslash" unicode="&#x142;" horiz-adv-x="260" 
d="M3 213v97l58 44v361h136v-258l66 51v-97l-66 -51v-360h-136v257z" />
    <glyph glyph-name="Nacute" unicode="&#x143;" horiz-adv-x="686" 
d="M55 0v715h147l238 -399c23 -39 50 -100 50 -100h2s-4 74 -4 124v375h143v-715h-140l-244 395c-23 38 -51 99 -51 99h-2s4 -75 4 -125v-369h-143zM497 878l-95 -125h-106l42 125h159z" />
    <glyph glyph-name="nacute" unicode="&#x144;" horiz-adv-x="549" 
d="M177 513v-70h3c35 55 82 84 152 84c106 0 177 -80 177 -192v-335h-136v315c0 55 -32 94 -89 94c-60 0 -104 -48 -104 -118v-291h-136v513h133zM436 718l-108 -141h-106l55 141h159z" />
    <glyph glyph-name="Ncommaaccent" unicode="&#x145;" horiz-adv-x="686" 
d="M55 0v715h147l238 -399c23 -39 50 -100 50 -100h2s-4 74 -4 124v375h143v-715h-140l-244 395c-23 38 -51 99 -51 99h-2s4 -75 4 -125v-369h-143zM278 -261v44c29 7 62 24 62 64h-60v107h124v-97c0 -77 -61 -111 -126 -118z" />
    <glyph glyph-name="ncommaaccent" unicode="&#x146;" horiz-adv-x="549" 
d="M177 513v-70h3c35 55 82 84 152 84c106 0 177 -80 177 -192v-335h-136v315c0 55 -32 94 -89 94c-60 0 -104 -48 -104 -118v-291h-136v513h133zM213 -263v44c29 7 62 24 62 64h-60v107h124v-97c0 -77 -61 -111 -126 -118z" />
    <glyph glyph-name="Ncaron" unicode="&#x147;" horiz-adv-x="686" 
d="M55 0v715h147l238 -399c23 -39 50 -100 50 -100h2s-4 74 -4 124v375h143v-715h-140l-244 395c-23 38 -51 99 -51 99h-2s4 -75 4 -125v-369h-143zM518 867l-94 -114h-146l-96 114h118l48 -57h2l49 57h119z" />
    <glyph glyph-name="ncaron" unicode="&#x148;" horiz-adv-x="549" 
d="M177 513v-70h3c35 55 82 84 152 84c106 0 177 -80 177 -192v-335h-136v315c0 55 -32 94 -89 94c-60 0 -104 -48 -104 -118v-291h-136v513h133zM204 576l-96 126h118l48 -69h2l49 69h119l-94 -126h-146z" />
    <glyph glyph-name="napostrophe" unicode="&#x149;" horiz-adv-x="549" 
d="M177 513v-70h3c35 55 82 84 152 84c106 0 177 -80 177 -192v-335h-136v315c0 55 -32 94 -89 94c-60 0 -104 -48 -104 -118v-291h-136v513h133zM-43 522v44c34 4 62 14 62 48h-60v101h124v-85c0 -76 -61 -106 -126 -108z" />
    <glyph glyph-name="Eng" unicode="&#x14a;" horiz-adv-x="686" 
d="M631 715v-677c0 -126 -59 -212 -205 -212c-25 0 -44 2 -70 6v115c15 -4 29 -5 43 -5c39 0 78 14 88 65l-240 388c-23 38 -51 99 -51 99h-2s4 -75 4 -125v-369h-143v715h147l238 -399c23 -39 50 -100 50 -100h2s-4 74 -4 124v375h143z" />
    <glyph glyph-name="eng" unicode="&#x14b;" horiz-adv-x="549" 
d="M373 -13v328c0 55 -32 94 -89 94c-60 0 -104 -48 -104 -118v-291h-136v513h133v-70h3c35 55 82 84 152 84c106 0 177 -80 177 -192v-355c0 -60 -12 -90 -34 -112c-26 -27 -66 -37 -110 -37c-25 0 -56 2 -77 6v97c55 1 85 6 85 53z" />
    <glyph glyph-name="Omacron" unicode="&#x14c;" horiz-adv-x="737" 
d="M369 -16c-211 0 -345 158 -345 372s134 373 345 373s344 -159 344 -373s-133 -372 -344 -372zM370 103c131 0 195 111 195 253c0 143 -64 254 -195 254s-198 -111 -198 -254c0 -142 67 -253 198 -253zM226 762v97h284v-97h-284z" />
    <glyph glyph-name="omacron" unicode="&#x14d;" horiz-adv-x="574" 
d="M287 -15c-159 0 -268 118 -268 271s109 271 268 271s268 -118 268 -271s-109 -271 -268 -271zM287 89c83 0 130 67 130 167s-47 168 -130 168c-84 0 -130 -68 -130 -168s46 -167 130 -167zM145 592v97h284v-97h-284z" />
    <glyph glyph-name="Obreve" unicode="&#x14e;" horiz-adv-x="737" 
d="M369 -16c-211 0 -345 158 -345 372s134 373 345 373s344 -159 344 -373s-133 -372 -344 -372zM370 103c131 0 195 111 195 253c0 143 -64 254 -195 254s-198 -111 -198 -254c0 -142 67 -253 198 -253zM369 749c-84 0 -143 57 -148 133h78c4 -29 28 -48 69 -48
c40 0 65 21 69 48h78c-6 -74 -59 -133 -146 -133z" />
    <glyph glyph-name="obreve" unicode="&#x14f;" horiz-adv-x="574" 
d="M287 -15c-159 0 -268 118 -268 271s109 271 268 271s268 -118 268 -271s-109 -271 -268 -271zM287 89c83 0 130 67 130 167s-47 168 -130 168c-84 0 -130 -68 -130 -168s46 -167 130 -167zM288 573c-84 0 -143 57 -148 133h78c4 -29 28 -48 69 -48c40 0 65 21 69 48h78
c-6 -74 -59 -133 -146 -133z" />
    <glyph glyph-name="Ohungarumlaut" unicode="&#x150;" horiz-adv-x="737" 
d="M369 -16c-211 0 -345 158 -345 372s134 373 345 373s344 -159 344 -373s-133 -372 -344 -372zM370 103c131 0 195 111 195 253c0 143 -64 254 -195 254s-198 -111 -198 -254c0 -142 67 -253 198 -253zM415 753l33 125h129l-79 -125h-83zM241 753l33 125h129l-79 -125h-83
z" />
    <glyph glyph-name="ohungarumlaut" unicode="&#x151;" horiz-adv-x="574" 
d="M287 -15c-159 0 -268 118 -268 271s109 271 268 271s268 -118 268 -271s-109 -271 -268 -271zM287 89c83 0 130 67 130 167s-47 168 -130 168c-84 0 -130 -68 -130 -168s46 -167 130 -167zM334 577l40 141h129l-86 -141h-83zM160 577l40 141h129l-86 -141h-83z" />
    <glyph glyph-name="OE" unicode="&#x152;" horiz-adv-x="1053" 
d="M355 -16c-190 0 -331 158 -331 372s141 373 331 373c61 0 113 -21 155 -56v42h497v-125h-354v-161h306v-117h-306v-181h365v-131h-508v43c-44 -37 -97 -59 -155 -59zM361 103c69 0 118 24 149 72v359c-31 49 -81 76 -149 76c-121 0 -189 -111 -189 -254
c0 -142 68 -253 189 -253z" />
    <glyph glyph-name="oe" unicode="&#x153;" horiz-adv-x="943" 
d="M287 -15c-159 0 -268 118 -268 271s109 271 268 271c84 0 152 -33 197 -87c43 53 107 87 187 87c165 0 253 -126 253 -309h-372c10 -79 54 -128 131 -128c53 0 84 24 99 63h134c-19 -91 -100 -168 -232 -168c-90 0 -157 33 -201 86c-45 -53 -112 -86 -196 -86zM287 89
c83 0 130 67 130 167s-47 168 -130 168c-84 0 -130 -68 -130 -168s46 -167 130 -167zM673 422c-72 0 -107 -43 -119 -110h228c-4 65 -47 110 -109 110z" />
    <glyph glyph-name="Racute" unicode="&#x154;" horiz-adv-x="651" 
d="M55 0v715h328c138 0 230 -80 230 -199c0 -84 -39 -148 -131 -173v-3c66 -19 100 -57 109 -144c10 -101 6 -178 31 -189v-7h-139c-18 8 -20 88 -26 165c-6 78 -50 122 -140 122h-117v-287h-145zM200 598v-199h154c79 0 118 41 118 98c0 58 -37 101 -114 101h-158zM459 878
l-95 -125h-106l42 125h159z" />
    <glyph glyph-name="racute" unicode="&#x155;" horiz-adv-x="351" 
d="M175 513v-82h3c31 58 66 88 126 88c15 0 24 -1 32 -4v-119h-3c-89 9 -153 -38 -153 -146v-250h-136v513h131zM362 718l-108 -141h-106l55 141h159z" />
    <glyph glyph-name="Rcommaaccent" unicode="&#x156;" horiz-adv-x="651" 
d="M55 0v715h328c138 0 230 -80 230 -199c0 -84 -39 -148 -131 -173v-3c66 -19 100 -57 109 -144c10 -101 6 -178 31 -189v-7h-139c-18 8 -20 88 -26 165c-6 78 -50 122 -140 122h-117v-287h-145zM200 598v-199h154c79 0 118 41 118 98c0 58 -37 101 -114 101h-158z
M275 -263v44c29 7 62 24 62 64h-60v107h124v-97c0 -77 -61 -111 -126 -118z" />
    <glyph glyph-name="rcommaaccent" unicode="&#x157;" horiz-adv-x="351" 
d="M175 513v-82h3c31 58 66 88 126 88c15 0 24 -1 32 -4v-119h-3c-89 9 -153 -38 -153 -146v-250h-136v513h131zM45 -263v44c29 7 62 24 62 64h-60v107h124v-97c0 -77 -61 -111 -126 -118z" />
    <glyph glyph-name="Rcaron" unicode="&#x158;" horiz-adv-x="651" 
d="M55 0v715h328c138 0 230 -80 230 -199c0 -84 -39 -148 -131 -173v-3c66 -19 100 -57 109 -144c10 -101 6 -178 31 -189v-7h-139c-18 8 -20 88 -26 165c-6 78 -50 122 -140 122h-117v-287h-145zM200 598v-199h154c79 0 118 41 118 98c0 58 -37 101 -114 101h-158zM480 867
l-94 -114h-146l-96 114h118l48 -57h2l49 57h119z" />
    <glyph glyph-name="rcaron" unicode="&#x159;" horiz-adv-x="351" 
d="M175 513v-82h3c31 58 66 88 126 88c15 0 24 -1 32 -4v-119h-3c-89 9 -153 -38 -153 -146v-250h-136v513h131zM130 576l-96 126h118l48 -69h2l49 69h119l-94 -126h-146z" />
    <glyph glyph-name="Sacute" unicode="&#x15a;" horiz-adv-x="642" 
d="M332 -16c-194 0 -304 86 -309 237h142c10 -86 59 -120 161 -120c74 0 139 26 139 92c0 70 -68 84 -177 109c-128 29 -245 63 -245 212c0 141 115 214 274 214c161 0 265 -79 276 -223h-139c-8 72 -64 108 -138 108c-78 0 -129 -33 -129 -84c0 -58 50 -75 156 -98
c147 -32 267 -67 267 -221c0 -145 -117 -226 -278 -226zM467 878l-95 -125h-106l42 125h159z" />
    <glyph glyph-name="sacute" unicode="&#x15b;" horiz-adv-x="485" 
d="M252 -15c-149 0 -232 72 -240 181h126c9 -59 51 -85 112 -85c60 0 94 23 94 59c0 49 -65 54 -135 68c-92 18 -182 43 -182 155c0 111 92 164 209 164c135 0 210 -67 220 -170h-123c-6 55 -41 75 -99 75c-53 0 -88 -20 -88 -57c0 -44 68 -48 141 -63
c86 -18 181 -42 181 -162c0 -103 -88 -165 -216 -165zM403 718l-108 -141h-106l55 141h159z" />
    <glyph glyph-name="Scircumflex" unicode="&#x15c;" horiz-adv-x="642" 
d="M332 -16c-194 0 -304 86 -309 237h142c10 -86 59 -120 161 -120c74 0 139 26 139 92c0 70 -68 84 -177 109c-128 29 -245 63 -245 212c0 141 115 214 274 214c161 0 265 -79 276 -223h-139c-8 72 -64 108 -138 108c-78 0 -129 -33 -129 -84c0 -58 50 -75 156 -98
c147 -32 267 -67 267 -221c0 -145 -117 -226 -278 -226zM152 753l94 114h146l96 -114h-118l-48 57h-2l-49 -57h-119z" />
    <glyph glyph-name="scircumflex" unicode="&#x15d;" horiz-adv-x="485" 
d="M252 -15c-149 0 -232 72 -240 181h126c9 -59 51 -85 112 -85c60 0 94 23 94 59c0 49 -65 54 -135 68c-92 18 -182 43 -182 155c0 111 92 164 209 164c135 0 210 -67 220 -170h-123c-6 55 -41 75 -99 75c-53 0 -88 -20 -88 -57c0 -44 68 -48 141 -63
c86 -18 181 -42 181 -162c0 -103 -88 -165 -216 -165zM75 581l94 126h146l96 -126h-118l-48 69h-2l-49 -69h-119z" />
    <glyph glyph-name="Scedilla" unicode="&#x15e;" horiz-adv-x="642" 
d="M295 -192c-45 0 -80 12 -106 29l18 32c20 -9 46 -15 70 -15c30 0 57 10 57 31c0 19 -19 29 -41 29c-15 0 -26 -3 -37 -7l-16 22l56 56c-172 10 -269 94 -273 236h142c10 -86 59 -120 161 -120c74 0 139 26 139 92c0 70 -68 84 -177 109c-128 29 -245 63 -245 212
c0 141 115 214 274 214c161 0 265 -79 276 -223h-139c-8 72 -64 108 -138 108c-78 0 -129 -33 -129 -84c0 -58 50 -75 156 -98c147 -32 267 -67 267 -221c0 -140 -108 -219 -259 -225l-41 -35v-2c53 8 106 -11 106 -64c0 -48 -53 -76 -121 -76z" />
    <glyph glyph-name="scedilla" unicode="&#x15f;" horiz-adv-x="485" 
d="M218 -192c-45 0 -80 12 -106 29l18 32c20 -9 46 -15 70 -15c30 0 57 10 57 31c0 19 -19 29 -41 29c-15 0 -26 -3 -37 -7l-16 22l57 57c-129 10 -201 79 -208 180h126c9 -59 51 -85 112 -85c60 0 94 23 94 59c0 49 -65 54 -135 68c-92 18 -182 43 -182 155
c0 111 92 164 209 164c135 0 210 -67 220 -170h-123c-6 55 -41 75 -99 75c-53 0 -88 -20 -88 -57c0 -44 68 -48 141 -63c86 -18 181 -42 181 -162c0 -97 -77 -156 -192 -164l-43 -36v-2c53 8 106 -11 106 -64c0 -48 -53 -76 -121 -76z" />
    <glyph glyph-name="Scaron" unicode="&#x160;" horiz-adv-x="642" 
d="M332 -16c-194 0 -304 86 -309 237h142c10 -86 59 -120 161 -120c74 0 139 26 139 92c0 70 -68 84 -177 109c-128 29 -245 63 -245 212c0 141 115 214 274 214c161 0 265 -79 276 -223h-139c-8 72 -64 108 -138 108c-78 0 -129 -33 -129 -84c0 -58 50 -75 156 -98
c147 -32 267 -67 267 -221c0 -145 -117 -226 -278 -226zM488 867l-94 -114h-146l-96 114h118l48 -57h2l49 57h119z" />
    <glyph glyph-name="scaron" unicode="&#x161;" horiz-adv-x="485" 
d="M252 -15c-149 0 -232 72 -240 181h126c9 -59 51 -85 112 -85c60 0 94 23 94 59c0 49 -65 54 -135 68c-92 18 -182 43 -182 155c0 111 92 164 209 164c135 0 210 -67 220 -170h-123c-6 55 -41 75 -99 75c-53 0 -88 -20 -88 -57c0 -44 68 -48 141 -63
c86 -18 181 -42 181 -162c0 -103 -88 -165 -216 -165zM171 576l-96 126h118l48 -69h2l49 69h119l-94 -126h-146z" />
    <glyph glyph-name="uni0162" unicode="&#x162;" horiz-adv-x="611" 
d="M18 593v122h575v-122h-215v-593h-145v593h-215zM242 -263v44c29 7 62 24 62 64h-60v107h124v-97c0 -77 -61 -111 -126 -118z" />
    <glyph glyph-name="uni0163" unicode="&#x163;" horiz-adv-x="332" 
d="M14 423v90h71v160h133v-160h88v-90h-88v-272c0 -38 21 -51 51 -51c17 0 40 1 40 1v-100s-31 -2 -85 -2c-66 0 -139 26 -139 123v301h-71zM128 -263v44c29 7 62 24 62 64h-60v107h124v-97c0 -77 -61 -111 -126 -118z" />
    <glyph glyph-name="uni021A" unicode="&#x21a;" horiz-adv-x="611" 
d="M18 593v122h575v-122h-215v-593h-145v593h-215zM242 -263v44c29 7 62 24 62 64h-60v107h124v-97c0 -77 -61 -111 -126 -118z" />
    <glyph glyph-name="uni021B" unicode="&#x21b;" horiz-adv-x="332" 
d="M14 423v90h71v160h133v-160h88v-90h-88v-272c0 -38 21 -51 51 -51c17 0 40 1 40 1v-100s-31 -2 -85 -2c-66 0 -139 26 -139 123v301h-71zM128 -263v44c29 7 62 24 62 64h-60v107h124v-97c0 -77 -61 -111 -126 -118z" />
    <glyph glyph-name="Tcaron" unicode="&#x164;" horiz-adv-x="611" 
d="M18 593v122h575v-122h-215v-593h-145v593h-215zM473 867l-94 -114h-146l-96 114h118l48 -57h2l49 57h119z" />
    <glyph glyph-name="tcaron" unicode="&#x165;" horiz-adv-x="332" 
d="M14 423v90h71v160h133v-160h88v-90h-88v-272c0 -38 21 -51 51 -51c17 0 40 1 40 1v-100s-31 -2 -85 -2c-66 0 -139 26 -139 123v301h-71zM259 539v45c35 3 62 14 62 41h-60v90h124v-80c0 -64 -56 -94 -126 -96z" />
    <glyph glyph-name="Tbar" unicode="&#x166;" horiz-adv-x="611" 
d="M18 593v122h575v-122h-215v-191h142v-87h-142v-315h-145v315h-142v87h142v191h-215z" />
    <glyph glyph-name="tbar" unicode="&#x167;" horiz-adv-x="332" 
d="M14 423v90h71v160h133v-160h88v-90h-88v-73h88v-80h-88v-119c0 -38 21 -51 51 -51c17 0 40 1 40 1v-100s-31 -2 -85 -2c-66 0 -139 26 -139 123v148h-72v80h72v73h-71z" />
    <glyph glyph-name="Utilde" unicode="&#x168;" horiz-adv-x="657" 
d="M331 -12c-185 0 -282 87 -282 242v485h145v-485c0 -74 37 -126 134 -126c92 0 135 54 135 128v483h145v-485c0 -153 -94 -242 -277 -242zM385 755c-48 0 -82 33 -109 33c-14 0 -24 -12 -27 -31h-72c0 78 40 118 90 118c49 0 82 -35 109 -35c19 0 25 12 29 31h72
c0 -68 -34 -116 -92 -116z" />
    <glyph glyph-name="utilde" unicode="&#x169;" horiz-adv-x="543" 
d="M499 0h-131v60h-3c-35 -47 -75 -74 -147 -74c-114 0 -178 73 -178 185v342h135v-319c0 -60 27 -93 85 -93c64 0 103 48 103 116v296h136v-513zM329 575c-48 0 -82 33 -109 33c-14 0 -24 -12 -27 -31h-72c0 78 40 118 90 118c49 0 82 -35 109 -35c19 0 25 12 29 31h72
c0 -68 -34 -116 -92 -116z" />
    <glyph glyph-name="Umacron" unicode="&#x16a;" horiz-adv-x="657" 
d="M331 -12c-185 0 -282 87 -282 242v485h145v-485c0 -74 37 -126 134 -126c92 0 135 54 135 128v483h145v-485c0 -153 -94 -242 -277 -242zM185 762v97h284v-97h-284z" />
    <glyph glyph-name="umacron" unicode="&#x16b;" horiz-adv-x="543" 
d="M499 0h-131v60h-3c-35 -47 -75 -74 -147 -74c-114 0 -178 73 -178 185v342h135v-319c0 -60 27 -93 85 -93c64 0 103 48 103 116v296h136v-513zM129 592v97h284v-97h-284z" />
    <glyph glyph-name="Ubreve" unicode="&#x16c;" horiz-adv-x="657" 
d="M331 -12c-185 0 -282 87 -282 242v485h145v-485c0 -74 37 -126 134 -126c92 0 135 54 135 128v483h145v-485c0 -153 -94 -242 -277 -242zM328 749c-84 0 -143 57 -148 133h78c4 -29 28 -48 69 -48c40 0 65 21 69 48h78c-6 -74 -59 -133 -146 -133z" />
    <glyph glyph-name="ubreve" unicode="&#x16d;" horiz-adv-x="543" 
d="M499 0h-131v60h-3c-35 -47 -75 -74 -147 -74c-114 0 -178 73 -178 185v342h135v-319c0 -60 27 -93 85 -93c64 0 103 48 103 116v296h136v-513zM272 573c-84 0 -143 57 -148 133h78c4 -29 28 -48 69 -48c40 0 65 21 69 48h78c-6 -74 -59 -133 -146 -133z" />
    <glyph glyph-name="Uring" unicode="&#x16e;" horiz-adv-x="657" 
d="M331 -12c-185 0 -282 87 -282 242v485h145v-485c0 -74 37 -126 134 -126c92 0 135 54 135 128v483h145v-485c0 -153 -94 -242 -277 -242zM327 730c-53 0 -97 41 -97 94c0 52 44 94 97 94s97 -42 97 -94c0 -53 -44 -94 -97 -94zM327 777c26 0 45 21 45 47s-19 47 -45 47
s-45 -21 -45 -47s19 -47 45 -47z" />
    <glyph glyph-name="uring" unicode="&#x16f;" horiz-adv-x="543" 
d="M499 0h-131v60h-3c-35 -47 -75 -74 -147 -74c-114 0 -178 73 -178 185v342h135v-319c0 -60 27 -93 85 -93c64 0 103 48 103 116v296h136v-513zM271 561c-53 0 -97 41 -97 94c0 52 44 94 97 94s97 -42 97 -94c0 -53 -44 -94 -97 -94zM271 608c26 0 45 21 45 47
s-19 47 -45 47s-45 -21 -45 -47s19 -47 45 -47z" />
    <glyph glyph-name="Uhungarumlaut" unicode="&#x170;" horiz-adv-x="657" 
d="M331 -12c-185 0 -282 87 -282 242v485h145v-485c0 -74 37 -126 134 -126c92 0 135 54 135 128v483h145v-485c0 -153 -94 -242 -277 -242zM374 753l33 125h129l-79 -125h-83zM200 753l33 125h129l-79 -125h-83z" />
    <glyph glyph-name="uhungarumlaut" unicode="&#x171;" horiz-adv-x="543" 
d="M499 0h-131v60h-3c-35 -47 -75 -74 -147 -74c-114 0 -178 73 -178 185v342h135v-319c0 -60 27 -93 85 -93c64 0 103 48 103 116v296h136v-513zM318 577l40 141h129l-86 -141h-83zM144 577l40 141h129l-86 -141h-83z" />
    <glyph glyph-name="Uogonek" unicode="&#x172;" horiz-adv-x="657" 
d="M389 -174c-80 0 -116 29 -116 81c0 39 20 63 41 81c-174 5 -265 90 -265 242v485h145v-485c0 -74 37 -126 134 -126c92 0 135 54 135 128v483h145v-485c0 -113 -52 -189 -151 -224c-45 -16 -81 -38 -81 -73c0 -18 12 -28 31 -28c13 0 23 3 32 7h2v-77
c-12 -5 -29 -9 -52 -9z" />
    <glyph glyph-name="uogonek" unicode="&#x173;" horiz-adv-x="543" 
d="M447 -174c-73 0 -109 29 -109 81c0 45 35 77 64 93h-34v60h-3c-35 -47 -75 -74 -147 -74c-114 0 -178 73 -178 185v342h135v-319c0 -60 27 -93 85 -93c64 0 103 48 103 116v296h136v-507c-39 -27 -58 -50 -58 -73c0 -18 12 -28 31 -28c13 0 23 3 32 7h2v-77
c-12 -5 -29 -9 -59 -9z" />
    <glyph glyph-name="Wcircumflex" unicode="&#x174;" horiz-adv-x="916" 
d="M213 0l-208 715h148l93 -355c14 -61 31 -156 31 -156h2s18 89 33 152l78 359h140l78 -358c15 -63 33 -153 33 -153h2s21 95 35 157l90 354h143l-204 -715h-135l-87 383c-12 52 -25 127 -25 127h-2s-11 -75 -23 -127l-88 -383h-134zM290 753l94 114h146l96 -114h-118
l-48 57h-2l-49 -57h-119z" />
    <glyph glyph-name="wcircumflex" unicode="&#x175;" horiz-adv-x="745" 
d="M154 0l-150 513h135l62 -238c11 -42 23 -96 23 -96h2s11 55 22 97l64 237h116l67 -237c11 -43 24 -97 24 -97h2s12 54 23 96l65 238h132l-153 -513h-124l-68 252c-11 41 -23 89 -23 89h-2s-13 -48 -24 -89l-70 -252h-123zM204 581l94 126h146l96 -126h-118l-48 69h-2
l-49 -69h-119z" />
    <glyph glyph-name="Ycircumflex" unicode="&#x176;" horiz-adv-x="629" 
d="M242 0v276l-238 439h158l108 -212c22 -43 47 -102 47 -102h2s27 59 48 102l106 212h152l-238 -439v-276h-145zM146 753l94 114h146l96 -114h-118l-48 57h-2l-49 -57h-119z" />
    <glyph glyph-name="ycircumflex" unicode="&#x177;" horiz-adv-x="497" 
d="M55 -168v107h48c54 0 76 28 76 70c0 28 -10 61 -39 139l-138 365h143l76 -231c16 -47 33 -112 33 -112h2s14 65 30 112l72 231h137l-179 -526c-39 -114 -77 -155 -181 -155h-80zM80 581l94 126h146l96 -126h-118l-48 69h-2l-49 -69h-119z" />
    <glyph glyph-name="Ydieresis" unicode="&#x178;" horiz-adv-x="629" 
d="M242 0v276l-238 439h158l108 -212c22 -43 47 -102 47 -102h2s27 59 48 102l106 212h152l-238 -439v-276h-145zM352 753v114h128v-114h-128zM149 753v114h128v-114h-128z" />
    <glyph glyph-name="Zacute" unicode="&#x179;" horiz-adv-x="626" 
d="M27 0v109l390 482v3h-365v121h537v-121l-377 -468v-3h384v-123h-569zM462 878l-95 -125h-106l42 125h159z" />
    <glyph glyph-name="zacute" unicode="&#x17a;" horiz-adv-x="485" 
d="M27 0v104l264 299v3h-234v107h392v-109l-258 -292v-3h271v-109h-435zM423 718l-108 -141h-106l55 141h159z" />
    <glyph glyph-name="Zdotaccent" unicode="&#x17b;" horiz-adv-x="626" 
d="M27 0v109l390 482v3h-365v121h537v-121l-377 -468v-3h384v-123h-569zM247 753v118h136v-118h-136z" />
    <glyph glyph-name="zdotaccent" unicode="&#x17c;" horiz-adv-x="485" 
d="M27 0v104l264 299v3h-234v107h392v-109l-258 -292v-3h271v-109h-435zM195 593v122h136v-122h-136z" />
    <glyph glyph-name="Zcaron" unicode="&#x17d;" horiz-adv-x="626" 
d="M27 0v109l390 482v3h-365v121h537v-121l-377 -468v-3h384v-123h-569zM483 867l-94 -114h-146l-96 114h118l48 -57h2l49 57h119z" />
    <glyph glyph-name="zcaron" unicode="&#x17e;" horiz-adv-x="485" 
d="M27 0v104l264 299v3h-234v107h392v-109l-258 -292v-3h271v-109h-435zM191 576l-96 126h118l48 -69h2l49 69h119l-94 -126h-146z" />
    <glyph glyph-name="florin" unicode="&#x192;" horiz-adv-x="398" 
d="M30 323v90h91l21 143c19 133 110 154 233 138v-99c-58 5 -88 0 -96 -53l-19 -129h100v-90h-113l-49 -341c-18 -128 -94 -150 -213 -132v93c43 -3 69 0 76 53l47 327h-78z" />
    <glyph glyph-name="Scommaaccent" unicode="&#x218;" horiz-adv-x="642" 
d="M332 -16c-194 0 -304 86 -309 237h142c10 -86 59 -120 161 -120c74 0 139 26 139 92c0 70 -68 84 -177 109c-128 29 -245 63 -245 212c0 141 115 214 274 214c161 0 265 -79 276 -223h-139c-8 72 -64 108 -138 108c-78 0 -129 -33 -129 -84c0 -58 50 -75 156 -98
c147 -32 267 -67 267 -221c0 -145 -117 -226 -278 -226zM257 -263v44c29 7 62 24 62 64h-60v107h124v-97c0 -77 -61 -111 -126 -118z" />
    <glyph glyph-name="scommaaccent" unicode="&#x219;" horiz-adv-x="485" 
d="M252 -15c-149 0 -232 72 -240 181h126c9 -59 51 -85 112 -85c60 0 94 23 94 59c0 49 -65 54 -135 68c-92 18 -182 43 -182 155c0 111 92 164 209 164c135 0 210 -67 220 -170h-123c-6 55 -41 75 -99 75c-53 0 -88 -20 -88 -57c0 -44 68 -48 141 -63
c86 -18 181 -42 181 -162c0 -103 -88 -165 -216 -165zM180 -263v44c29 7 62 24 62 64h-60v107h124v-97c0 -77 -61 -111 -126 -118z" />
    <glyph glyph-name="dotlessj" horiz-adv-x="224" 
d="M36 -169c-25 0 -56 2 -77 6v97c55 1 85 6 85 53v526h136v-533c0 -60 -12 -90 -34 -112c-26 -27 -66 -37 -110 -37z" />
    <glyph glyph-name="circumflex" unicode="&#x2c6;" 
d="M82 581l94 126h146l96 -126h-118l-48 69h-2l-49 -69h-119z" />
    <glyph glyph-name="caron" unicode="&#x2c7;" 
d="M178 576l-96 126h118l48 -69h2l49 69h119l-94 -126h-146z" />
    <glyph glyph-name="uni02C9" unicode="&#x2c9;" 
d="M113 592v97h284v-97h-284z" />
    <glyph glyph-name="breve" unicode="&#x2d8;" 
d="M270 573c-84 0 -143 57 -148 133h78c4 -29 28 -48 69 -48c40 0 65 21 69 48h78c-6 -74 -59 -133 -146 -133z" />
    <glyph glyph-name="dotaccent" unicode="&#x2d9;" 
d="M182 593v122h136v-122h-136z" />
    <glyph glyph-name="ring" unicode="&#x2da;" 
d="M250 561c-53 0 -97 41 -97 94c0 52 44 94 97 94s97 -42 97 -94c0 -53 -44 -94 -97 -94zM250 608c26 0 45 21 45 47s-19 47 -45 47s-45 -21 -45 -47s19 -47 45 -47z" />
    <glyph glyph-name="ogonek" unicode="&#x2db;" 
d="M249 -174c-80 0 -116 29 -116 81c0 45 35 77 64 93h86c-29 -25 -47 -44 -47 -67c0 -18 12 -28 31 -28c13 0 23 3 32 7h2v-77c-12 -5 -29 -9 -52 -9z" />
    <glyph glyph-name="tilde" unicode="&#x2dc;" 
d="M308 575c-48 0 -82 33 -109 33c-14 0 -24 -12 -27 -31h-72c0 78 40 118 90 118c49 0 82 -35 109 -35c19 0 25 12 29 31h72c0 -68 -34 -116 -92 -116z" />
    <glyph glyph-name="hungarumlaut" unicode="&#x2dd;" 
d="M288 577l40 141h129l-86 -141h-83zM114 577l40 141h129l-86 -141h-83z" />
    <glyph glyph-name="commaaccent" 
d="M187 -263v44c29 7 62 24 62 64h-60v107h124v-97c0 -77 -61 -111 -126 -118z" />
    <glyph glyph-name="uni0394" unicode="&#x394;" horiz-adv-x="664" 
d="M21 0v98l235 617h150l237 -616v-99h-622zM294 461l-127 -348h326l-128 348c-14 37 -34 121 -34 121h-2s-21 -84 -35 -121z" />
    <glyph glyph-name="uni03A9" unicode="&#x3a9;" horiz-adv-x="737" 
d="M370 610c-133 0 -198 -96 -198 -248c0 -143 52 -231 155 -255v-107h-296v111h113v2c-83 49 -120 155 -120 262c0 207 134 354 345 354s344 -147 344 -354c0 -107 -36 -213 -119 -262v-2h112v-111h-295v107c103 24 154 112 154 255c0 152 -64 248 -195 248z" />
    <glyph glyph-name="uni03BC" unicode="&#x3bc;" horiz-adv-x="547" 
d="M44 -168v681h135v-319c0 -60 27 -93 85 -93c64 0 103 48 103 116v296h136v-513h-131v60h-3c-33 -47 -74 -74 -129 -74c-29 0 -45 7 -58 16h-3v-170h-135z" />
    <glyph glyph-name="pi" unicode="&#x3c0;" horiz-adv-x="611" 
d="M225 423v-423h-133v423h-77v90h575v-90h-80v-277c0 -33 11 -46 40 -46c15 0 28 1 29 1v-100c-12 -1 -28 -2 -57 -2c-78 0 -145 26 -145 123v301h-152z" />
    <glyph glyph-name="Wgrave" unicode="&#x1e80;" horiz-adv-x="916" 
d="M213 0l-208 715h148l93 -355c14 -61 31 -156 31 -156h2s18 89 33 152l78 359h140l78 -358c15 -63 33 -153 33 -153h2s21 95 35 157l90 354h143l-204 -715h-135l-87 383c-12 52 -25 127 -25 127h-2s-11 -75 -23 -127l-88 -383h-134zM410 753l-95 125h159l42 -125h-106z
" />
    <glyph glyph-name="wgrave" unicode="&#x1e81;" horiz-adv-x="745" 
d="M154 0l-150 513h135l62 -238c11 -42 23 -96 23 -96h2s11 55 22 97l64 237h116l67 -237c11 -43 24 -97 24 -97h2s12 54 23 96l65 238h132l-153 -513h-124l-68 252c-11 41 -23 89 -23 89h-2s-13 -48 -24 -89l-70 -252h-123zM324 577l-108 141h159l55 -141h-106z" />
    <glyph glyph-name="Wacute" unicode="&#x1e82;" horiz-adv-x="916" 
d="M213 0l-208 715h148l93 -355c14 -61 31 -156 31 -156h2s18 89 33 152l78 359h140l78 -358c15 -63 33 -153 33 -153h2s21 95 35 157l90 354h143l-204 -715h-135l-87 383c-12 52 -25 127 -25 127h-2s-11 -75 -23 -127l-88 -383h-134zM605 878l-95 -125h-106l42 125h159z
" />
    <glyph glyph-name="wacute" unicode="&#x1e83;" horiz-adv-x="745" 
d="M154 0l-150 513h135l62 -238c11 -42 23 -96 23 -96h2s11 55 22 97l64 237h116l67 -237c11 -43 24 -97 24 -97h2s12 54 23 96l65 238h132l-153 -513h-124l-68 252c-11 41 -23 89 -23 89h-2s-13 -48 -24 -89l-70 -252h-123zM532 718l-108 -141h-106l55 141h159z" />
    <glyph glyph-name="Wdieresis" unicode="&#x1e84;" horiz-adv-x="916" 
d="M213 0l-208 715h148l93 -355c14 -61 31 -156 31 -156h2s18 89 33 152l78 359h140l78 -358c15 -63 33 -153 33 -153h2s21 95 35 157l90 354h143l-204 -715h-135l-87 383c-12 52 -25 127 -25 127h-2s-11 -75 -23 -127l-88 -383h-134zM496 753v114h128v-114h-128zM293 753
v114h128v-114h-128z" />
    <glyph glyph-name="wdieresis" unicode="&#x1e85;" horiz-adv-x="745" 
d="M154 0l-150 513h135l62 -238c11 -42 23 -96 23 -96h2s11 55 22 97l64 237h116l67 -237c11 -43 24 -97 24 -97h2s12 54 23 96l65 238h132l-153 -513h-124l-68 252c-11 41 -23 89 -23 89h-2s-13 -48 -24 -89l-70 -252h-123zM420 581v114h128v-114h-128zM197 581v114h128
v-114h-128z" />
    <glyph glyph-name="Ygrave" unicode="&#x1ef2;" horiz-adv-x="629" 
d="M242 0v276l-238 439h158l108 -212c22 -43 47 -102 47 -102h2s27 59 48 102l106 212h152l-238 -439v-276h-145zM266 753l-95 125h159l42 -125h-106z" />
    <glyph glyph-name="ygrave" unicode="&#x1ef3;" horiz-adv-x="497" 
d="M55 -168v107h48c54 0 76 28 76 70c0 28 -10 61 -39 139l-138 365h143l76 -231c16 -47 33 -112 33 -112h2s14 65 30 112l72 231h137l-179 -526c-39 -114 -77 -155 -181 -155h-80zM200 577l-108 141h159l55 -141h-106z" />
    <glyph glyph-name="endash" unicode="&#x2013;" 
d="M0 196v117h500v-117h-500z" />
    <glyph glyph-name="emdash" unicode="&#x2014;" horiz-adv-x="1000" 
d="M100 196v117h800v-117h-800z" />
    <glyph glyph-name="quoteleft" unicode="&#x2018;" horiz-adv-x="201" 
d="M32 450v118c0 91 70 139 137 150v-47c-31 -10 -68 -42 -68 -91h66v-130h-135z" />
    <glyph glyph-name="quoteright" unicode="&#x2019;" horiz-adv-x="201" 
d="M32 447v47c31 10 68 42 68 91h-66v130h135v-118c0 -91 -70 -139 -137 -150z" />
    <glyph glyph-name="quotesinglbase" unicode="&#x201a;" horiz-adv-x="201" 
d="M32 -138v47c31 10 68 42 68 91h-66v130h135v-118c0 -91 -70 -139 -137 -150z" />
    <glyph glyph-name="quotedblleft" unicode="&#x201c;" horiz-adv-x="399" 
d="M230 450v118c0 91 70 139 137 150v-47c-31 -10 -68 -42 -68 -91h66v-130h-135zM32 450v118c0 91 70 139 137 150v-47c-31 -10 -68 -42 -68 -91h66v-130h-135z" />
    <glyph glyph-name="quotedblright" unicode="&#x201d;" horiz-adv-x="399" 
d="M230 447v47c31 10 68 42 68 91h-66v130h135v-118c0 -91 -70 -139 -137 -150zM32 447v47c31 10 68 42 68 91h-66v130h135v-118c0 -91 -70 -139 -137 -150z" />
    <glyph glyph-name="quotedblbase" unicode="&#x201e;" horiz-adv-x="399" 
d="M230 -138v47c31 10 68 42 68 91h-66v130h135v-118c0 -91 -70 -139 -137 -150zM32 -138v47c31 10 68 42 68 91h-66v130h135v-118c0 -91 -70 -139 -137 -150z" />
    <glyph glyph-name="dagger" unicode="&#x2020;" horiz-adv-x="565" 
d="M34 412v107h183v196h131v-196h183v-107h-183v-529h-131v529h-183z" />
    <glyph glyph-name="daggerdbl" unicode="&#x2021;" horiz-adv-x="565" 
d="M34 412v107h183v196h131v-196h183v-107h-183v-226h183v-107h-183v-196h-131v196h-183v107h183v226h-183z" />
    <glyph glyph-name="bullet" unicode="&#x2022;" horiz-adv-x="351" 
d="M176 182c-77 0 -140 63 -140 139c0 77 63 140 140 140c76 0 139 -63 139 -140c0 -76 -63 -139 -139 -139z" />
    <glyph glyph-name="ellipsis" unicode="&#x2026;" horiz-adv-x="722" 
d="M540 0v145h146v-145h-146zM36 0v145h146v-145h-146zM288 0v145h146v-145h-146z" />
    <glyph glyph-name="perthousand" unicode="&#x2030;" horiz-adv-x="1221" 
d="M195 301c-102 0 -176 78 -176 199c0 122 75 200 176 200c103 0 175 -77 175 -200c0 -121 -72 -199 -175 -199zM634 -16c-102 0 -176 78 -176 199c0 122 75 200 176 200c103 0 175 -77 175 -200c0 -121 -72 -199 -175 -199zM1027 -16c-102 0 -176 78 -176 199
c0 122 75 200 176 200c103 0 175 -77 175 -200c0 -121 -72 -199 -175 -199zM196 0l351 686h85l-351 -686h-85zM195 378c47 0 69 50 69 122s-23 124 -69 124c-47 0 -69 -51 -69 -124c0 -71 22 -122 69 -122zM634 61c47 0 69 50 69 122s-23 124 -69 124
c-47 0 -69 -51 -69 -124c0 -71 22 -122 69 -122zM1027 61c47 0 69 50 69 122s-23 124 -69 124c-47 0 -69 -51 -69 -124c0 -71 22 -122 69 -122z" />
    <glyph glyph-name="guilsinglleft" unicode="&#x2039;" horiz-adv-x="277" 
d="M218 55l-164 140v126l164 140v-131l-88 -72v-2l88 -72v-129z" />
    <glyph glyph-name="guilsinglright" unicode="&#x203a;" horiz-adv-x="277" 
d="M59 461l164 -140v-126l-164 -140v131l88 72v2l-88 72v129z" />
    <glyph glyph-name="fraction" unicode="&#x2044;" horiz-adv-x="244" 
d="M-171 0l496 715h90l-497 -715h-89z" />
    <glyph glyph-name="Euro" unicode="&#x20ac;" horiz-adv-x="630" 
d="M18 369v59h53c27 163 134 272 286 272c154 0 242 -97 255 -232h-136c-11 73 -50 118 -119 118c-78 0 -126 -61 -143 -158h177v-59h-183c-1 -9 -1 -19 -1 -28c0 -12 0 -24 1 -35h183v-59h-176c19 -96 69 -148 147 -148c77 0 115 58 124 139h132
c-8 -148 -99 -254 -258 -254c-150 0 -258 101 -288 263h-54v59h47c-1 11 -1 23 -1 35c0 9 0 19 1 28h-47z" />
    <glyph glyph-name="afii61289" unicode="&#x2113;" horiz-adv-x="383" 
d="M14 260c19 7 37 14 54 22v287c0 114 69 154 154 154c96 0 142 -47 142 -152c0 -158 -68 -256 -163 -320v-94c0 -44 16 -57 57 -57c27 0 63 3 63 3v-100s-60 -4 -99 -4c-95 0 -154 26 -154 134v54c-18 -6 -36 -11 -54 -16v89zM201 569v-199c6 8 12 15 18 24
c30 45 47 111 47 178c0 43 -10 58 -32 58s-33 -20 -33 -61z" />
    <glyph glyph-name="trademark" unicode="&#x2122;" horiz-adv-x="679" 
d="M314 436v279h108l49 -176h2l50 176h108v-279h-72v181h-2l-55 -181h-61l-54 181h-2v-181h-71zM31 651v64h242v-64h-82v-215h-78v215h-82z" />
    <glyph glyph-name="Omega" unicode="&#x2126;" horiz-adv-x="737" 
d="M370 610c-133 0 -198 -96 -198 -248c0 -143 52 -231 155 -255v-107h-296v111h113v2c-83 49 -120 155 -120 262c0 207 134 354 345 354s344 -147 344 -354c0 -107 -36 -213 -119 -262v-2h112v-111h-295v107c103 24 154 112 154 255c0 152 -64 248 -195 248z" />
    <glyph glyph-name="estimated" unicode="&#x212e;" horiz-adv-x="621" 
d="M591 301h-421v-213c36 -32 87 -51 157 -51c118 0 177 56 209 149h51c-26 -114 -113 -197 -260 -197c-190 0 -298 132 -298 320c0 187 121 318 293 318c71 0 129 -22 173 -59c73 -62 97 -152 96 -267zM322 582c-65 0 -118 -21 -152 -52v-185h283v197
c-31 24 -76 40 -131 40z" />
    <glyph glyph-name="partialdiff" unicode="&#x2202;" horiz-adv-x="572" 
d="M391 417c-23 120 -123 170 -252 186v119c251 -13 400 -166 400 -418c0 -193 -86 -318 -270 -318c-159 0 -240 92 -240 229c0 148 100 248 235 248c60 0 102 -19 127 -46zM271 92c83 0 127 72 127 154c0 78 -45 114 -106 114c-73 0 -128 -49 -128 -147
c0 -86 46 -121 107 -121z" />
    <glyph glyph-name="Delta" unicode="&#x2206;" horiz-adv-x="664" 
d="M21 0v98l235 617h150l237 -616v-99h-622zM294 461l-127 -348h326l-128 348c-14 37 -34 121 -34 121h-2s-21 -84 -35 -121z" />
    <glyph glyph-name="product" unicode="&#x220f;" horiz-adv-x="701" 
d="M58 715h585v-815h-145v693h-295v-693h-145v815z" />
    <glyph glyph-name="summation" unicode="&#x2211;" horiz-adv-x="608" 
d="M568 -100h-534v125l282 290v2l-282 273v125h524v-118h-362v-2l262 -246v-60l-269 -270v-2h379v-117z" />
    <glyph glyph-name="minus" unicode="&#x2212;" horiz-adv-x="569" 
d="M35 278v100h499v-100h-499z" />
    <glyph glyph-name="uni2215" unicode="&#x2215;" horiz-adv-x="244" 
d="M-171 0l496 715h90l-497 -715h-89z" />
    <glyph glyph-name="uni2219" unicode="&#x2219;" horiz-adv-x="218" 
d="M36 243v145h146v-145h-146z" />
    <glyph glyph-name="radical" unicode="&#x221a;" horiz-adv-x="622" 
d="M17 215v118h174l55 -139c23 -58 40 -113 40 -113h2s12 56 31 114l167 520h130l-264 -815h-119l-131 315h-85z" />
    <glyph glyph-name="infinity" unicode="&#x221e;" horiz-adv-x="725" 
d="M184 124c-104 0 -157 84 -157 181c0 96 54 180 157 180c83 0 136 -49 181 -116c45 67 95 116 175 116c95 0 158 -73 158 -180c0 -108 -63 -181 -158 -181c-80 0 -130 49 -175 116c-45 -67 -98 -116 -181 -116zM196 385c-44 0 -62 -36 -62 -80c0 -45 18 -81 62 -81
c42 0 72 39 97 80c-25 43 -55 81 -97 81zM529 224c44 0 63 36 63 81c0 44 -19 80 -63 80c-40 0 -68 -38 -93 -81c25 -41 53 -80 93 -80z" />
    <glyph glyph-name="integral" unicode="&#x222b;" horiz-adv-x="337" 
d="M102 -17v612c0 53 12 83 33 105c30 30 67 41 133 41c40 0 66 -5 87 -11v-102h-3c-11 4 -28 8 -53 8c-40 0 -61 -12 -61 -54v-612c0 -53 -12 -83 -33 -105c-30 -30 -67 -41 -133 -41c-40 0 -66 5 -87 11v102h3c11 -4 28 -8 53 -8c40 0 61 12 61 54z" />
    <glyph glyph-name="approxequal" unicode="&#x2248;" horiz-adv-x="562" 
d="M53 339c1 95 54 142 131 142c64 0 168 -33 212 -33c24 0 33 11 35 32h95c-1 -81 -40 -138 -125 -138c-75 0 -176 32 -218 32c-21 0 -32 -12 -35 -35h-95zM53 145c1 95 54 142 131 142c64 0 168 -33 212 -33c24 0 33 11 35 32h95c-1 -81 -40 -138 -125 -138
c-75 0 -176 32 -218 32c-21 0 -32 -12 -35 -35h-95z" />
    <glyph glyph-name="notequal" unicode="&#x2260;" horiz-adv-x="562" 
d="M56 358v98h253l41 87h92l-41 -87h119v-98h-164l-44 -95h208v-98h-254l-40 -87h-92l40 87h-118v98h164l44 95h-208z" />
    <glyph glyph-name="lessequal" unicode="&#x2264;" 
d="M455 124l-410 147v123l410 147v-109l-217 -72c-33 -11 -95 -28 -95 -28v-2s62 -15 95 -26l217 -69v-111zM45 0v98h410v-98h-410z" />
    <glyph glyph-name="greaterequal" unicode="&#x2265;" 
d="M45 541l410 -147v-123l-410 -147v109l217 72c33 11 95 28 95 28v2s-62 15 -95 26l-217 69v111zM455 98v-98h-410v98h410z" />
    <glyph glyph-name="lozenge" unicode="&#x25ca;" horiz-adv-x="560" 
d="M340 715l202 -358l-201 -357h-121l-202 358l201 357h121zM278 593l-122 -233l124 -238h2l121 232l-123 239h-2z" />
    <glyph glyph-name="uniF8FF" unicode="&#xf8ff;" horiz-adv-x="846" 
d="M65 0v716h716v-716h-716zM183 431v-144h168v-169h144v169h168v144h-168v163h-144v-163h-168z" />
    <glyph glyph-name="f_i" unicode="&#xf001;" horiz-adv-x="550" 
d="M11 419v94h70v46c0 125 97 169 228 155v-105c-64 3 -92 -5 -92 -58v-38h92v-94h-92v-419h-136v419h-70zM370 0v513h136v-513h-136zM370 593v122h136v-122h-136z" />
    <glyph glyph-name="f_l" unicode="&#xf002;" horiz-adv-x="555" 
d="M14 419v94h70v46c0 125 97 169 228 155v-105c-64 3 -92 -5 -92 -58v-38h92v-94h-92v-419h-136v419h-70zM373 0v715h136v-715h-136z" />
    <glyph glyph-name="zero.superior" unicode="&#x2070;" horiz-adv-x="418" 
d="M210 309c-108 0 -185 81 -185 207s78 207 185 207c108 0 183 -80 183 -207c0 -126 -75 -207 -183 -207zM210 391c49 0 72 44 72 125c0 80 -24 126 -72 126c-50 0 -73 -45 -73 -126c0 -80 23 -125 73 -125z" />
    <glyph glyph-name="four.superior" unicode="&#x2074;" horiz-adv-x="399" 
d="M215 318v84h-189v91l188 227h103v-242h59v-76h-59v-84h-102zM105 479v-1h110v133h-1z" />
    <glyph glyph-name="five.superior" unicode="&#x2075;" horiz-adv-x="381" 
d="M189 309c-92 0 -162 46 -169 126h100c6 -29 31 -44 67 -44c37 0 58 25 58 61c0 40 -23 63 -58 63c-27 0 -45 -9 -56 -23h-95l40 223h251v-82h-180l-13 -67h2c16 14 42 25 81 25c80 0 136 -55 136 -137c0 -88 -65 -145 -164 -145z" />
    <glyph glyph-name="six.superior" unicode="&#x2076;" horiz-adv-x="387" 
d="M204 309c-117 0 -178 83 -178 205c-1 66 15 117 50 158c29 33 71 51 129 51c84 0 136 -42 149 -108h-104c-5 16 -17 31 -47 31c-42 0 -68 -36 -72 -97h1c20 23 47 37 91 37c76 0 143 -49 143 -135c0 -85 -68 -142 -162 -142zM199 389c36 0 62 26 62 62
c0 37 -25 64 -62 64c-38 0 -65 -27 -65 -64s28 -62 65 -62z" />
    <glyph glyph-name="seven.superior" unicode="&#x2077;" horiz-adv-x="352" 
d="M79 318c5 139 73 246 138 310v1h-195v86h302v-78c-70 -70 -128 -181 -132 -319h-113z" />
    <glyph glyph-name="eight.superior" unicode="&#x2078;" horiz-adv-x="389" 
d="M195 309c-105 0 -172 46 -172 122c0 45 28 82 73 100c0 0 -1 1 0 2c-36 16 -56 44 -56 80c0 66 61 110 155 110s153 -41 153 -108c0 -35 -21 -64 -54 -80v-2c45 -16 72 -54 72 -99c0 -79 -66 -125 -171 -125zM194 382c41 0 66 22 66 55c0 35 -24 59 -65 59
s-66 -24 -66 -59c0 -33 25 -55 65 -55zM194 560c36 0 55 20 55 48c0 27 -19 47 -55 47s-55 -20 -55 -47c0 -28 19 -48 55 -48z" />
    <glyph glyph-name="nine.superior" unicode="&#x2079;" horiz-adv-x="386" 
d="M182 723c121 0 178 -83 178 -205c1 -66 -13 -117 -48 -158c-29 -33 -73 -52 -128 -52c-87 0 -144 43 -157 109h104c5 -15 21 -31 51 -31c42 0 69 27 73 93h-1c-20 -23 -47 -37 -91 -37c-76 0 -142 51 -142 137c0 85 67 144 161 144zM186 644c-36 0 -63 -29 -63 -65
c0 -37 26 -65 63 -65c38 0 64 28 64 65s-27 65 -64 65z" />
    <glyph glyph-name="zero.denominator" horiz-adv-x="418" 
d="M210 -9c-108 0 -185 81 -185 207s78 207 185 207c108 0 183 -80 183 -207c0 -126 -75 -207 -183 -207zM210 68c49 0 75 49 75 130c0 80 -27 131 -75 131c-50 0 -76 -50 -76 -131c0 -80 26 -130 76 -130z" />
    <glyph glyph-name="one.denominator" horiz-adv-x="267" 
d="M113 0v249h-91v71c57 2 100 27 110 80h85v-400h-104z" />
    <glyph glyph-name="two.denominator" horiz-adv-x="372" 
d="M26 0c1 79 44 126 96 162c68 47 117 64 117 112c0 29 -16 49 -49 49c-37 0 -61 -26 -61 -73h-97c0 99 62 155 161 155c96 0 149 -58 149 -127c0 -60 -32 -93 -72 -122c-38 -28 -85 -48 -105 -74h179v-82h-318z" />
    <glyph glyph-name="three.denominator" horiz-adv-x="374" 
d="M188 -9c-116 0 -168 58 -169 144h103c1 -40 17 -68 64 -68c39 0 57 22 57 52c0 34 -21 51 -63 51h-24v72h21c37 0 57 16 57 45c0 26 -15 43 -47 43c-40 0 -54 -25 -56 -57h-100c3 76 59 132 159 132c88 0 149 -42 149 -112c0 -40 -26 -64 -61 -78v-2
c43 -14 74 -45 74 -98c0 -85 -75 -124 -164 -124z" />
    <glyph glyph-name="four.denominator" horiz-adv-x="399" 
d="M215 0v84h-189v91l188 227h103v-242h59v-76h-59v-84h-102zM105 161v-1h110v133h-1z" />
    <glyph glyph-name="five.denominator" horiz-adv-x="381" 
d="M189 -9c-92 0 -162 46 -169 126h96c6 -32 35 -48 71 -48c37 0 63 27 63 65c0 42 -28 64 -63 64c-27 0 -48 -10 -59 -24h-92l40 223h251v-79h-180l-14 -73h2c16 14 43 25 82 25c75 0 136 -52 136 -134c0 -88 -67 -145 -164 -145z" />
    <glyph glyph-name="six.denominator" horiz-adv-x="385" 
d="M201 -9c-117 0 -177 83 -177 205c-1 66 14 118 48 157c29 33 72 52 130 52c84 0 134 -42 147 -108h-97c-5 19 -18 35 -49 35c-45 0 -73 -37 -77 -101h1c22 23 49 37 91 37c78 0 143 -50 143 -136c0 -85 -66 -141 -160 -141zM195 66c38 0 64 28 64 66c0 39 -25 66 -64 66
c-40 0 -66 -27 -66 -66s27 -66 66 -66z" />
    <glyph glyph-name="seven.denominator" horiz-adv-x="352" 
d="M79 0c5 139 73 246 138 310v1h-195v86h302v-78c-70 -70 -128 -181 -132 -319h-113z" />
    <glyph glyph-name="eight.denominator" horiz-adv-x="389" 
d="M195 -9c-105 0 -172 46 -172 122c0 45 28 82 73 100c0 0 -1 1 0 2c-36 16 -56 44 -56 80c0 66 61 110 155 110s153 -41 153 -108c0 -35 -21 -64 -54 -80v-2c45 -16 72 -54 72 -99c0 -79 -66 -125 -171 -125zM194 64c41 0 66 22 66 55c0 35 -24 59 -65 59s-66 -24 -66 -59
c0 -33 25 -55 65 -55zM194 242c36 0 55 20 55 48c0 27 -19 47 -55 47s-55 -20 -55 -47c0 -28 19 -48 55 -48z" />
    <glyph glyph-name="nine.denominator" horiz-adv-x="384" 
d="M189 -10c-87 0 -144 45 -155 109h98c6 -18 23 -35 55 -35c43 0 68 30 71 95h-1c-20 -21 -48 -37 -88 -37c-80 0 -146 55 -146 140c0 86 69 143 164 143c46 0 87 -15 115 -40c39 -35 57 -89 57 -165c0 -64 -12 -122 -45 -159c-29 -33 -69 -51 -125 -51zM188 197
c40 0 67 27 67 65s-27 67 -66 67c-40 0 -67 -29 -67 -66c0 -38 25 -66 66 -66z" />
    <glyph glyph-name="zero.numerator" horiz-adv-x="418" 
d="M210 309c-108 0 -185 81 -185 207s78 207 185 207c108 0 183 -80 183 -207c0 -126 -75 -207 -183 -207zM210 391c49 0 72 44 72 125c0 80 -24 126 -72 126c-50 0 -73 -45 -73 -126c0 -80 23 -125 73 -125z" />
    <glyph glyph-name="one.numerator" horiz-adv-x="267" 
d="M113 318v249h-91v71c57 2 100 27 110 80h85v-400h-104z" />
    <glyph glyph-name="two.numerator" horiz-adv-x="372" 
d="M26 318c1 79 44 126 96 162c68 47 117 64 117 112c0 29 -16 49 -49 49c-37 0 -61 -26 -61 -73h-97c0 99 62 155 161 155c96 0 149 -58 149 -127c0 -60 -35 -91 -75 -120c-38 -28 -84 -50 -104 -76h181v-82h-318z" />
    <glyph glyph-name="three.numerator" horiz-adv-x="374" 
d="M188 309c-116 0 -168 58 -169 144h103c1 -40 17 -68 64 -68c39 0 57 22 57 52c0 34 -21 51 -63 51h-24v72h21c37 0 57 16 57 45c0 26 -15 43 -47 43c-40 0 -54 -25 -56 -57h-100c3 76 59 132 159 132c88 0 149 -42 149 -112c0 -40 -26 -64 -61 -78v-2
c43 -14 74 -45 74 -98c0 -85 -75 -124 -164 -124z" />
    <glyph glyph-name="four.numerator" horiz-adv-x="399" 
d="M215 318v84h-189v91l188 227h103v-242h59v-76h-59v-84h-102zM105 479v-1h110v133h-1z" />
    <glyph glyph-name="five.numerator" horiz-adv-x="381" 
d="M189 309c-92 0 -162 46 -169 126h100c6 -29 31 -44 67 -44c37 0 58 25 58 61c0 40 -23 63 -58 63c-27 0 -45 -9 -56 -23h-95l40 223h251v-82h-180l-13 -67h2c16 14 42 25 81 25c80 0 136 -55 136 -137c0 -88 -65 -145 -164 -145z" />
    <glyph glyph-name="six.numerator" horiz-adv-x="387" 
d="M204 309c-117 0 -178 83 -178 205c-1 66 15 117 50 158c29 33 71 51 129 51c84 0 136 -42 149 -108h-104c-5 16 -17 31 -47 31c-42 0 -68 -36 -72 -97h1c20 23 47 37 91 37c76 0 143 -49 143 -135c0 -85 -68 -142 -162 -142zM199 389c36 0 62 26 62 62
c0 37 -25 64 -62 64c-38 0 -65 -27 -65 -64s28 -62 65 -62z" />
    <glyph glyph-name="seven.numerator" horiz-adv-x="352" 
d="M79 318c5 139 73 246 138 310v1h-195v86h302v-78c-70 -70 -128 -181 -132 -319h-113z" />
    <glyph glyph-name="eight.numerator" horiz-adv-x="389" 
d="M195 309c-105 0 -172 46 -172 122c0 45 28 82 73 100c0 0 -1 1 0 2c-36 16 -56 44 -56 80c0 66 61 110 155 110s153 -41 153 -108c0 -35 -21 -64 -54 -80v-2c45 -16 72 -54 72 -99c0 -79 -66 -125 -171 -125zM194 382c41 0 66 22 66 55c0 35 -24 59 -65 59
s-66 -24 -66 -59c0 -33 25 -55 65 -55zM194 560c36 0 55 20 55 48c0 27 -19 47 -55 47s-55 -20 -55 -47c0 -28 19 -48 55 -48z" />
    <glyph glyph-name="nine.numerator" horiz-adv-x="386" 
d="M182 723c121 0 178 -83 178 -205c1 -66 -13 -117 -48 -158c-29 -33 -73 -52 -128 -52c-87 0 -144 43 -157 109h104c5 -15 21 -31 51 -31c42 0 69 27 73 93h-1c-20 -23 -47 -37 -91 -37c-76 0 -142 51 -142 137c0 85 67 144 161 144zM186 644c-36 0 -63 -29 -63 -65
c0 -37 26 -65 63 -65c38 0 64 28 64 65s-27 65 -64 65z" />
    <glyph glyph-name="zero.inferior" unicode="&#x2080;" horiz-adv-x="418" 
d="M210 -159c-108 0 -185 81 -185 207s78 207 185 207c108 0 183 -80 183 -207c0 -126 -75 -207 -183 -207zM210 -82c49 0 75 49 75 130c0 80 -27 131 -75 131c-50 0 -76 -50 -76 -131c0 -80 26 -130 76 -130z" />
    <glyph glyph-name="one.inferior" unicode="&#x2081;" horiz-adv-x="267" 
d="M113 -150v249h-91v71c57 2 100 27 110 80h85v-400h-104z" />
    <glyph glyph-name="two.inferior" unicode="&#x2082;" horiz-adv-x="372" 
d="M26 -150c1 79 44 126 96 162c68 47 117 64 117 112c0 29 -16 49 -49 49c-37 0 -61 -26 -61 -73h-97c0 99 62 155 161 155c96 0 149 -58 149 -127c0 -60 -32 -93 -72 -122c-38 -28 -85 -48 -105 -74h179v-82h-318z" />
    <glyph glyph-name="three.inferior" unicode="&#x2083;" horiz-adv-x="374" 
d="M188 -159c-116 0 -168 58 -169 144h103c1 -40 17 -68 64 -68c39 0 57 22 57 52c0 34 -21 51 -63 51h-24v72h21c37 0 57 16 57 45c0 26 -15 43 -47 43c-40 0 -54 -25 -56 -57h-100c3 76 59 132 159 132c88 0 149 -42 149 -112c0 -40 -26 -64 -61 -78v-2
c43 -14 74 -45 74 -98c0 -85 -75 -124 -164 -124z" />
    <glyph glyph-name="four.inferior" unicode="&#x2084;" horiz-adv-x="399" 
d="M215 -150v84h-189v91l188 227h103v-242h59v-76h-59v-84h-102zM105 11v-1h110v133h-1z" />
    <glyph glyph-name="five.inferior" unicode="&#x2085;" horiz-adv-x="381" 
d="M189 -159c-92 0 -162 46 -169 126h96c6 -32 35 -48 71 -48c37 0 63 27 63 65c0 42 -28 64 -63 64c-27 0 -48 -10 -59 -24h-92l40 223h251v-79h-180l-14 -73h2c16 14 43 25 82 25c75 0 136 -52 136 -134c0 -88 -67 -145 -164 -145z" />
    <glyph glyph-name="six.inferior" unicode="&#x2086;" horiz-adv-x="385" 
d="M201 -159c-117 0 -177 83 -177 205c-1 66 14 118 48 157c29 33 72 52 130 52c84 0 134 -42 147 -108h-97c-5 19 -18 35 -49 35c-45 0 -73 -37 -77 -101h1c22 23 49 37 91 37c78 0 143 -50 143 -136c0 -85 -66 -141 -160 -141zM195 -84c38 0 64 28 64 66
c0 39 -25 66 -64 66c-40 0 -66 -27 -66 -66s27 -66 66 -66z" />
    <glyph glyph-name="seven.inferior" unicode="&#x2087;" horiz-adv-x="352" 
d="M79 -150c5 139 73 246 138 310v1h-195v86h302v-78c-70 -70 -128 -181 -132 -319h-113z" />
    <glyph glyph-name="eight.inferior" unicode="&#x2088;" horiz-adv-x="389" 
d="M195 -159c-105 0 -172 46 -172 122c0 45 28 82 73 100c0 0 -1 1 0 2c-36 16 -56 44 -56 80c0 66 61 110 155 110s153 -41 153 -108c0 -35 -21 -64 -54 -80v-2c45 -16 72 -54 72 -99c0 -79 -66 -125 -171 -125zM194 -86c41 0 66 22 66 55c0 35 -24 59 -65 59
s-66 -24 -66 -59c0 -33 25 -55 65 -55zM194 92c36 0 55 20 55 48c0 27 -19 47 -55 47s-55 -20 -55 -47c0 -28 19 -48 55 -48z" />
    <glyph glyph-name="nine.inferior" unicode="&#x2089;" horiz-adv-x="384" 
d="M189 -160c-87 0 -144 45 -155 109h98c6 -18 23 -35 55 -35c43 0 68 30 71 95h-1c-20 -21 -48 -37 -88 -37c-80 0 -146 55 -146 140c0 86 69 143 164 143c46 0 87 -15 115 -40c39 -35 57 -89 57 -165c0 -64 -12 -122 -45 -159c-29 -33 -69 -51 -125 -51zM188 47
c40 0 67 27 67 65s-27 67 -66 67c-40 0 -67 -29 -67 -66c0 -38 25 -66 66 -66z" />
    <glyph glyph-name="acute.cap" 
d="M384 878l-95 -125h-106l42 125h159z" />
    <glyph glyph-name="breve.cap" 
d="M270 749c-84 0 -143 57 -148 133h78c4 -29 28 -48 69 -48c40 0 65 21 69 48h78c-6 -74 -59 -133 -146 -133z" />
    <glyph glyph-name="caron.alt" 
d="M187 522v44c34 4 62 14 62 48h-60v101h124v-85c0 -76 -61 -106 -126 -108z" />
    <glyph glyph-name="caron.cap" 
d="M418 867l-94 -114h-146l-96 114h118l48 -57h2l49 57h119z" />
    <glyph glyph-name="circumflex.cap" 
d="M82 753l94 114h146l96 -114h-118l-48 57h-2l-49 -57h-119z" />
    <glyph glyph-name="commaaccent.alt" 
d="M187 -263v44c29 7 62 24 62 64h-60v107h124v-97c0 -77 -61 -111 -126 -118z" />
    <glyph glyph-name="dieresis.cap" 
d="M287 753v114h128v-114h-128zM84 753v114h128v-114h-128z" />
    <glyph glyph-name="dotaccent.cap" 
d="M182 753v118h136v-118h-136z" />
    <glyph glyph-name="grave.cap" 
d="M210 753l-95 125h159l42 -125h-106z" />
    <glyph glyph-name="hungarumlaut.cap" 
d="M288 753l33 125h129l-79 -125h-83zM114 753l33 125h129l-79 -125h-83z" />
    <glyph glyph-name="macron.cap" 
d="M113 762v97h284v-97h-284z" />
    <glyph glyph-name="ring.cap" 
d="M250 742c-53 0 -97 41 -97 94c0 52 44 94 97 94s97 -42 97 -94c0 -53 -44 -94 -97 -94zM250 789c26 0 45 21 45 47s-19 47 -45 47s-45 -21 -45 -47s19 -47 45 -47z" />
    <glyph glyph-name="tilde.cap" 
d="M308 755c-48 0 -82 33 -109 33c-14 0 -24 -12 -27 -31h-72c0 78 40 118 90 118c49 0 82 -35 109 -35c19 0 25 12 29 31h72c0 -68 -34 -116 -92 -116z" />
    <glyph glyph-name="R.alt" horiz-adv-x="655" 
d="M489 0l-166 276h-118v-276h-150v715h314c83 0 145 -24 187 -67c40 -41 64 -91 64 -155c0 -100 -52 -170 -142 -200l179 -293h-168zM205 589v-195h150c76 0 116 35 116 98c0 65 -42 97 -114 97h-152z" />
    <glyph glyph-name="AEacute" unicode="&#x1fc;" horiz-adv-x="972" 
d="M4 0l248 715h677v-125h-354v-161h306v-117h-306v-181h365v-131h-514v152h-224l-51 -152h-147zM349 590l-111 -331h188v331h-77zM735 878l-95 -125h-106l42 125h159z" />
    <glyph glyph-name="Oslashacute" unicode="&#x1fe;" horiz-adv-x="737" 
d="M79 -21l-49 42l74 84c-52 65 -80 152 -80 251c0 214 134 373 345 373c89 0 165 -29 222 -78l66 74l49 -42l-71 -79c50 -65 78 -151 78 -248c0 -214 -133 -372 -344 -372c-88 0 -162 27 -219 74zM172 356c0 -54 9 -103 28 -144l304 341c-32 36 -77 57 -134 57
c-131 0 -198 -111 -198 -254zM370 103c131 0 195 111 195 253c0 52 -9 100 -26 140l-301 -339c32 -34 76 -54 132 -54zM515 878l-95 -125h-106l42 125h159z" />
    <glyph glyph-name="Racute.alt" horiz-adv-x="655" 
d="M489 0l-166 276h-118v-276h-150v715h314c83 0 145 -24 187 -67c40 -41 64 -91 64 -155c0 -100 -52 -170 -142 -200l179 -293h-168zM205 589v-195h150c76 0 116 35 116 98c0 65 -42 97 -114 97h-152zM473 878l-95 -125h-106l42 125h159z" />
    <glyph glyph-name="Rcaron.alt" horiz-adv-x="655" 
d="M489 0l-166 276h-118v-276h-150v715h314c83 0 145 -24 187 -67c40 -41 64 -91 64 -155c0 -100 -52 -170 -142 -200l179 -293h-168zM205 589v-195h150c76 0 116 35 116 98c0 65 -42 97 -114 97h-152zM494 867l-94 -114h-146l-96 114h118l48 -57h2l49 57h119z" />
    <glyph glyph-name="Rcommaaccent.alt" horiz-adv-x="655" 
d="M489 0l-166 276h-118v-276h-150v715h314c83 0 145 -24 187 -67c40 -41 64 -91 64 -155c0 -100 -52 -170 -142 -200l179 -293h-168zM205 589v-195h150c76 0 116 35 116 98c0 65 -42 97 -114 97h-152zM267 -263v44c29 7 62 24 62 64h-60v107h124v-97
c0 -77 -61 -111 -126 -118z" />
    <glyph glyph-name="Tcommaaccent" horiz-adv-x="611" 
d="M18 593v122h575v-122h-215v-593h-145v593h-215zM242 -263v44c29 7 62 24 62 64h-60v107h124v-97c0 -77 -61 -111 -126 -118z" />
    <glyph glyph-name="aeacute" unicode="&#x1fd;" horiz-adv-x="872" 
d="M613 -15c-90 0 -157 33 -201 87h-3c-56 -59 -105 -84 -203 -84c-111 0 -187 55 -187 157c0 113 92 149 206 165c85 12 124 19 124 58c0 37 -29 61 -86 61c-64 0 -95 -23 -99 -72h-121c4 90 71 169 221 169c84 0 140 -21 174 -59c42 38 97 60 162 60
c165 0 253 -126 253 -309h-372c10 -79 54 -128 131 -128c53 0 84 24 99 63h134c-19 -91 -100 -168 -232 -168zM602 422c-72 0 -107 -43 -119 -110h228c-4 65 -47 110 -109 110zM231 83c78 0 121 48 121 98v77c-24 -14 -61 -22 -95 -30c-71 -16 -106 -32 -106 -80
s32 -65 80 -65zM602 718l-108 -141h-106l55 141h159z" />
    <glyph glyph-name="idotaccent" horiz-adv-x="224" 
d="M44 0v513h136v-513h-136zM44 593v122h136v-122h-136z" />
    <glyph glyph-name="uni0237" unicode="&#x237;" horiz-adv-x="224" 
d="M36 -169c-25 0 -56 2 -77 6v97c55 1 85 6 85 53v526h136v-533c0 -60 -12 -90 -34 -112c-26 -27 -66 -37 -110 -37z" />
    <glyph glyph-name="oslashacute" unicode="&#x1ff;" horiz-adv-x="574" 
d="M63 -36l-40 37l63 70c-43 48 -67 112 -67 185c0 153 109 271 268 271c64 0 120 -20 164 -53l61 67l39 -37l-60 -67c40 -47 64 -111 64 -181c0 -153 -109 -271 -268 -271c-62 0 -117 18 -160 49zM157 256c0 -34 5 -65 15 -90l202 222c-22 23 -51 36 -87 36
c-84 0 -130 -68 -130 -168zM287 89c83 0 130 67 130 167c0 32 -5 60 -14 84l-199 -220c21 -20 49 -31 83 -31zM447 718l-108 -141h-106l55 141h159z" />
    <glyph glyph-name="tcommaaccent" horiz-adv-x="332" 
d="M14 423v90h71v160h133v-160h88v-90h-88v-272c0 -38 21 -51 51 -51c17 0 40 1 40 1v-100s-31 -2 -85 -2c-66 0 -139 26 -139 123v301h-71zM128 -263v44c29 7 62 24 62 64h-60v107h124v-97c0 -77 -61 -111 -126 -118z" />
    <glyph glyph-name="space_uni0326" 
d="M187 -263v44c29 7 62 24 62 64h-60v107h124v-97c0 -77 -61 -111 -126 -118z" />
    <glyph glyph-name="space_uni0326.alt" 
d="M314 816v-44c-29 -7 -62 -24 -62 -64h60v-107h-124v97c0 77 61 111 126 118z" />
    <glyph glyph-name="onethird" unicode="&#x2153;" horiz-adv-x="843" 
d="M116 318v249h-91v71c57 2 100 27 110 80h85v-400h-104zM97 0l496 715h90l-497 -715h-89zM654 -9c-116 0 -168 58 -169 144h103c1 -40 17 -68 64 -68c39 0 57 22 57 52c0 34 -21 51 -63 51h-24v72h21c37 0 57 16 57 45c0 26 -15 43 -47 43c-40 0 -54 -25 -56 -57h-100
c3 76 59 132 159 132c88 0 149 -42 149 -112c0 -40 -26 -64 -61 -78v-2c43 -14 74 -45 74 -98c0 -85 -75 -124 -164 -124z" />
    <glyph glyph-name="oneeighth" unicode="&#x215b;" horiz-adv-x="855" 
d="M116 318v249h-91v71c57 2 100 27 110 80h85v-400h-104zM97 0l496 715h90l-497 -715h-89zM658 -9c-105 0 -172 46 -172 122c0 45 28 82 73 100c0 0 -1 1 0 2c-36 16 -56 44 -56 80c0 66 61 110 155 110s153 -41 153 -108c0 -35 -21 -64 -54 -80v-2c45 -16 72 -54 72 -99
c0 -79 -66 -125 -171 -125zM657 64c41 0 66 22 66 55c0 35 -24 59 -65 59s-66 -24 -66 -59c0 -33 25 -55 65 -55zM657 242c36 0 55 20 55 48c0 27 -19 47 -55 47s-55 -20 -55 -47c0 -28 19 -48 55 -48z" />
    <glyph glyph-name="threeeighths" unicode="&#x215c;" horiz-adv-x="900" 
d="M191 309c-116 0 -168 58 -169 144h103c1 -40 17 -68 64 -68c39 0 57 22 57 52c0 34 -21 51 -63 51h-24v72h21c37 0 57 16 57 45c0 26 -15 43 -47 43c-40 0 -54 -25 -56 -57h-100c3 76 59 132 159 132c88 0 149 -42 149 -112c0 -40 -26 -64 -61 -78v-2
c43 -14 74 -45 74 -98c0 -85 -75 -124 -164 -124zM157 0l496 715h90l-497 -715h-89zM703 -9c-105 0 -172 46 -172 122c0 45 28 82 73 100c0 0 -1 1 0 2c-36 16 -56 44 -56 80c0 66 61 110 155 110s153 -41 153 -108c0 -35 -21 -64 -54 -80v-2c45 -16 72 -54 72 -99
c0 -79 -66 -125 -171 -125zM702 64c41 0 66 22 66 55c0 35 -24 59 -65 59s-66 -24 -66 -59c0 -33 25 -55 65 -55zM702 242c36 0 55 20 55 48c0 27 -19 47 -55 47s-55 -20 -55 -47c0 -28 19 -48 55 -48z" />
    <glyph glyph-name="fiveeighths" unicode="&#x215d;" horiz-adv-x="892" 
d="M192 309c-92 0 -162 46 -169 126h100c6 -29 31 -44 67 -44c37 0 58 25 58 61c0 40 -23 63 -58 63c-27 0 -45 -9 -56 -23h-95l40 223h251v-82h-180l-13 -67h2c16 14 42 25 81 25c80 0 136 -55 136 -137c0 -88 -65 -145 -164 -145zM150 0l496 715h90l-497 -715h-89zM695 -9
c-105 0 -172 46 -172 122c0 45 28 82 73 100c0 0 -1 1 0 2c-36 16 -56 44 -56 80c0 66 61 110 155 110s153 -41 153 -108c0 -35 -21 -64 -54 -80v-2c45 -16 72 -54 72 -99c0 -79 -66 -125 -171 -125zM694 64c41 0 66 22 66 55c0 35 -24 59 -65 59s-66 -24 -66 -59
c0 -33 25 -55 65 -55zM694 242c36 0 55 20 55 48c0 27 -19 47 -55 47s-55 -20 -55 -47c0 -28 19 -48 55 -48z" />
    <glyph glyph-name="twothirds" unicode="&#x2154;" horiz-adv-x="913" 
d="M29 318c1 79 44 126 96 162c68 47 117 64 117 112c0 29 -16 49 -49 49c-37 0 -61 -26 -61 -73h-97c0 99 62 155 161 155c96 0 149 -58 149 -127c0 -60 -35 -91 -75 -120c-38 -28 -84 -50 -104 -76h181v-82h-318zM179 0l496 715h90l-497 -715h-89zM724 -9
c-116 0 -168 58 -169 144h103c1 -40 17 -68 64 -68c39 0 57 22 57 52c0 34 -21 51 -63 51h-24v72h21c37 0 57 16 57 45c0 26 -15 43 -47 43c-40 0 -54 -25 -56 -57h-100c3 76 59 132 159 132c88 0 149 -42 149 -112c0 -40 -26 -64 -61 -78v-2c43 -14 74 -45 74 -98
c0 -85 -75 -124 -164 -124z" />
    <glyph glyph-name="seveneighths" unicode="&#x215e;" horiz-adv-x="818" 
d="M82 318c5 139 73 246 138 310v1h-195v86h302v-78c-70 -70 -128 -181 -132 -319h-113zM62 0l496 715h90l-497 -715h-89zM621 -9c-105 0 -172 46 -172 122c0 45 28 82 73 100c0 0 -1 1 0 2c-36 16 -56 44 -56 80c0 66 61 110 155 110s153 -41 153 -108
c0 -35 -21 -64 -54 -80v-2c45 -16 72 -54 72 -99c0 -79 -66 -125 -171 -125zM620 64c41 0 66 22 66 55c0 35 -24 59 -65 59s-66 -24 -66 -59c0 -33 25 -55 65 -55zM620 242c36 0 55 20 55 48c0 27 -19 47 -55 47s-55 -20 -55 -47c0 -28 19 -48 55 -48z" />
    <glyph glyph-name="a.alt" horiz-adv-x="523" 
d="M461 -8c-65 0 -98 19 -109 69c-27 -39 -68 -73 -156 -73c-105 0 -177 54 -177 156c0 113 92 150 206 166c85 12 124 19 124 58c0 37 -32 61 -91 61c-64 0 -94 -22 -97 -72h-121c3 90 69 169 220 169c156 0 220 -69 220 -189v-210c0 -33 6 -45 36 -40h3v-83
c-12 -6 -28 -12 -58 -12zM231 83c78 0 121 48 121 98v76c-24 -14 -61 -22 -95 -30c-71 -16 -106 -31 -106 -79c0 -47 32 -65 80 -65z" />
    <glyph glyph-name="agrave.alt" horiz-adv-x="523" 
d="M461 -8c-65 0 -98 19 -109 69c-27 -39 -68 -73 -156 -73c-105 0 -177 54 -177 156c0 113 92 150 206 166c85 12 124 19 124 58c0 37 -32 61 -91 61c-64 0 -94 -22 -97 -72h-121c3 90 69 169 220 169c156 0 220 -69 220 -189v-210c0 -33 6 -45 36 -40h3v-83
c-12 -6 -28 -12 -58 -12zM231 83c78 0 121 48 121 98v76c-24 -14 -61 -22 -95 -30c-71 -16 -106 -31 -106 -79c0 -47 32 -65 80 -65zM218 577l-108 141h159l55 -141h-106z" />
    <glyph glyph-name="aacute.alt" horiz-adv-x="523" 
d="M461 -8c-65 0 -98 19 -109 69c-27 -39 -68 -73 -156 -73c-105 0 -177 54 -177 156c0 113 92 150 206 166c85 12 124 19 124 58c0 37 -32 61 -91 61c-64 0 -94 -22 -97 -72h-121c3 90 69 169 220 169c156 0 220 -69 220 -189v-210c0 -33 6 -45 36 -40h3v-83
c-12 -6 -28 -12 -58 -12zM231 83c78 0 121 48 121 98v76c-24 -14 -61 -22 -95 -30c-71 -16 -106 -31 -106 -79c0 -47 32 -65 80 -65zM426 718l-108 -141h-106l55 141h159z" />
    <glyph glyph-name="acircumflex.alt" horiz-adv-x="523" 
d="M461 -8c-65 0 -98 19 -109 69c-27 -39 -68 -73 -156 -73c-105 0 -177 54 -177 156c0 113 92 150 206 166c85 12 124 19 124 58c0 37 -32 61 -91 61c-64 0 -94 -22 -97 -72h-121c3 90 69 169 220 169c156 0 220 -69 220 -189v-210c0 -33 6 -45 36 -40h3v-83
c-12 -6 -28 -12 -58 -12zM231 83c78 0 121 48 121 98v76c-24 -14 -61 -22 -95 -30c-71 -16 -106 -31 -106 -79c0 -47 32 -65 80 -65zM98 581l94 126h146l96 -126h-118l-48 69h-2l-49 -69h-119z" />
    <glyph glyph-name="atilde.alt" horiz-adv-x="523" 
d="M461 -8c-65 0 -98 19 -109 69c-27 -39 -68 -73 -156 -73c-105 0 -177 54 -177 156c0 113 92 150 206 166c85 12 124 19 124 58c0 37 -32 61 -91 61c-64 0 -94 -22 -97 -72h-121c3 90 69 169 220 169c156 0 220 -69 220 -189v-210c0 -33 6 -45 36 -40h3v-83
c-12 -6 -28 -12 -58 -12zM231 83c78 0 121 48 121 98v76c-24 -14 -61 -22 -95 -30c-71 -16 -106 -31 -106 -79c0 -47 32 -65 80 -65zM324 575c-48 0 -82 33 -109 33c-14 0 -24 -12 -27 -31h-72c0 78 40 118 90 118c49 0 82 -35 109 -35c19 0 25 12 29 31h72
c0 -68 -34 -116 -92 -116z" />
    <glyph glyph-name="adieresis.alt" horiz-adv-x="523" 
d="M461 -8c-65 0 -98 19 -109 69c-27 -39 -68 -73 -156 -73c-105 0 -177 54 -177 156c0 113 92 150 206 166c85 12 124 19 124 58c0 37 -32 61 -91 61c-64 0 -94 -22 -97 -72h-121c3 90 69 169 220 169c156 0 220 -69 220 -189v-210c0 -33 6 -45 36 -40h3v-83
c-12 -6 -28 -12 -58 -12zM231 83c78 0 121 48 121 98v76c-24 -14 -61 -22 -95 -30c-71 -16 -106 -31 -106 -79c0 -47 32 -65 80 -65zM314 581v114h128v-114h-128zM91 581v114h128v-114h-128z" />
    <glyph glyph-name="amacron.alt" horiz-adv-x="523" 
d="M461 -8c-65 0 -98 19 -109 69c-27 -39 -68 -73 -156 -73c-105 0 -177 54 -177 156c0 113 92 150 206 166c85 12 124 19 124 58c0 37 -32 61 -91 61c-64 0 -94 -22 -97 -72h-121c3 90 69 169 220 169c156 0 220 -69 220 -189v-210c0 -33 6 -45 36 -40h3v-83
c-12 -6 -28 -12 -58 -12zM231 83c78 0 121 48 121 98v76c-24 -14 -61 -22 -95 -30c-71 -16 -106 -31 -106 -79c0 -47 32 -65 80 -65zM124 592v97h284v-97h-284z" />
    <glyph glyph-name="abreve.alt" horiz-adv-x="523" 
d="M461 -8c-65 0 -98 19 -109 69c-27 -39 -68 -73 -156 -73c-105 0 -177 54 -177 156c0 113 92 150 206 166c85 12 124 19 124 58c0 37 -32 61 -91 61c-64 0 -94 -22 -97 -72h-121c3 90 69 169 220 169c156 0 220 -69 220 -189v-210c0 -33 6 -45 36 -40h3v-83
c-12 -6 -28 -12 -58 -12zM231 83c78 0 121 48 121 98v76c-24 -14 -61 -22 -95 -30c-71 -16 -106 -31 -106 -79c0 -47 32 -65 80 -65zM267 573c-84 0 -143 57 -148 133h78c4 -29 28 -48 69 -48c40 0 65 21 69 48h78c-6 -74 -59 -133 -146 -133z" />
    <glyph glyph-name="aring.alt" horiz-adv-x="523" 
d="M461 -8c-65 0 -98 19 -109 69c-27 -39 -68 -73 -156 -73c-105 0 -177 54 -177 156c0 113 92 150 206 166c85 12 124 19 124 58c0 37 -32 61 -91 61c-64 0 -94 -22 -97 -72h-121c3 90 69 169 220 169c156 0 220 -69 220 -189v-210c0 -33 6 -45 36 -40h3v-83
c-12 -6 -28 -12 -58 -12zM231 83c78 0 121 48 121 98v76c-24 -14 -61 -22 -95 -30c-71 -16 -106 -31 -106 -79c0 -47 32 -65 80 -65zM266 561c-53 0 -97 41 -97 94c0 52 44 94 97 94s97 -42 97 -94c0 -53 -44 -94 -97 -94zM266 608c26 0 45 21 45 47s-19 47 -45 47
s-45 -21 -45 -47s19 -47 45 -47z" />
    <glyph glyph-name="aogonek.alt" horiz-adv-x="523" 
d="M459 -174c-72 0 -108 29 -108 81c0 43 31 74 59 93c-31 8 -51 28 -58 61c-27 -39 -68 -73 -156 -73c-105 0 -177 54 -177 156c0 113 92 150 206 166c85 12 124 19 124 58c0 37 -32 61 -91 61c-64 0 -94 -22 -97 -72h-121c3 90 69 169 220 169c156 0 220 -69 220 -189
v-210c0 -33 6 -45 36 -40h3v-83c-36 -15 -65 -43 -65 -71c0 -18 12 -28 31 -28c13 0 23 3 32 7h2v-77c-12 -5 -29 -9 -60 -9zM231 83c78 0 121 48 121 98v76c-24 -14 -61 -22 -95 -30c-71 -16 -106 -31 -106 -79c0 -47 32 -65 80 -65z" />
    <glyph glyph-name="Ccedilla.alt" horiz-adv-x="684" 
d="M296 -168v28c30 2 53 13 53 42h-51v73h107v-51c0 -74 -46 -92 -109 -92zM368 -15c-201 0 -344 155 -344 370c0 212 132 374 343 374c176 0 280 -105 295 -241h-144c-13 72 -67 119 -151 119c-132 0 -195 -110 -195 -252c0 -146 76 -251 196 -251c85 0 145 51 154 126h142
c-4 -63 -31 -124 -79 -169c-49 -46 -118 -76 -217 -76z" />
    <glyph glyph-name="Scedilla.alt" horiz-adv-x="642" 
d="M265 -168v28c30 2 53 13 53 42h-51v73h107v-51c0 -74 -46 -92 -109 -92zM332 -16c-194 0 -304 86 -309 237h142c10 -86 59 -120 161 -120c74 0 139 26 139 92c0 70 -68 84 -177 109c-128 29 -245 63 -245 212c0 141 115 214 274 214c161 0 265 -79 276 -223h-139
c-8 72 -64 108 -138 108c-78 0 -129 -33 -129 -84c0 -58 50 -75 156 -98c147 -32 267 -67 267 -221c0 -145 -117 -226 -278 -226z" />
    <glyph glyph-name="ccedilla.alt" horiz-adv-x="528" 
d="M220 -168v28c30 2 53 13 53 42h-51v73h107v-51c0 -74 -46 -92 -109 -92zM282 -15c-162 0 -263 118 -263 271s100 271 256 271c133 0 215 -77 233 -188h-133c-9 45 -44 79 -94 79c-82 0 -124 -63 -124 -162c0 -97 39 -162 122 -162c55 0 94 29 103 87h131
c-9 -109 -94 -196 -231 -196z" />
    <glyph glyph-name="scedilla.alt" horiz-adv-x="485" 
d="M188 -168v28c30 2 53 13 53 42h-51v73h107v-51c0 -74 -46 -92 -109 -92zM252 -15c-149 0 -232 72 -240 181h126c9 -59 51 -85 112 -85c60 0 94 23 94 59c0 49 -65 54 -135 68c-92 18 -182 43 -182 155c0 111 92 164 209 164c135 0 210 -67 220 -170h-123
c-6 55 -41 75 -99 75c-53 0 -88 -20 -88 -57c0 -44 68 -48 141 -63c86 -18 181 -42 181 -162c0 -103 -88 -165 -216 -165z" />
    <glyph glyph-name="hyphen.cap" horiz-adv-x="342" 
d="M28 252v127h286v-127h-286z" />
    <glyph glyph-name="endash.cap" 
d="M0 264v117h500v-117h-500z" />
    <glyph glyph-name="emdash.cap" horiz-adv-x="1000" 
d="M100 264v117h800v-117h-800z" />
    <glyph glyph-name="questiondown.cap" horiz-adv-x="525" 
d="M259 -13c-153 0 -243 91 -243 209c0 99 52 139 95 172c75 57 104 67 104 138h122c0 -117 -43 -146 -104 -190c-43 -31 -81 -55 -81 -116s45 -98 106 -98c74 0 124 47 125 125h129c-3 -133 -90 -240 -253 -240zM203 570v145h146v-145h-146z" />
    <glyph glyph-name="exclamdown.cap" horiz-adv-x="254" 
d="M56 0v158l38 348h66l38 -348v-158h-142zM54 570v145h146v-145h-146z" />
    <glyph glyph-name="parenleft.cap" horiz-adv-x="346" 
d="M219 -101c-81 111 -152 256 -152 439c0 189 72 341 151 446h116c-73 -115 -125 -253 -125 -446c0 -180 55 -320 124 -439h-114z" />
    <glyph glyph-name="parenright.cap" horiz-adv-x="346" 
d="M13 -101c69 119 124 259 124 439c0 193 -52 331 -125 446h116c79 -105 151 -257 151 -446c0 -183 -71 -328 -152 -439h-114z" />
    <glyph glyph-name="bracketleft.cap" horiz-adv-x="382" 
d="M64 -101v885h286v-106h-155v-673h155v-106h-286z" />
    <glyph glyph-name="bracketright.cap" horiz-adv-x="382" 
d="M32 -101v106h155v673h-155v106h286v-885h-286z" />
    <glyph glyph-name="braceleft.cap" horiz-adv-x="382" 
d="M318 -101c-138 0 -210 41 -210 185v132c0 51 -21 75 -83 77v100c62 3 83 27 83 77v130c0 144 72 184 210 184h32v-106h-27c-56 0 -84 -13 -84 -78v-152c0 -61 -19 -88 -60 -103v-3c41 -16 60 -42 60 -103v-155c0 -64 28 -79 84 -79h27v-106h-32z" />
    <glyph glyph-name="braceright.cap" horiz-adv-x="382" 
d="M32 -101v106h27c56 0 84 13 84 78v155c0 61 19 88 60 103v3c-41 16 -60 42 -60 103v152c0 64 -28 79 -84 79h-27v106h32c138 0 210 -41 210 -185v-129c0 -51 21 -75 83 -77v-100c-62 -3 -83 -27 -83 -77v-133c0 -144 -72 -184 -210 -184h-32z" />
    <glyph glyph-name="guillemotleft.cap" horiz-adv-x="447" 
d="M388 114l-144 133v132l144 133v-128l-80 -71v-2l80 -71v-126zM198 114l-144 133v132l144 133v-128l-80 -71v-2l80 -71v-126z" />
    <glyph glyph-name="guillemotright.cap" horiz-adv-x="447" 
d="M59 512l144 -133v-132l-144 -133v128l80 71v2l-80 71v126zM249 512l144 -133v-132l-144 -133v128l80 71v2l-80 71v126z" />
    <glyph glyph-name="guilsinglleft.cap" horiz-adv-x="277" 
d="M218 110l-164 140v126l164 140v-131l-88 -72v-2l88 -72v-129z" />
    <glyph glyph-name="guilsinglright.cap" horiz-adv-x="277" 
d="M59 516l164 -140v-126l-164 -140v131l88 72v2l-88 72v129z" />
    <glyph glyph-name="uni24C5" unicode="&#x24c5;" horiz-adv-x="815" 
d="M408 -17c-206 0 -368 158 -368 372s162 373 368 373s367 -159 367 -373s-161 -372 -367 -372zM408 32c176 0 309 138 309 323s-133 323 -309 323c-177 0 -310 -138 -310 -323s133 -323 310 -323zM262 144v413h188c51 0 88 -15 113 -39c26 -24 40 -59 40 -100
c0 -79 -55 -135 -139 -135h-98v-139h-104zM366 472v-109h74c38 0 59 20 59 54c0 35 -21 55 -59 55h-74z" />
    <glyph glyph-name="registered.alt" horiz-adv-x="815" 
d="M408 -17c-206 0 -368 158 -368 372s162 373 368 373s367 -159 367 -373s-161 -372 -367 -372zM408 32c176 0 309 138 309 323s-133 323 -309 323c-177 0 -310 -138 -310 -323s133 -323 310 -323zM247 152v407h197c81 0 146 -41 146 -118c0 -46 -24 -81 -71 -98v-2
c37 -12 53 -36 59 -78c8 -53 5 -97 19 -103v-8h-102c-11 7 -9 50 -16 94c-5 40 -23 57 -66 57h-64v-151h-102zM349 479v-100h75c42 0 63 18 63 50c0 31 -19 50 -61 50h-77z" />
    <glyph glyph-name="uni2032" unicode="&#x2032;" horiz-adv-x="201" 
d="M22 464l38 251h119l-38 -251h-119z" />
    <glyph glyph-name="uni2033" unicode="&#x2033;" horiz-adv-x="382" 
d="M203 464l38 251h119l-38 -251h-119zM22 464l38 251h119l-38 -251h-119z" />
    <glyph glyph-name="dollar.cap" horiz-adv-x="633" 
d="M290 -101v93c-169 10 -264 94 -268 233h141c8 -76 47 -111 127 -117v197c-136 31 -248 65 -248 210c0 133 103 204 248 211v66h61v-67c137 -12 225 -88 235 -218h-137c-7 57 -45 92 -98 102v-179c139 -30 252 -68 252 -216c0 -136 -105 -215 -252 -222v-93h-61zM460 198
c0 55 -44 75 -109 93v-183c60 6 109 33 109 90zM184 530c0 -47 34 -67 106 -86v168c-65 -6 -106 -36 -106 -82z" />
    <glyph glyph-name="Euro.cap" horiz-adv-x="654" 
d="M17 385v61h56c28 170 139 283 298 283c160 0 250 -100 264 -241h-140c-12 77 -52 123 -124 123c-84 0 -134 -64 -152 -165h187v-61h-193c-1 -9 -1 -20 -1 -29c0 -13 0 -25 1 -37h193v-61h-186c20 -100 72 -156 156 -156c80 0 120 62 129 146h136
c-8 -154 -101 -264 -267 -264c-157 0 -269 105 -300 274h-57v61h50c-1 12 -1 24 -1 37c0 9 0 20 1 29h-50z" />
    <glyph glyph-name="sterling.cap" horiz-adv-x="602" 
d="M32 304v90h47c-17 34 -32 72 -32 120c0 122 93 215 264 215c76 0 142 -18 190 -60s74 -101 76 -195h-141c-1 100 -53 140 -124 140c-74 0 -115 -42 -115 -105c0 -41 19 -78 37 -115h155v-90h-124c1 -9 2 -20 2 -29c0 -58 -31 -108 -81 -145l2 -3c23 9 49 19 81 19
c75 0 97 -31 155 -31c40 0 77 23 102 45l65 -110c-42 -36 -103 -65 -166 -65c-101 0 -136 49 -217 49c-42 0 -75 -21 -107 -42l-72 106c57 38 99 89 99 155c0 17 -3 35 -7 51h-89z" />
    <glyph glyph-name="yen.cap" horiz-adv-x="628" 
d="M65 275v61h153l-210 379h162l103 -208c20 -40 43 -92 43 -92h2s23 53 42 92l102 208h158l-212 -379h157v-61h-182v-66h182v-61h-182v-148h-136v148h-182v61h182v66h-182z" />
    <glyph glyph-name="zero.cap" horiz-adv-x="657" 
d="M329 -16c-183 0 -299 145 -299 373c0 229 118 372 300 372c185 0 297 -142 297 -372c0 -228 -112 -373 -298 -373zM330 103c106 0 149 101 149 254c0 151 -44 253 -149 253c-107 0 -152 -101 -152 -253c0 -151 45 -254 152 -254z" />
    <glyph glyph-name="one.cap" horiz-adv-x="409" 
d="M190 0v501h-158v92c86 3 162 32 177 124h124v-717h-143z" />
    <glyph glyph-name="two.cap" horiz-adv-x="565" 
d="M25 0c5 137 91 220 172 284c90 71 188 121 188 213c0 67 -34 113 -99 113c-73 0 -117 -53 -119 -146h-132c0 163 84 264 254 264c158 0 242 -104 242 -227c0 -135 -92 -197 -180 -256c-55 -35 -121 -83 -145 -129h329v-116h-510z" />
    <glyph glyph-name="three.cap" horiz-adv-x="591" 
d="M296 -13c-184 0 -278 98 -280 254h134c6 -88 43 -142 141 -142c80 0 125 44 125 117c0 69 -41 109 -129 109h-44v106h41c68 0 115 36 115 96c0 56 -39 94 -101 94c-82 0 -122 -53 -125 -127h-134c5 141 93 235 259 235c149 0 244 -73 244 -192c0 -81 -52 -128 -123 -151
v-2c91 -22 144 -78 144 -177c0 -149 -119 -220 -267 -220z" />
    <glyph glyph-name="four.cap" horiz-adv-x="618" 
d="M355 0v157h-330v148l325 415h142v-451h107v-112h-107v-157h-137zM138 272v-3h217v278h-2z" />
    <glyph glyph-name="five.cap" horiz-adv-x="600" 
d="M300 -16c-159 0 -273 84 -286 223h138c13 -72 70 -105 145 -105c81 0 129 59 129 136c0 86 -51 132 -129 132c-55 0 -95 -21 -115 -45h-136l69 390h418v-117h-320l-27 -156h2c31 27 80 44 146 44c129 0 238 -92 238 -248c0 -149 -116 -254 -272 -254z" />
    <glyph glyph-name="six.cap" horiz-adv-x="618" 
d="M328 -16c-205 0 -295 168 -297 363c-1 126 24 228 88 300c46 52 111 82 208 82c147 0 226 -78 244 -184h-136c-10 44 -40 75 -103 75c-104 0 -158 -78 -158 -205h2c37 45 86 75 170 75c132 0 248 -103 248 -255c0 -147 -117 -251 -266 -251zM323 95c78 0 136 61 136 138
c0 81 -57 143 -135 143c-90 0 -141 -60 -141 -142c0 -81 57 -139 140 -139z" />
    <glyph glyph-name="seven.cap" horiz-adv-x="553" 
d="M117 0c9 263 149 481 258 593v2h-355v120h509v-115c-128 -130 -248 -340 -259 -600h-153z" />
    <glyph glyph-name="eight.cap" horiz-adv-x="623" 
d="M315 -16c-162 0 -288 79 -288 223c0 88 52 155 130 186v3c-63 28 -100 75 -100 144c0 121 103 189 257 189c155 0 252 -67 252 -187c0 -67 -38 -114 -99 -143v-3c79 -29 129 -96 129 -183c0 -147 -119 -229 -281 -229zM312 98c84 0 139 47 139 115c0 73 -49 121 -137 121
c-87 0 -141 -48 -141 -121c0 -70 52 -115 139 -115zM312 432c74 0 116 40 116 96c0 57 -42 94 -116 94c-75 0 -117 -37 -117 -94c0 -56 42 -96 117 -96z" />
    <glyph glyph-name="nine.cap" horiz-adv-x="619" 
d="M301 -16c-149 0 -237 80 -253 187h137c12 -43 48 -79 112 -79c45 0 79 14 104 46c28 35 46 95 47 169h-2c-38 -44 -88 -78 -166 -78c-145 0 -256 98 -256 250c0 147 116 250 269 250c190 0 296 -119 296 -362c0 -228 -77 -383 -288 -383zM300 341c83 0 145 56 145 138
s-60 140 -144 140c-85 0 -142 -61 -142 -138c0 -81 51 -140 141 -140z" />
    <glyph glyph-name="percent.cap" horiz-adv-x="849" 
d="M204 334c-102 0 -176 76 -176 197c0 122 75 198 176 198c103 0 175 -75 175 -198c0 -121 -72 -197 -175 -197zM646 -16c-102 0 -176 76 -176 197c0 122 75 198 176 198c103 0 175 -75 175 -198c0 -121 -72 -197 -175 -197zM177 0l411 715h85l-411 -715h-85zM646 61
c47 0 69 48 69 120s-23 122 -69 122c-47 0 -69 -49 -69 -122c0 -71 22 -120 69 -120zM204 411c47 0 69 48 69 120s-23 122 -69 122c-47 0 -69 -49 -69 -122c0 -71 22 -120 69 -120z" />
    <glyph glyph-name="perthousand.cap" horiz-adv-x="1240" 
d="M204 334c-102 0 -176 76 -176 197c0 122 75 198 176 198c103 0 175 -75 175 -198c0 -121 -72 -197 -175 -197zM646 -16c-102 0 -176 76 -176 197c0 122 75 198 176 198c103 0 175 -75 175 -198c0 -121 -72 -197 -175 -197zM177 0l411 715h85l-411 -715h-85zM646 61
c47 0 69 48 69 120s-23 122 -69 122c-47 0 -69 -49 -69 -122c0 -71 22 -120 69 -120zM204 411c47 0 69 48 69 120s-23 122 -69 122c-47 0 -69 -49 -69 -122c0 -71 22 -120 69 -120zM1037 -16c-102 0 -176 76 -176 197c0 122 75 198 176 198c103 0 175 -75 175 -198
c0 -121 -72 -197 -175 -197zM1037 61c47 0 69 48 69 120s-23 122 -69 122c-47 0 -69 -49 -69 -122c0 -71 22 -120 69 -120z" />
    <glyph glyph-name="uni2009" unicode="&#x2009;" horiz-adv-x="55" 
 />
    </font>
</defs>
</svg>
